<svg width="178" height="24" viewBox="0 0 178 24" fill="none" xmlns="http://www.w3.org/2000/svg">
<path d="M98.3858 12.2014V0.392739C98.3858 0.22873 98.2582 0.0975228 98.0986 0.0975228H95.333C95.1734 0.0975228 95.0458 0.22873 95.0458 0.392739V11.7531C95.0458 11.9171 94.9182 12.0483 94.7586 12.0483H92.8758C92.7163 12.0483 92.5886 11.9171 92.5886 11.7531V9.35857C92.5886 9.19456 92.461 9.06336 92.3014 9.06336H89.9719C89.8124 9.06336 89.6847 8.93215 89.6847 8.76814V6.3736C89.6847 6.2096 89.5571 6.07839 89.3975 6.07839H87.0468C86.8872 6.07839 86.7596 5.94718 86.7596 5.78317V3.37771C86.7596 3.2137 86.6319 3.08249 86.4724 3.08249H84.1429C83.9833 3.08249 83.8557 2.95128 83.8557 2.78727V0.392739C83.8557 0.22873 83.728 0.0975228 83.5685 0.0975228H80.8028C80.6433 0.0975228 80.5156 0.22873 80.5156 0.392739V3.23556C80.5156 3.39957 80.6433 3.53078 80.8028 3.53078H83.1323C83.2919 3.53078 83.4195 3.66199 83.4195 3.826V5.7613C83.4195 5.92531 83.2919 6.05652 83.1323 6.05652H80.8028C80.6433 6.05652 80.5156 6.18773 80.5156 6.35174V23.6492C80.5156 23.8132 80.6433 23.9444 80.8028 23.9444H83.5685C83.728 23.9444 83.8557 23.8132 83.8557 23.6492V6.8219C83.8557 6.65789 83.9833 6.52668 84.1429 6.52668H86.0256C86.1852 6.52668 86.3128 6.65789 86.3128 6.8219V9.21643C86.3128 9.38044 86.4404 9.51165 86.6 9.51165H88.9295C89.0891 9.51165 89.2167 9.64285 89.2167 9.80686V12.2014C89.2167 12.3654 89.3444 12.4966 89.5039 12.4966H91.8334C91.993 12.4966 92.1206 12.6278 92.1206 12.7918V15.1973C92.1206 15.3613 92.2483 15.4925 92.4078 15.4925H94.7373C94.8969 15.4925 95.0245 15.6237 95.0245 15.7877V23.6711C95.0245 23.8351 95.1522 23.9663 95.3117 23.9663H98.0773C98.2369 23.9663 98.3645 23.8351 98.3645 23.6711V15.3941C98.3645 15.2301 98.2369 15.0989 98.0773 15.0989H95.7691C95.6096 15.0989 95.4819 14.9677 95.4819 14.8037V12.8137C95.4819 12.6497 95.6096 12.5185 95.7691 12.5185H98.0986C98.2582 12.5075 98.3858 12.3654 98.3858 12.2014Z" fill="white"/>
<path d="M72.2525 0H69.5081C69.3379 0 69.1996 0.142141 69.1996 0.317084V20.031C69.1996 20.2059 69.0614 20.3481 68.8912 20.3481H57.701C57.5308 20.3481 57.3925 20.2059 57.3925 20.031V0.317084C57.3925 0.142141 57.2543 0 57.0841 0H54.3397C54.1695 0 54.0312 0.142141 54.0312 0.317084V20.4793C54.0312 20.6542 54.1695 20.7964 54.3397 20.7964H56.6373C56.8075 20.7964 56.9458 20.9385 56.9458 21.1134V23.672C56.9458 23.8469 57.0841 23.9891 57.2543 23.9891H69.3486C69.5187 23.9891 69.657 23.8469 69.657 23.672V21.1025C69.657 20.9276 69.7953 20.7854 69.9655 20.7854H72.2631C72.4333 20.7854 72.5716 20.6433 72.5716 20.4683V0.317084C72.5609 0.142141 72.4227 0 72.2525 0Z" fill="white"/>
<path d="M45.8562 3.18178H43.548C43.3778 3.18178 43.2501 3.03964 43.2501 2.87563V0.30615C43.2501 0.131207 43.1118 0 42.9523 0H30.858C30.6878 0 30.5602 0.142141 30.5602 0.30615V2.86469C30.5602 3.03964 30.4219 3.17084 30.2623 3.17084H27.9541C27.7839 3.17084 27.6562 3.31298 27.6562 3.47699V20.4574C27.6562 20.6323 27.7945 20.7636 27.9541 20.7636H30.2623C30.4325 20.7636 30.5602 20.9057 30.5602 21.0697V23.6283C30.5602 23.8032 30.6984 23.9344 30.858 23.9344H42.9629C43.1331 23.9344 43.2608 23.7923 43.2608 23.6283V21.0697C43.2608 20.8948 43.399 20.7636 43.5586 20.7636H45.8668C46.037 20.7636 46.1647 20.6214 46.1647 20.4574V3.48793C46.1647 3.32392 46.0264 3.18178 45.8562 3.18178ZM42.814 3.94715V20.02C42.814 20.195 42.6757 20.3262 42.5162 20.3262H31.2941C31.1239 20.3262 30.9963 20.1841 30.9963 20.02V3.94715C30.9963 3.77221 31.1346 3.641 31.2941 3.641H42.5055C42.6757 3.641 42.814 3.77221 42.814 3.94715Z" fill="white"/>
<path d="M151.995 3.36765V0.273349C151.995 0.120273 151.878 0 151.729 0H144.134C143.985 0 143.868 0.120273 143.868 0.273349V2.91936C143.868 3.07244 143.751 3.19271 143.602 3.19271H141.666C141.517 3.19271 141.4 3.07244 141.4 2.91936V0.273349C141.4 0.120273 141.283 0 141.134 0H133.539C133.39 0 133.273 0.120273 133.273 0.273349V3.36765C133.273 3.52073 133.39 3.641 133.539 3.641H140.698C140.847 3.641 140.964 3.76128 140.964 3.91435V20.0638C140.964 20.2169 140.847 20.3371 140.698 20.3371H133.539C133.39 20.3371 133.273 20.4574 133.273 20.6105V23.7048C133.273 23.8579 133.39 23.9781 133.539 23.9781H141.134C141.283 23.9781 141.4 23.8579 141.4 23.7048V21.0588C141.4 20.9057 141.517 20.7854 141.666 20.7854H143.602C143.751 20.7854 143.868 20.9057 143.868 21.0588V23.7048C143.868 23.8579 143.985 23.9781 144.134 23.9781H151.729C151.878 23.9781 151.995 23.8579 151.995 23.7048V20.6105C151.995 20.4574 151.878 20.3371 151.729 20.3371H144.57C144.421 20.3371 144.304 20.2169 144.304 20.0638V3.90342C144.304 3.75034 144.421 3.63007 144.57 3.63007H151.729C151.878 3.641 151.995 3.52073 151.995 3.36765Z" fill="white"/>
<path d="M177.697 17.3412H174.953C174.783 17.3412 174.655 17.4834 174.655 17.6474V20.0091C174.655 20.1841 174.517 20.3153 174.357 20.3153H163.146C162.975 20.3153 162.848 20.1731 162.848 20.0091V0.30615C162.848 0.131207 162.71 0 162.55 0H159.806C159.635 0 159.508 0.142141 159.508 0.30615V20.4683C159.508 20.6433 159.646 20.7745 159.806 20.7745H162.103C162.273 20.7745 162.401 20.9166 162.401 21.0806V23.6392C162.401 23.8141 162.539 23.9453 162.699 23.9453H174.793C174.963 23.9453 175.091 23.8032 175.091 23.6392V21.1025C175.091 20.9276 175.229 20.7964 175.389 20.7964H177.686C177.857 20.7964 177.984 20.6542 177.984 20.4902V17.6692C177.995 17.4834 177.867 17.3412 177.697 17.3412Z" fill="white"/>
<path d="M125.488 6.36355V3.44419C125.488 3.30205 125.371 3.18178 125.233 3.18178H122.839C122.701 3.18178 122.584 3.0615 122.584 2.91936V0.262415C122.584 0.120273 122.467 0 122.329 0H110.128C109.99 0 109.873 0.120273 109.873 0.262415V2.90843C109.873 3.05057 109.756 3.17084 109.617 3.17084H107.224C107.086 3.17084 106.969 3.29112 106.969 3.43326V20.5011C106.969 20.6433 107.086 20.7636 107.224 20.7636H109.617C109.756 20.7636 109.873 20.8838 109.873 21.026V23.672C109.873 23.8141 109.99 23.9344 110.128 23.9344H122.307C122.446 23.9344 122.563 23.8141 122.563 23.672V21.026C122.563 20.8838 122.68 20.7636 122.818 20.7636H125.211C125.35 20.7636 125.467 20.6433 125.467 20.5011V17.5927C125.467 17.4506 125.35 17.3303 125.211 17.3303H122.382C122.244 17.3303 122.127 17.4506 122.127 17.5927V20.0529C122.127 20.195 122.009 20.3153 121.871 20.3153H110.575C110.436 20.3153 110.319 20.195 110.319 20.0529V3.90342C110.319 3.76128 110.436 3.641 110.575 3.641H121.871C122.009 3.641 122.127 3.76128 122.127 3.90342V6.36355C122.127 6.5057 122.244 6.62597 122.382 6.62597H125.211C125.371 6.62597 125.488 6.5057 125.488 6.36355Z" fill="white"/>
<path d="M19.5141 6.33075V3.47699C19.5141 3.31298 19.3864 3.18178 19.2269 3.18178H16.8867C16.7272 3.18178 16.5995 3.05057 16.5995 2.88656V0.295216C16.5995 0.131207 16.4719 0 16.3123 0H4.18611C4.02656 0 3.89891 0.131207 3.89891 0.295216V2.89749C3.89891 3.0615 3.77126 3.19271 3.61171 3.19271H1.27158C1.11202 3.19271 0.984375 3.32392 0.984375 3.48793V20.5121C0.984375 20.6761 1.11202 20.8073 1.27158 20.8073H3.61171C3.77126 20.8073 3.89891 20.9385 3.89891 21.1025V23.7048C3.89891 23.8688 4.02656 24 4.18611 24H16.323C16.4825 24 16.6102 23.8688 16.6102 23.7048V21.1025C16.6102 20.9385 16.7378 20.8073 16.8974 20.8073H19.2375C19.3971 20.8073 19.5247 20.6761 19.5247 20.5121V17.6474C19.5247 17.4834 19.3971 17.3522 19.2375 17.3522H16.4506C16.291 17.3522 16.1634 17.4834 16.1634 17.6474V20.0528C16.1634 20.2169 16.0357 20.3481 15.8762 20.3481H4.62224C4.46268 20.3481 4.33504 20.2169 4.33504 20.0528V3.92528C4.33504 3.76128 4.46268 3.63007 4.62224 3.63007H15.8762C16.0357 3.63007 16.1634 3.76128 16.1634 3.92528V6.33075C16.1634 6.49476 16.291 6.62597 16.4506 6.62597H19.2375C19.3864 6.62597 19.5141 6.49476 19.5141 6.33075Z" fill="white"/>
</svg>
