<svg width="80" height="32" viewBox="0 0 80 32" fill="none" xmlns="http://www.w3.org/2000/svg">
<path d="M0 9.57422H4.80178C8.90756 9.57422 11.7484 12.3049 11.7484 15.9707C11.7484 19.6364 8.90756 22.4044 4.80178 22.4044H0V9.57422ZM3.83111 20.0587H4.80267C7.47911 20.0587 9.14667 18.3724 9.14667 15.9716C9.14667 13.5707 7.47911 11.9209 4.80267 11.9209H2.56622V22.2764L3.83111 20.0587Z" fill="white"/>
<path d="M18.2773 9.57422H26.672V11.92H20.8436V16.832L22.0898 14.6507H26.3973V16.96H20.8436V20.0578H26.7636V22.4036H18.2773V9.57422Z" fill="white"/>
<path d="M33.5307 9.57422H36.0969V22.2764L37.3618 20.0587H41.9253V22.4044H33.5307V9.57422Z" fill="white"/>
<path d="M45.5582 9.57422H48.2711L51.6436 19.1049L54.888 9.57422H57.6009L54.2836 19.3067H51.6987L52.7982 22.4044H50.0853L45.5582 9.57422Z" fill="white"/>
<path d="M64 0V6.36622C69.3209 6.36622 73.6338 10.6791 73.6338 16C73.6338 21.3209 69.3209 25.6338 64 25.6338V32C72.8365 32 80 24.8364 80 16C80 7.16356 72.8365 0 64 0Z" fill="white"/>
</svg>
