<svg width="32" height="32" viewBox="0 0 32 32" fill="none" xmlns="http://www.w3.org/2000/svg">
<path d="M25.6909 7.10738C23.9176 6.28071 21.9976 5.68071 19.9976 5.33405C19.98 5.33348 19.9626 5.33678 19.9464 5.34369C19.9303 5.3506 19.9159 5.36096 19.9042 5.37405C19.6642 5.81405 19.3842 6.38738 19.1975 6.82738C17.0762 6.50738 14.9189 6.50738 12.7976 6.82738C12.6109 6.37405 12.3309 5.81405 12.0776 5.37405C12.0642 5.34738 12.0242 5.33405 11.9842 5.33405C9.98422 5.68071 8.07755 6.28071 6.29088 7.10738C6.27755 7.10738 6.26422 7.12071 6.25089 7.13405C2.62422 12.5607 1.62422 17.8407 2.11755 23.0674C2.11755 23.094 2.13089 23.1207 2.15755 23.134C4.55755 24.894 6.86422 25.9607 9.14422 26.6674C9.18422 26.6807 9.22422 26.6674 9.23755 26.6407C9.77088 25.9074 10.2509 25.134 10.6642 24.3207C10.6909 24.2674 10.6642 24.214 10.6109 24.2007C9.85089 23.9074 9.13089 23.5607 8.42422 23.1607C8.37089 23.134 8.37088 23.054 8.41089 23.014C8.55755 22.9074 8.70422 22.7874 8.85088 22.6807C8.87755 22.654 8.91755 22.654 8.94422 22.6674C13.5309 24.7607 18.4776 24.7607 23.0109 22.6674C23.0376 22.654 23.0776 22.654 23.1042 22.6807C23.2509 22.8007 23.3975 22.9074 23.5442 23.0274C23.5975 23.0674 23.5975 23.1474 23.5309 23.174C22.8375 23.5874 22.1042 23.9207 21.3442 24.214C21.2909 24.2274 21.2776 24.294 21.2909 24.334C21.7176 25.1474 22.1976 25.9207 22.7176 26.654C22.7576 26.6674 22.7976 26.6807 22.8375 26.6674C25.1309 25.9607 27.4375 24.894 29.8375 23.134C29.8642 23.1207 29.8775 23.094 29.8775 23.0674C30.4642 17.0274 28.9042 11.7874 25.7442 7.13405C25.7309 7.12071 25.7176 7.10738 25.6909 7.10738ZM11.3576 19.8807C9.98422 19.8807 8.83755 18.614 8.83755 17.054C8.83755 15.494 9.95755 14.2274 11.3576 14.2274C12.7709 14.2274 13.8909 15.5074 13.8776 17.054C13.8776 18.614 12.7576 19.8807 11.3576 19.8807ZM20.6509 19.8807C19.2776 19.8807 18.1309 18.614 18.1309 17.054C18.1309 15.494 19.2509 14.2274 20.6509 14.2274C22.0642 14.2274 23.1842 15.5074 23.1709 17.054C23.1709 18.614 22.0642 19.8807 20.6509 19.8807Z" fill="white"/>
</svg>
