<svg width="183" height="43" viewBox="0 0 183 43" fill="none" xmlns="http://www.w3.org/2000/svg">
<g clip-path="url(#clip0_48_340)">
<path d="M149.25 15.0998C148.33 14.8998 147.49 15.3598 147.16 16.2698C147.05 16.5598 146.98 16.8598 146.88 17.1598C145.93 19.8998 142.13 21.5598 139.68 19.8598C142.32 17.2198 144.98 14.5698 147.64 11.9198C149.08 10.4898 149.01 9.54982 147.31 8.39982C142.73 5.28982 136.28 6.97982 133.84 11.9398C133.13 13.5598 132.97 15.2398 133.27 16.9598C134.58 22.5798 140.96 25.3598 146.19 22.5798C148.43 21.3798 150.03 19.6598 150.5 17.1298C150.66 16.1798 150.08 15.2798 149.24 15.0998H149.25ZM136.8 16.6398C135.83 13.2698 138.43 10.0198 142.07 10.0098C142.94 10.0098 144.16 10.0098 144.16 10.5698C144.16 11.0898 143.44 11.5098 142.99 11.9598C141.3 13.6398 139.58 15.2798 137.88 16.9298C137.16 17.6298 137.08 17.6098 136.8 16.6298V16.6398Z" fill="white"/>
<path d="M179.13 23.5605C175.75 23.5405 173.19 20.9705 173.03 17.3305C172.95 15.4405 172.95 13.5505 173.01 11.6605C173.03 10.7605 172.87 10.3005 171.84 10.4805C171.57 10.5305 171.27 10.5005 170.99 10.4605C170.13 10.3205 169.63 9.82047 169.55 8.98047C169.47 8.16047 169.91 7.62047 170.67 7.34047C171.21 7.14047 171.79 7.12047 172.36 7.16047C172.86 7.19047 173.02 6.99047 173.01 6.51047C172.99 5.77047 172.99 5.02047 173.04 4.28047C173.11 3.16047 173.84 2.48047 174.92 2.48047C175.94 2.48047 176.74 3.22047 176.82 4.30047C176.87 5.01047 176.88 5.72047 176.84 6.43047C176.81 7.02047 177.04 7.18047 177.61 7.15047C178.46 7.11047 179.32 7.12047 180.17 7.15047C181.39 7.20047 182.15 7.87047 182.15 8.85047C182.15 9.83047 181.37 10.4405 180.14 10.4505C179.26 10.4505 178.37 10.4805 177.48 10.4705C177.04 10.4705 176.86 10.6305 176.86 11.0705C176.89 13.1805 176.86 15.2805 176.93 17.3905C177 18.9605 177.81 19.7805 179.41 20.1005C180.23 20.2605 180.95 20.5305 181.18 21.4105C181.48 22.6105 180.57 23.5605 179.12 23.5505L179.13 23.5605Z" fill="white"/>
<path d="M153.41 15.2297C153.41 13.1497 153.41 11.0797 153.41 9.00968C153.41 7.91968 153.94 7.23968 154.9 7.02968C155.86 6.81968 156.57 7.17968 157.02 8.27968C157.25 8.84968 157.49 8.60968 157.79 8.42968C159.09 7.63968 160.44 6.97968 162 6.87968C165.39 6.64968 167.87 8.85968 167.9 12.1797C167.93 15.2397 167.94 18.3097 167.93 21.3697C167.93 22.5897 167.35 23.3297 166.38 23.4897C165.08 23.7097 164.12 22.8697 164.09 21.4197C164.06 19.7497 164.09 18.0697 164.07 16.4097C164.07 15.2097 164.07 13.9897 164.05 12.7897C164.02 10.7297 162.09 9.63968 160.26 10.6697C159.36 11.1797 158.53 11.8097 157.65 12.3697C157.2 12.6497 157.22 13.0897 157.22 13.5197C157.22 16.1797 157.22 18.8397 157.2 21.5097C157.18 22.9197 156.15 23.7397 154.84 23.4597C153.91 23.2597 153.39 22.5797 153.38 21.4597C153.36 19.3797 153.38 17.3097 153.38 15.2397L153.41 15.2297Z" fill="white"/>
<path d="M78.5801 11.7597C78.5801 8.53974 78.5801 5.31974 78.5801 2.10974C78.5801 1.42974 78.7001 0.789735 79.2601 0.329735C79.5401 0.0997353 79.9201 0.0197353 80.2701 0.0797353C82.5201 0.439735 82.4201 1.38974 82.4201 2.23974V21.1797C82.4201 22.5897 81.8401 23.3597 80.7501 23.4897C79.4601 23.6397 78.6101 22.8997 78.6001 21.5097C78.5701 18.5697 78.6001 15.6297 78.6001 12.6897C78.6001 12.3797 78.6001 12.0697 78.6001 11.7597H78.5801Z" fill="white"/>
<path d="M106.12 15.2203C106.12 13.1403 106.09 11.0703 106.12 9.00028C106.15 7.46028 107.44 6.60028 108.75 7.16028C109.15 7.33028 109.48 7.60028 109.61 7.98028C109.85 8.70028 110.2 8.61028 110.72 8.26028C112.5 7.09028 114.41 6.51028 116.56 7.19028C117.39 7.45028 118.17 7.83028 118.68 8.53028C119.15 9.16028 119.55 9.12028 120.15 8.70028C120.79 8.25028 121.51 7.90028 122.2 7.53028C125.32 5.84028 130.15 7.42028 130.19 12.0903C130.22 15.2203 130.22 18.3403 130.19 21.4703C130.19 22.7003 130.37 23.5103 129.32 23.5203C128.15 23.5203 126.31 22.7103 126.3 21.4003C126.27 18.4603 126.27 15.5203 126.28 12.5803C126.28 11.5803 125.9 10.8503 124.93 10.4603C124.41 10.2503 123.86 10.2103 123.36 10.4303C122.25 10.9203 121.31 11.6503 120.39 12.4003C120.06 12.6803 120.13 13.0803 120.13 13.4403C120.1 16.1303 120.08 18.8203 120.04 21.5103C120.02 22.7103 120.33 23.4603 119.25 23.5003C118.12 23.5503 116.32 22.8403 116.24 21.6103C116.18 20.6803 116.21 19.7503 116.21 18.8303C116.21 16.7903 116.23 14.7403 116.21 12.7003C116.19 10.5703 114.5 9.66028 112.64 10.7603C111.92 11.1903 111.25 11.7303 110.54 12.2003C110.16 12.4603 110.04 12.8003 110.06 13.2303C110.09 15.8703 110.04 20.1903 110.04 20.1903C110.04 20.1903 110.02 21.1803 109.96 21.6703C109.84 22.8403 110.09 23.5203 108.99 23.5003C107.94 23.4803 106.17 22.7003 106.14 21.5303C106.1 20.3303 106.12 19.1103 106.12 17.9103C106.12 17.0103 106.12 16.1103 106.14 15.2103L106.12 15.2203Z" fill="white"/>
<path d="M74.7102 15.0998C73.7902 14.8998 72.9502 15.3598 72.6202 16.2698C72.5102 16.5598 72.4502 16.8598 72.3502 17.1598C71.4002 19.8998 67.5902 21.5598 65.1502 19.8598C67.7902 17.2198 70.4502 14.5698 73.1102 11.9198C74.5502 10.4898 74.4802 9.54982 72.7902 8.39982C68.2102 5.28982 61.7602 6.97982 59.3202 11.9398C58.6102 13.5598 58.4502 15.2398 58.7502 16.9598C60.0602 22.5798 66.4402 25.3598 71.6702 22.5798C73.9102 21.3798 75.5102 19.6598 75.9802 17.1298C76.1502 16.1798 75.5602 15.2798 74.7202 15.0998H74.7102ZM62.2602 16.6398C61.2902 13.2698 63.8902 10.0198 67.5302 10.0098C68.4002 10.0098 69.6202 10.0098 69.6202 10.5698C69.6202 11.0898 68.9002 11.5098 68.4502 11.9598C66.7602 13.6398 65.0402 15.2798 63.3502 16.9298C62.6302 17.6298 62.5502 17.6098 62.2702 16.6298L62.2602 16.6398Z" fill="white"/>
<path d="M101.94 15.0998C101.02 14.8998 100.18 15.3598 99.8497 16.2698C99.7397 16.5598 99.6797 16.8598 99.5797 17.1598C98.6297 19.8998 94.8297 21.5598 92.3797 19.8598C95.0197 17.2198 97.6797 14.5698 100.34 11.9198C101.78 10.4898 101.71 9.54982 100.02 8.39982C95.4397 5.28982 88.9897 6.97982 86.5497 11.9398C85.8397 13.5598 85.6797 15.2398 85.9797 16.9598C87.2897 22.5798 93.6697 25.3598 98.8997 22.5798C101.14 21.3798 102.74 19.6598 103.21 17.1298C103.38 16.1798 102.79 15.2798 101.95 15.0998H101.94ZM89.4897 16.6398C88.5197 13.2698 91.1197 10.0198 94.7597 10.0098C95.6297 10.0098 96.8497 10.0098 96.8497 10.5698C96.8497 11.0898 96.1297 11.5098 95.6797 11.9598C93.9897 13.6398 92.2697 15.2798 90.5797 16.9298C89.8597 17.6298 89.7797 17.6098 89.4997 16.6298L89.4897 16.6398Z" fill="white"/>
<path d="M68.9697 36.03C68.9697 38.47 67.4497 40.09 65.1797 40.09C63.9997 40.09 63.0797 39.67 62.4897 38.96H62.4597V42.05C62.4597 42.65 62.1397 43 61.5697 43C60.9997 43 60.6797 42.64 60.6797 42.05V33.01C60.6797 32.43 61.0197 32.06 61.5697 32.06C62.1197 32.06 62.4597 32.43 62.4597 33.01V33.09H62.4897C63.0697 32.38 63.9897 31.96 65.1797 31.96C67.4497 31.96 68.9697 33.58 68.9697 36.04V36.03ZM67.1597 36.03C67.1597 34.57 66.2097 33.59 64.8297 33.59C63.4497 33.59 62.4697 34.59 62.4697 36.03C62.4697 37.47 63.4597 38.46 64.8297 38.46C66.1997 38.46 67.1597 37.47 67.1597 36.03Z" fill="white"/>
<path d="M76.3292 32.89C76.3292 33.44 75.9692 33.78 75.4392 33.78C73.8892 33.78 72.9792 34.61 72.9792 36.5V39.04C72.9792 39.64 72.6592 39.99 72.0892 39.99C71.5192 39.99 71.1992 39.63 71.1992 39.04V33C71.1992 32.42 71.5392 32.05 72.0892 32.05C72.6392 32.05 72.9792 32.42 72.9792 33V33.29H73.0092C73.4992 32.45 74.3192 32 75.4392 32C75.9692 32 76.3292 32.34 76.3292 32.89Z" fill="white"/>
<path d="M81.45 31.9502C83.91 31.9502 85.61 33.6002 85.61 36.0302C85.61 38.4602 83.91 40.0902 81.45 40.0902C78.99 40.0902 77.29 38.4402 77.29 36.0302C77.29 33.6202 78.97 31.9502 81.45 31.9502ZM81.45 38.4502C82.86 38.4502 83.8 37.4602 83.8 36.0202C83.8 34.5802 82.86 33.5802 81.45 33.5802C80.04 33.5802 79.1 34.5702 79.1 36.0202C79.1 37.4702 80.05 38.4502 81.45 38.4502Z" fill="white"/>
<path d="M98.95 31.9502C101.41 31.9502 103.11 33.6002 103.11 36.0302C103.11 38.4602 101.41 40.0902 98.95 40.0902C96.49 40.0902 94.79 38.4402 94.79 36.0302C94.79 33.6202 96.47 31.9502 98.95 31.9502ZM98.95 38.4502C100.36 38.4502 101.3 37.4602 101.3 36.0202C101.3 34.5802 100.36 33.5802 98.95 33.5802C97.54 33.5802 96.6 34.5702 96.6 36.0202C96.6 37.4702 97.55 38.4502 98.95 38.4502Z" fill="white"/>
<path d="M112.379 38.7002C111.649 39.5902 110.519 40.0902 109.189 40.0902C106.709 40.0902 105.029 38.4402 105.029 36.0302C105.029 33.6202 106.709 31.9502 109.189 31.9502C110.349 31.9502 111.369 32.3402 112.149 33.1002C112.309 33.2602 112.389 33.4702 112.389 33.7002C112.389 34.2002 112.069 34.5402 111.559 34.5402C111.349 34.5402 111.139 34.4602 110.979 34.3102C110.489 33.8402 109.899 33.5802 109.179 33.5802C107.789 33.5802 106.829 34.5702 106.829 36.0202C106.829 37.4702 107.779 38.4502 109.179 38.4502C109.959 38.4502 110.619 38.1702 111.019 37.6602C111.179 37.4702 111.409 37.3402 111.679 37.3402C112.199 37.3402 112.539 37.6802 112.539 38.1802C112.539 38.3702 112.479 38.5502 112.359 38.7002H112.379Z" fill="white"/>
<path d="M118.439 31.9502C120.899 31.9502 122.599 33.6002 122.599 36.0302C122.599 38.4602 120.899 40.0902 118.439 40.0902C115.979 40.0902 114.279 38.4402 114.279 36.0302C114.279 33.6202 115.959 31.9502 118.439 31.9502ZM118.439 38.4502C119.849 38.4502 120.789 37.4602 120.789 36.0202C120.789 34.5802 119.849 33.5802 118.439 33.5802C117.029 33.5802 116.089 34.5702 116.089 36.0202C116.089 37.4702 117.039 38.4502 118.439 38.4502Z" fill="white"/>
<path d="M126.61 29.4197V39.0297C126.61 39.6297 126.29 39.9797 125.72 39.9797C125.15 39.9797 124.83 39.6197 124.83 39.0297V29.4197C124.83 28.8197 125.17 28.4697 125.72 28.4697C126.27 28.4697 126.61 28.8297 126.61 29.4197Z" fill="white"/>
<path d="M91.5094 39.7397C89.8494 39.7297 88.5993 38.4696 88.5193 36.6796C88.4793 35.7496 88.4794 34.8297 88.5094 33.8997C88.5194 33.4597 88.4394 33.2296 87.9394 33.3196C87.8094 33.3396 87.6593 33.3297 87.5193 33.3097C87.0993 33.2397 86.8494 32.9897 86.8094 32.5797C86.7694 32.1797 86.9894 31.9096 87.3594 31.7696C87.6294 31.6696 87.9094 31.6596 88.1894 31.6796C88.4394 31.6996 88.5094 31.5996 88.5094 31.3596C88.4994 30.9996 88.5094 30.6296 88.5294 30.2696C88.5594 29.7196 88.9194 29.3896 89.4494 29.3896C89.9494 29.3896 90.3394 29.7496 90.3794 30.2796C90.3994 30.6296 90.4094 30.9796 90.3794 31.3296C90.3594 31.6196 90.4794 31.6996 90.7594 31.6896C91.1794 31.6696 91.5994 31.6696 92.0194 31.6896C92.6194 31.7096 92.9894 32.0496 92.9894 32.5196C92.9894 32.9896 92.6094 33.2997 91.9994 33.3097C91.5694 33.3097 91.1294 33.3296 90.6994 33.3196C90.4794 33.3196 90.3994 33.3996 90.3994 33.6196C90.4194 34.6496 90.3994 35.6797 90.4394 36.7197C90.4694 37.4897 90.8694 37.8896 91.6594 38.0496C92.0594 38.1296 92.4194 38.2596 92.5294 38.6896C92.6794 39.2796 92.2294 39.7397 91.5194 39.7397H91.5094Z" fill="white"/>
<path d="M37.32 41.3995C41.52 41.3995 44.93 38.0695 44.93 33.9595C44.93 29.8495 41.52 26.5195 37.32 26.5195C33.12 26.5195 29.71 29.8495 29.71 33.9595C29.71 38.0695 33.12 41.3995 37.32 41.3995Z" fill="white"/>
<path d="M49.6001 9.53C49.6001 14.79 45.2401 19.06 39.8601 19.06C34.4801 19.06 30.1201 14.79 30.1201 9.53C30.1201 4.27 34.4801 0 39.8601 0C45.2401 0 49.6001 4.27 49.6001 9.53Z" fill="white"/>
<path d="M27.15 19.9597C27.15 27.2997 21.07 33.2397 13.57 33.2397C6.07001 33.2397 0 27.2997 0 19.9597C0 12.6197 6.08 6.67969 13.58 6.67969C21.08 6.67969 27.16 12.6297 27.16 19.9597H27.15Z" fill="white"/>
</g>
<defs>
<clipPath id="clip0_48_340">
<rect width="182.15" height="43" fill="white"/>
</clipPath>
</defs>
</svg>
