<svg width="853" height="716" viewBox="0 0 853 716" fill="none" xmlns="http://www.w3.org/2000/svg">
<path d="M642.036 715.876C714.207 715.876 772.712 658.313 772.712 587.305C772.712 516.296 714.207 458.733 642.036 458.733C569.866 458.733 511.361 516.296 511.361 587.305C511.361 658.313 569.866 715.876 642.036 715.876Z" fill="#6D92E2"/>
<path d="M467.213 345.59C467.213 472.3 362.813 575.019 234.029 575.019C105.246 575.019 0.845703 472.3 0.845703 345.59C0.845703 218.88 105.246 116.161 234.029 116.161C362.813 116.161 467.213 218.88 467.213 345.59Z" fill="#6D92E2"/>
<path d="M852.846 165.448C852.846 256.339 777.959 330.02 685.581 330.02C593.203 330.02 518.316 256.339 518.316 165.448C518.316 74.5578 593.203 0.876465 685.581 0.876465C777.959 0.876465 852.846 74.5578 852.846 165.448Z" fill="#6D92E2"/>
<path fill-rule="evenodd" clip-rule="evenodd" d="M743.15 320.013C714.167 222.459 625.393 150.655 519.339 147.14C518.663 153.151 518.316 159.26 518.316 165.448C518.316 256.339 593.203 330.02 685.581 330.02C705.81 330.02 725.201 326.487 743.15 320.013ZM519.135 631.093C612.478 628.077 692.462 572.161 730.12 492.331C706.889 471.461 675.973 458.733 642.036 458.733C569.866 458.733 511.361 516.296 511.361 587.305C511.361 602.681 514.104 617.426 519.135 631.093Z" fill="#86B7EC"/>
<path fill-rule="evenodd" clip-rule="evenodd" d="M685.581 330.02C705.81 330.02 725.201 326.487 743.15 320.013C714.167 222.459 625.393 150.655 519.339 147.14C518.663 153.151 518.316 159.26 518.316 165.448C518.316 256.339 593.203 330.02 685.581 330.02Z" fill="#86B7EC"/>
<path fill-rule="evenodd" clip-rule="evenodd" d="M333.304 553.248C412.441 516.559 467.213 437.368 467.213 345.59C467.213 279.344 438.677 219.655 393.039 177.775C319.15 219.217 269.213 298.33 269.213 389.113C269.213 452.448 293.518 510.102 333.304 553.248Z" fill="#86B7EC"/>
<path fill-rule="evenodd" clip-rule="evenodd" d="M519.135 631.093C612.478 628.077 692.462 572.161 730.12 492.331C706.889 471.461 675.973 458.733 642.036 458.733C569.866 458.733 511.361 516.296 511.361 587.305C511.361 602.681 514.104 617.426 519.135 631.093Z" fill="#86B7EC"/>
</svg>
