<svg width="173" height="37" viewBox="0 0 173 37" fill="none" xmlns="http://www.w3.org/2000/svg">
<path d="M139.263 20.1011C138.339 19.8977 137.506 20.3616 137.173 21.2733C137.065 21.5663 136.998 21.8674 136.898 22.1605C135.949 24.9035 132.143 26.5559 129.695 24.8628C132.335 22.2256 134.991 19.5721 137.656 16.9267C139.097 15.4941 139.022 14.558 137.331 13.4104C132.751 10.301 126.297 11.9941 123.857 16.9511C123.15 18.5709 122.983 20.2477 123.283 21.9733C124.59 27.5896 130.977 30.3734 136.207 27.5896C138.447 26.3931 140.046 24.6675 140.521 22.1361C140.679 21.1837 140.104 20.2884 139.263 20.1011ZM126.814 21.6395C125.848 18.2697 128.446 15.022 132.085 15.0139C132.959 15.0139 134.175 15.0139 134.175 15.5755C134.175 16.0964 133.451 16.5197 133.001 16.9674C131.31 18.6441 129.595 20.2884 127.896 21.9407C127.172 22.6407 127.097 22.6163 126.814 21.6395Z" fill="white"/>
<path d="M169.142 28.5586C165.761 28.5342 163.204 25.9702 163.038 22.3236C162.955 20.4352 162.954 18.5468 163.013 16.6584C163.038 15.763 162.871 15.2991 161.847 15.4782C161.572 15.527 161.272 15.5026 160.998 15.4537C160.14 15.3154 159.64 14.8107 159.557 13.9723C159.474 13.1502 159.915 12.613 160.673 12.3281C161.214 12.1246 161.789 12.1083 162.363 12.149C162.863 12.1816 163.021 11.9781 163.013 11.4979C162.988 10.7572 162.996 10.0083 163.046 9.26761C163.113 8.15248 163.846 7.46875 164.928 7.46875C165.952 7.46875 166.752 8.20946 166.827 9.29203C166.877 10.0002 166.885 10.7165 166.843 11.4246C166.81 12.0107 167.043 12.1735 167.61 12.149C168.459 12.1083 169.317 12.1165 170.174 12.149C171.39 12.1979 172.156 12.8735 172.156 13.8502C172.156 14.8188 171.374 15.4375 170.141 15.4537C169.258 15.4619 168.367 15.4863 167.485 15.4782C167.043 15.47 166.868 15.641 166.868 16.0805C166.902 18.1887 166.86 20.2887 166.943 22.3969C167.01 23.9678 167.826 24.7899 169.425 25.1074C170.241 25.2702 170.966 25.5388 171.199 26.4178C171.498 27.6225 170.591 28.5667 169.142 28.5586Z" fill="white"/>
<path d="M143.424 20.231C143.424 18.1554 143.416 16.0798 143.432 14.0123C143.441 12.9216 143.965 12.246 144.923 12.0344C145.881 11.8228 146.597 12.1891 147.046 13.2798C147.28 13.8495 147.521 13.6054 147.813 13.4263C149.112 12.6367 150.461 11.9774 152.026 11.8716C155.415 11.6437 157.897 13.8495 157.93 17.1705C157.964 20.231 157.972 23.2997 157.964 26.3602C157.964 27.5811 157.381 28.3218 156.415 28.4846C155.116 28.7044 154.158 27.866 154.125 26.4172C154.091 24.7485 154.116 23.0718 154.108 21.4031C154.108 20.1985 154.116 18.9857 154.091 17.781C154.058 15.7217 152.126 14.631 150.302 15.6647C149.403 16.1775 148.57 16.8042 147.696 17.3659C147.246 17.6508 147.271 18.0822 147.271 18.5136C147.271 21.1752 147.28 23.8369 147.246 26.4986C147.23 27.9067 146.197 28.7288 144.89 28.4521C143.965 28.2567 143.441 27.573 143.432 26.4497C143.416 24.3741 143.432 22.2985 143.424 20.231Z" fill="white"/>
<path d="M68.9141 16.7559C68.9141 13.5407 68.9224 10.3174 68.9141 7.10226C68.9141 6.39411 69.0473 5.7348 69.6552 5.27898C70.8377 4.39989 72.4699 5.04293 72.7197 6.49178C72.7613 6.73597 72.753 6.9883 72.753 7.23249C72.753 13.5489 72.753 19.8571 72.753 26.1734C72.753 27.5816 72.1701 28.3549 71.0792 28.4851C69.7884 28.6316 68.939 27.8909 68.9307 26.5072C68.9057 23.5688 68.9224 20.6303 68.9224 17.6838C68.9141 17.3745 68.9141 17.0652 68.9141 16.7559Z" fill="white"/>
<path d="M96.1335 20.2158C96.1335 18.1402 96.1001 16.0646 96.1418 13.9971C96.1751 12.4587 97.4575 11.5959 98.7733 12.1575C99.173 12.3285 99.5061 12.5971 99.631 12.9796C99.8725 13.6959 100.222 13.6064 100.739 13.2645C102.521 12.0924 104.428 11.5145 106.576 12.1901C107.409 12.4506 108.183 12.8331 108.691 13.5331C109.158 14.168 109.557 14.1192 110.157 13.7041C110.798 13.2564 111.514 12.9064 112.205 12.532C115.328 10.8389 120.158 12.4261 120.191 17.0902C120.216 20.2158 120.225 23.3414 120.191 26.467C120.183 27.6961 119.367 28.5101 118.318 28.5182C117.144 28.5264 116.311 27.7124 116.294 26.4019C116.261 23.4635 116.269 20.517 116.278 17.5785C116.278 16.5774 115.903 15.8448 114.928 15.4541C114.404 15.2425 113.863 15.2018 113.355 15.4215C112.247 15.9099 111.306 16.6425 110.382 17.3913C110.049 17.6681 110.124 18.0669 110.124 18.4332C110.09 21.1274 110.074 23.8135 110.032 26.5077C110.015 27.7124 109.324 28.4531 108.242 28.5019C107.109 28.5508 106.31 27.8426 106.235 26.6135C106.176 25.6856 106.21 24.7577 106.21 23.8298C106.21 21.7867 106.226 19.7437 106.201 17.7006C106.176 15.568 104.486 14.6564 102.629 15.7634C101.904 16.1948 101.238 16.732 100.53 17.2041C100.147 17.4646 100.031 17.8064 100.047 18.2379C100.072 20.8751 100.031 25.1972 100.031 25.1972C100.031 25.1972 100.014 26.1903 99.9558 26.6787C99.8308 27.8508 99.0814 28.5264 97.9821 28.5101C96.9329 28.4857 96.1668 27.7124 96.1335 26.5403C96.0918 25.3356 96.1168 24.1228 96.1168 22.9181C96.1251 22.0146 96.1251 21.1193 96.1335 20.2158Z" fill="white"/>
<path d="M64.7163 20.1014C63.7919 19.8979 62.9592 20.3619 62.6261 21.2735C62.5178 21.5665 62.4512 21.8677 62.3513 22.1607C61.4019 24.9038 57.5963 26.5561 55.148 24.8631C57.7878 22.2258 60.4443 19.5723 63.1091 16.9269C64.5497 15.4944 64.4748 14.5583 62.7843 13.4106C58.2042 10.3013 51.7504 11.9943 49.3105 16.9513C48.6027 18.5711 48.4361 20.2479 48.7359 21.9735C50.0433 27.5899 56.4305 30.3736 61.6601 27.5899C63.9002 26.3933 65.499 24.6677 65.9737 22.1363C66.1403 21.184 65.5573 20.2886 64.7163 20.1014ZM52.2667 21.6398C51.3007 18.27 53.8989 15.0223 57.538 15.0141C58.4124 15.0141 59.6282 15.0141 59.6282 15.5757C59.6282 16.0967 58.9037 16.5199 58.454 16.9676C56.7636 18.6444 55.0481 20.2886 53.3493 21.941C52.6248 22.641 52.5499 22.6165 52.2667 21.6398Z" fill="white"/>
<path d="M91.9506 20.1013C91.0263 19.8978 90.1935 20.3617 89.8605 21.2734C89.7522 21.5664 89.6856 21.8676 89.5856 22.1606C88.6363 24.9037 84.8307 26.556 82.3824 24.863C85.0222 22.2257 87.6787 19.5722 90.3434 16.9268C91.7841 15.4942 91.7091 14.5582 90.0187 13.4105C85.4386 10.3011 78.9848 11.9942 76.5449 16.9512C75.837 18.571 75.6705 20.2478 75.9703 21.9734C77.2777 27.5897 83.6648 30.3735 88.8945 27.5897C91.1345 26.3932 92.7334 24.6676 93.2081 22.1362C93.3746 21.1838 92.7917 20.2885 91.9506 20.1013ZM79.5011 21.6397C78.5351 18.2698 81.1333 15.0221 84.7724 15.014C85.6468 15.014 86.8626 15.014 86.8626 15.5756C86.8626 16.0966 86.1381 16.5198 85.6884 16.9675C83.9979 18.6443 82.2825 20.2885 80.5837 21.9408C79.8592 22.6408 79.7842 22.6164 79.5011 21.6397Z" fill="white"/>
<path d="M32.8137 36.3995C36.5078 36.3995 39.5024 33.469 39.5024 29.854C39.5024 26.2391 36.5078 23.3086 32.8137 23.3086C29.1196 23.3086 26.125 26.2391 26.125 29.854C26.125 33.469 29.1196 36.3995 32.8137 36.3995Z" fill="white"/>
<path d="M43.6075 8.37818C43.6075 13.0053 39.7743 16.7564 35.0459 16.7564C30.3175 16.7564 26.4844 13.0053 26.4844 8.37818C26.4844 3.75104 30.3175 0 35.0459 0C39.7743 0 43.6075 3.75104 43.6075 8.37818Z" fill="white"/>
<path d="M23.8712 17.5491C23.8712 23.9998 18.5275 29.2291 11.9356 29.2291C5.34376 29.2291 0 23.9998 0 17.5491C0 11.0984 5.34376 5.86909 11.9356 5.86909C18.5275 5.86909 23.8712 11.0984 23.8712 17.5491Z" fill="white"/>
</svg>
