<svg width="212" height="206" viewBox="0 0 212 206" fill="none" xmlns="http://www.w3.org/2000/svg">
<g clip-path="url(#clip0_8_410)">
<path d="M267.344 110.158C269.282 108.205 273.058 108.057 274.928 109.863C276.758 111.645 276.697 115.524 274.815 117.453C272.628 119.688 269.721 119.708 267.473 117.491C265.106 115.157 265.068 112.466 267.352 110.166L267.344 110.158Z" fill="white"/>
<path d="M143.813 111.319C141.979 113.231 138.45 113.321 136.588 111.507C134.711 109.678 134.784 106.197 136.737 104.275C138.642 102.401 141.805 102.331 143.715 104.113C145.672 105.941 145.719 109.349 143.813 111.319Z" fill="white"/>
<path d="M213.054 90.6031C215.169 88.4248 218.117 88.3169 220.16 90.3439C222.022 92.1735 221.98 95.6858 220.083 97.5355C218.17 99.3855 214.594 99.364 212.829 97.4856C210.976 95.5205 211.067 92.6528 213.046 90.6111L213.054 90.6031Z" fill="white"/>
<path d="M100.557 132.82C102.349 131.139 106.321 131.252 107.873 133.029C109.354 134.735 109.166 138.535 107.535 140.088C105.783 141.745 101.707 141.64 100.226 139.903C98.7535 138.173 98.9415 134.341 100.557 132.82Z" fill="white"/>
<path d="M45.6251 192.674C47.5472 190.704 50.5593 190.5 52.4462 192.21C54.5858 194.141 54.7638 197.165 52.8556 199.341C51.1568 201.277 47.4434 201.536 45.5963 199.833C43.749 198.147 43.7592 194.587 45.6251 192.674Z" fill="white"/>
<path d="M284.783 97.7994C286.882 99.786 286.952 102.461 284.964 104.606C282.824 106.92 279.923 107.123 277.848 105.128C275.954 103.299 275.964 99.7872 277.87 97.8975C279.791 96.0077 282.833 95.9626 284.775 97.8074L284.783 97.7994Z" fill="white"/>
<path d="M62.17 148.948C60.3696 150.685 56.7529 150.815 55.0962 149.191C53.329 147.456 53.506 143.95 55.4835 142.02C57.5655 139.985 60.3778 139.855 62.3109 141.723C64.2283 143.576 64.1633 147.033 62.1779 148.955L62.17 148.948Z" fill="white"/>
<path d="M53.2045 169.587C55.3102 167.576 58.3035 167.675 60.3135 169.829C62.1263 171.787 61.9714 174.655 59.9537 176.626C58.0566 178.475 54.9104 178.545 53.0958 176.779C51.2101 174.942 51.2677 171.429 53.2126 169.579L53.2045 169.587Z" fill="white"/>
<path d="M37.076 272.071C36.2704 269.706 35.9411 266.675 36.7595 264.373C37.4552 262.416 41.6557 262.853 43.4544 264.62C45.3872 266.52 45.4818 269.944 43.6643 271.793C42.0239 273.449 37.6957 273.881 37.076 272.071Z" fill="white"/>
<path d="M87.6214 312.582C85.6653 310.626 85.6686 307.783 87.6152 305.757C89.5939 303.7 92.8598 303.605 94.7683 305.545C96.6769 307.486 96.6335 310.353 94.6708 312.395C92.5876 314.557 89.6723 314.633 87.6295 312.574L87.6214 312.582Z" fill="white"/>
<path d="M149.264 64.362C150.913 65.9787 151.021 69.6408 149.475 71.3757C147.865 73.1749 144.051 73.2035 142.276 71.4447C140.509 69.6778 140.398 66.3343 142.055 64.5346C143.826 62.6064 147.394 62.5244 149.272 64.3699L149.264 64.362Z" fill="white"/>
<path d="M245.378 74.6851C243.624 76.5653 240.27 76.7169 238.447 74.9904C236.451 73.1063 236.446 70.2395 238.425 68.1819C240.524 66.0037 243.138 65.8513 245.174 67.7908C247.17 69.7067 247.261 72.6603 245.386 74.693L245.378 74.6851Z" fill="white"/>
<path d="M252.819 56.1547C254.727 58.0954 254.643 61.0347 252.625 63.0369C250.631 65.015 247.717 65.027 245.785 63.0626C243.884 61.1298 243.945 58.1191 245.922 56.1889C247.795 54.3633 251.044 54.3481 252.827 56.1466L252.819 56.1547Z" fill="white"/>
<path d="M259.695 82.3759C261.462 84.079 261.415 87.3604 259.589 89.2493C257.763 91.1541 254.577 91.2643 252.754 89.5059C250.963 87.7791 250.994 84.5138 252.819 82.6886C254.677 80.8313 257.935 80.6806 259.687 82.3839L259.695 82.3759Z" fill="white"/>
<path d="M166.013 84.1179C168.144 86.0724 168.076 89.0593 165.857 91.2147C163.735 93.2737 161.019 93.3077 159.024 91.2961C157.233 89.5056 157.257 86.2006 159.074 84.3675C160.835 82.5748 164.197 82.463 166.012 84.1338L166.013 84.1179Z" fill="white"/>
<path d="M77.0869 192.826C78.84 194.37 78.9642 198.032 77.3222 199.848C75.64 201.719 72.2304 201.847 70.3596 200.121C68.5521 198.442 68.4537 195.417 70.1605 193.474C71.9078 191.474 75.1996 191.164 77.079 192.818L77.0869 192.826Z" fill="white"/>
<path d="M87.2019 45.6058C89.084 43.6606 92.2545 43.5506 94.1324 45.3642C95.9233 47.1069 95.899 50.4757 94.0901 52.2688C92.2329 54.1102 89.4215 54.1452 87.5354 52.3556C85.3652 50.2979 85.2312 47.6553 87.2098 45.6137L87.2019 45.6058Z" fill="white"/>
<path d="M88.3568 100.423C86.534 98.6801 86.4791 95.2644 88.4464 93.5653C90.5261 91.7695 92.9102 91.452 95.1237 93.1509C97.0605 94.6374 96.9882 98.0225 95.1539 99.9672C93.2632 101.984 90.2192 102.189 88.3648 100.415L88.3568 100.423Z" fill="white"/>
<path d="M216.162 86.1696C214.431 88.2168 211.261 88.2472 209.367 86.386C207.411 84.4776 207.43 81.6186 209.416 79.6485C211.354 77.7108 214.492 77.617 216.209 79.6073C218.013 81.7003 217.983 84.0179 216.162 86.1696Z" fill="white"/>
<path d="M97.5973 290.38C99.2143 291.997 99.3403 295.468 97.8272 297.139C96.2576 298.882 92.6736 298.932 90.9301 297.221C89.0524 295.391 89.0433 292.182 90.9079 290.396C92.6359 288.747 95.9408 288.739 97.5973 290.38Z" fill="white"/>
<path d="M112.094 99.7651C110.35 98.1015 110.309 94.9086 111.998 93.1086C113.607 91.4049 117.082 91.1646 118.748 92.6378C120.469 94.1662 120.458 97.8374 118.721 99.59C116.896 101.415 113.917 101.492 112.102 99.757L112.094 99.7651Z" fill="white"/>
<path d="M160.577 77.1065C158.668 75.1976 158.698 72.1075 160.634 70.345C162.425 68.7113 165.594 68.7765 167.25 70.4807C168.843 72.1218 168.921 75.5931 167.409 77.2002C165.768 78.9361 162.368 78.897 160.577 77.1065Z" fill="white"/>
<path d="M248.75 78.5548C250.506 80.6324 250.803 82.8752 248.537 84.9992C246.615 86.9368 243.436 87.1027 241.741 85.3431C240.195 83.7493 240.315 80.3956 241.964 78.6517C243.774 76.7471 247.096 76.5958 248.742 78.5469L248.75 78.5548Z" fill="white"/>
<path d="M78.2312 321.041C79.7044 322.708 79.4645 326.134 77.7528 327.751C75.9528 329.441 72.7997 329.391 71.1521 327.647C69.4808 325.879 69.5347 322.749 71.2792 321.036C72.9835 319.364 76.7501 319.367 78.2391 321.049L78.2312 321.041Z" fill="white"/>
<path d="M193.32 34.1408C195.08 35.8042 194.967 39.3092 193.103 41.0471C191.319 42.7047 188.158 42.6792 186.55 40.9745C184.815 39.1437 184.906 36.3078 186.78 34.4344C188.605 32.6092 191.568 32.4693 193.328 34.1327L193.32 34.1408Z" fill="white"/>
<path d="M80.6746 259.692C82.4968 261.498 82.5246 264.421 80.7232 266.253C79.0101 268.014 75.8004 268.068 74.1045 266.373C72.5427 264.811 72.4824 261.132 74.0021 259.613C75.5539 258.061 79.0654 258.099 80.6746 259.692Z" fill="white"/>
<path d="M206.353 47.7368C204.445 45.7961 204.494 43.2075 206.479 41.2374C208.433 39.2836 211.029 39.2747 212.954 41.1993C214.863 43.1081 214.853 45.8476 212.931 47.7374C211.074 49.5629 208.16 49.559 206.346 47.7289L206.353 47.7368Z" fill="white"/>
<path d="M73.1204 188.747C71.3058 186.981 71.2948 183.979 73.0882 182.138C74.7289 180.45 78.0344 180.378 79.6913 181.987C81.3955 183.643 81.4196 186.947 79.7388 188.66C78.0179 190.412 74.864 190.458 73.1124 188.755L73.1204 188.747Z" fill="white"/>
<path d="M102.121 76.8306C100.457 75.0547 100.591 71.9557 102.399 70.2581C104.327 68.4558 107.105 68.5487 108.95 70.474C110.661 72.2653 110.576 75.348 108.784 77.0454C107.056 78.6785 103.76 78.5668 102.129 76.8225L102.121 76.8306Z" fill="white"/>
<path d="M29.7881 280.526C31.9326 278.618 35.0868 278.54 37.026 280.608C38.3458 282.491 38.5236 284.711 36.5537 286.681C34.5516 288.683 32.2521 288.49 30.2537 286.781C28.4844 285.269 28.3503 281.806 29.7881 280.526Z" fill="white"/>
<path d="M75.7165 290.112C77.3181 288.353 80.6239 288.249 82.3759 289.905C84.1358 291.568 84.208 294.84 82.3527 296.475C80.3288 298.262 78.0188 298.332 75.9229 296.831C74.2303 295.621 74.2356 291.751 75.7165 290.112Z" fill="white"/>
<path d="M178.467 91.5876C180.466 89.9359 182.621 89.4853 184.679 91.5599C186.58 93.4609 186.752 96.2544 185.007 98.0788C183.277 99.8871 180.355 99.8753 178.493 98.0297C176.592 96.1606 176.485 93.2232 178.475 91.5796L178.467 91.5876Z" fill="white"/>
<path d="M71.532 307.958C73.4917 306.219 75.6226 305.729 77.7212 307.779C79.7252 309.735 79.9001 312.258 78.0577 314.211C76.1913 316.187 73.5786 316.26 71.6296 314.392C69.5859 312.428 69.4518 309.802 71.532 307.958Z" fill="white"/>
<path d="M65.5219 291.93C63.5687 293.82 61.2896 293.985 59.187 292.349C57.4323 290.98 57.5693 287.483 59.258 285.778C61.1716 283.865 64.1271 283.749 65.7649 285.692C67.4735 287.722 67.5316 289.967 65.514 291.922L65.5219 291.93Z" fill="white"/>
<path d="M56.3428 235.151C54.7643 233.669 54.8631 230.005 56.6534 228.499C58.7087 226.759 60.8587 226.77 62.8343 228.36C64.5067 230.016 64.5802 233.145 63.0512 234.816C61.5704 236.439 57.9053 236.633 56.3507 235.159L56.3428 235.151Z" fill="white"/>
<path d="M106.808 120.337C105.063 122.098 101.774 122.138 100.199 120.273C98.4748 118.227 98.4418 115.862 100.418 114.012C102.283 112.258 104.643 111.901 106.752 113.72C108.585 115.295 108.561 118.569 106.808 120.337Z" fill="white"/>
<path d="M22.67 285.388C24.4743 287.402 24.2886 289.323 21.9426 291.479C20.3376 292.769 18.2956 293.959 16.0612 291.95C14.2373 290.319 14.3958 287.068 16.2281 285.331C18.2935 283.376 20.8813 283.407 22.6779 285.396L22.67 285.388Z" fill="white"/>
<path d="M62.8661 320.599C64.5113 322.598 64.5862 324.748 62.6312 326.829C60.5716 329.015 58.3276 328.845 56.4653 327.063C54.6267 325.305 54.2023 323.048 56.4285 320.932C58.3187 318.963 61.3154 318.711 62.882 320.599L62.8661 320.599Z" fill="white"/>
<path d="M296.618 103.396C298.387 104.987 298.417 108.459 296.77 110.012C295.123 111.565 291.7 111.438 290.154 109.796C288.184 107.681 288.881 105.596 290.254 103.56C292.46 101.891 294.581 101.568 296.618 103.412L296.618 103.396Z" fill="white"/>
<path d="M26.7568 144.796C28.5336 143.871 30.873 144.055 32.2446 143.867C34.8915 146.868 34.8853 149.177 33.012 151.035C31.1949 152.852 28.8269 153.153 26.7181 151.334C25.0437 149.885 24.8521 145.785 26.7568 144.796Z" fill="white"/>
<path d="M274.668 61.4081C272.624 59.4289 272.615 57.0241 274.633 55.0059C276.627 53.0119 279.08 53.0202 281.019 55.0881C282.872 57.0532 283.003 59.1144 281.032 61.1958C279.029 63.3094 276.703 63.3795 274.668 61.4081Z" fill="white"/>
<path d="M163.659 96.1731C165.581 98.4003 165.56 100.646 163.638 102.552C161.724 104.466 159.334 104.616 157.45 102.635C155.644 100.733 155.564 98.3052 157.478 96.3597C159.44 94.3501 161.705 94.8301 163.659 96.1731Z" fill="white"/>
<path d="M13.2221 193.51C15.1083 195.284 15.1198 198.238 13.2884 199.88C11.2642 201.699 9.01668 201.896 7.11633 199.931C5.25543 198.006 5.27862 195.585 7.10472 193.664C9.05142 191.623 11.339 192.238 13.214 193.518L13.2221 193.51Z" fill="white"/>
<path d="M82.2368 162.341C83.9005 160.74 87.0075 160.615 88.4825 162.09C90.0364 163.644 89.83 166.895 88.1414 168.599C86.0505 170.721 83.9041 170.344 81.9685 168.73C79.9619 167.045 80.1792 164.319 82.2368 162.341Z" fill="white"/>
<path d="M65.5366 239.714C67.3414 241.679 67.4866 243.979 65.5722 245.973C63.6578 247.966 61.4134 247.828 59.571 246.468C57.606 244.6 57.5786 241.645 59.2438 239.901C60.8848 238.182 63.9762 238.009 65.5525 239.714L65.5366 239.714Z" fill="white"/>
<path d="M26.8364 305.169C24.9651 306.82 22.7207 307.518 20.9637 305.552C18.9862 303.333 20.3698 301.05 22.6283 298.051C23.9089 298.205 26.038 297.906 27.4472 298.769C29.4342 300 28.9405 303.318 26.8364 305.169Z" fill="white"/>
<path d="M79.8331 138.115C81.7821 139.984 81.7765 142.23 79.9014 144.278C77.9458 146.423 75.7249 146.325 73.7357 144.497C71.7228 142.645 71.4723 140.529 73.6666 138.413C75.668 136.475 77.8288 136.191 79.8331 138.115Z" fill="white"/>
<path d="M133.281 110.113C134.828 111.58 134.757 114.806 133.133 116.43C131.452 118.11 128.577 118.114 126.97 116.362C125.228 114.459 125.319 112.412 126.978 110.469C128.493 108.686 131.663 108.576 133.281 110.113Z" fill="white"/>
<path d="M60.216 281.365C58.1324 282.739 55.7313 283.168 53.8874 281.131C52.0435 279.095 52.6539 276.891 54.1538 274.933C56.4556 273.231 58.5745 273.163 60.4749 275.128C62.0124 276.729 61.963 280.218 60.2239 281.373L60.216 281.365Z" fill="white"/>
<path d="M68.2295 225.457C70.3564 223.725 72.4986 223.712 74.3741 225.781C76.147 227.747 75.8483 229.828 74.1899 231.707C72.6523 233.434 69.396 233.362 67.8665 231.752C66.3134 230.118 66.4236 226.932 68.2295 225.457Z" fill="white"/>
<path d="M28.1971 259.574C26.7092 257.78 24.5531 255.914 27.0475 253.23C28.6889 251.462 31.7085 251.314 33.3323 253.05C35.1689 255.016 35.2043 257.142 33.24 259.358C31.6742 260.703 29.8582 261.573 28.1971 259.574Z" fill="white"/>
<path d="M230.397 92.3481C232.186 94.3457 231.87 96.5864 230.125 98.2994C228.389 100.004 226.195 100.447 224.28 98.3554C222.147 96.4965 222.677 94.405 224.168 92.5034C225.628 90.6498 228.877 90.6505 230.397 92.3481Z" fill="white"/>
<path d="M146.296 45.8756C144.43 44.4282 144.507 41.3536 146.212 39.665C147.932 37.9443 150.975 37.8992 152.422 39.7647C153.893 41.6538 154.193 43.6259 152.183 45.6519C150.148 47.6862 148.169 47.3309 146.287 45.8836L146.296 45.8756Z" fill="white"/>
<path d="M275.082 90.4625C273.252 88.6485 272.987 86.4213 275.243 84.4168C277.012 82.6957 279.457 82.6324 281.122 84.2649C282.81 85.921 282.829 88.9788 281.046 90.5248C279.054 92.2481 276.81 92.174 275.09 90.4704L275.082 90.4625Z" fill="white"/>
<path d="M69.1677 243.055C67.5769 241.207 67.1665 239.157 68.9501 237.515C70.9607 235.457 74.5878 235.064 75.3504 236.92C76.0663 238.665 76.0499 241.206 75.3004 242.965C74.4857 244.884 70.6562 244.785 69.1677 243.055Z" fill="white"/>
<path d="M77.4415 91.0189C79.169 90.2538 81.7093 90.2533 83.4545 90.9533C85.2949 91.7002 84.87 95.3117 83.2054 97.0079C81.2109 99.0497 79.2953 98.6779 77.3432 97.1278C75.6867 95.4713 75.4743 91.8819 77.4336 91.011L77.4415 91.0189Z" fill="white"/>
<path d="M307.824 94.9506C305.92 96.681 303.898 96.6845 301.819 95.0082C300.272 93.5737 300.138 90.963 301.628 89.2206C303.102 87.4944 306.338 87.2086 307.948 88.6584C309.527 90.0926 309.535 93.3973 307.824 94.9506Z" fill="white"/>
<path d="M256.988 76.4372C255.074 78.3987 253.094 78.1071 250.158 76.2001C250.38 74.6371 250.186 72.4172 251.054 70.7286C252.085 68.7199 255.42 68.8871 257.108 70.6228C258.961 72.5402 258.87 74.4921 256.98 76.4294L256.988 76.4372Z" fill="white"/>
<path d="M241.014 101.325C239.171 103.389 237.113 102.875 235.272 101.388C233.541 99.9947 233.598 96.5778 235.308 95.1679C237.274 93.5324 239.544 93.5186 241.256 95.2303C243.054 97.0287 243.351 99.2397 241.014 101.325Z" fill="white"/>
<path d="M145.99 92.735C147.417 94.1627 147.311 97.7552 145.698 99.0846C143.635 100.801 141.535 100.582 139.792 98.759C138.002 96.8888 137.934 94.8588 140.015 92.9516C141.551 91.4477 144.61 91.3387 145.99 92.7191L145.99 92.735Z" fill="white"/>
<path d="M329.081 82.2126C330.698 83.8455 330.832 85.6041 329.989 87.173L327.754 89.4082C326.409 90.09 324.882 89.9613 323.421 88.7092C321.501 87.0473 321.345 84.2537 323.24 82.595C325.087 80.9687 327.162 80.5825 329.081 82.2285L329.081 82.2126Z" fill="white"/>
<path d="M306.913 82.7993C305.023 81.4079 305.045 78.3099 306.797 76.6527C308.774 74.7862 310.994 74.98 312.69 76.6599C314.354 78.3083 314.7 80.471 312.101 83.2274C310.878 84.6247 308.787 84.1749 306.913 82.7993Z" fill="white"/>
<path d="M7.52714 280.039C9.25518 281.702 9.35849 284.218 7.7651 285.953C6.13152 287.729 3.00821 287.902 1.48786 286.173C-0.229389 284.214 -0.111993 281.936 1.67268 280.182C3.37695 278.51 5.57219 277.955 7.51121 280.039L7.52714 280.039Z" fill="white"/>
<path d="M92.8921 158.153C91.0012 160.186 89.0028 160.15 87.0262 158.656C85.2237 157.287 84.9246 153.595 86.8065 152.502C88.4481 151.555 90.6766 151.677 92.2003 151.399C94.228 154.199 94.8312 156.072 92.884 158.161L92.8921 158.153Z" fill="white"/>
<path d="M90.0912 317.448C91.7847 319.399 91.6703 321.359 89.7491 323.232C87.7718 325.147 85.8252 324.68 82.9681 322.836C83.2545 321.208 83.1483 318.996 84.064 317.338C85.1256 315.425 88.5474 315.679 90.0832 317.456L90.0912 317.448Z" fill="white"/>
<path d="M60.5648 257.432C59.0301 255.544 58.9627 253.434 60.8207 251.513C62.6947 249.576 64.6237 249.382 66.351 251.125C68.4739 253.136 68.3263 255.239 66.8978 257.22C65.7355 258.84 61.8163 258.973 60.5648 257.432Z" fill="white"/>
<path d="M193.495 74.0834C194.421 75.4761 194.344 78.5348 193.375 79.9775C192.106 81.861 189.645 81.9563 187.656 80.0323C185.629 78.0688 185.949 76.2023 187.689 74.1789C189.615 72.5996 192.176 72.1052 193.495 74.0834Z" fill="white"/>
<path d="M199.732 68.0511C198.497 69.8388 195.89 70.1106 193.99 68.0982C192.033 66.2057 192.116 64.2778 194.045 62.3481C195.943 60.4505 198.502 60.1951 199.789 62.1417C200.723 63.5582 200.709 66.6481 199.74 68.043L199.732 68.0511Z" fill="white"/>
<path d="M22.5257 268.038C24.3742 266.268 26.3898 266.177 28.0772 267.929C29.7488 269.665 30.2203 271.985 28.2434 273.852C26.5076 275.493 24.2727 276.024 22.2433 274.236C20.3718 272.589 20.54 269.992 22.5255 268.054L22.5257 268.038Z" fill="white"/>
<path d="M79.7182 111.049C81.4082 109.201 83.5924 108.973 85.6946 110.641C87.4196 112.623 87.2871 114.823 85.5421 116.583C83.7974 118.328 81.5648 118.62 79.6479 116.719C77.8337 114.905 78.1729 112.752 79.7181 111.065L79.7182 111.049Z" fill="white"/>
<path d="M54.9981 112.894C52.8518 111.665 53.2578 109.192 54.6279 107.491C56.8149 105.304 58.7753 105.158 60.7416 106.883C62.8184 108.718 62.4983 111.373 60.8295 112.663C59.5138 113.679 56.4791 113.748 54.9981 112.894Z" fill="white"/>
<path d="M47.0305 228.83C45.3823 227.15 45.5635 224.854 47.1803 223.174C48.8774 221.414 51.0079 220.972 53.4774 223.377C55.088 224.827 54.5255 227.014 52.9165 228.718C51.1868 230.558 48.7893 230.605 47.0305 228.83Z" fill="white"/>
<path d="M71.2879 247.845C73.1026 246.283 75.5402 246.196 77.2253 248.186C78.8473 250.114 78.6844 252.154 76.6439 254.005C74.6115 255.848 72.8487 255.324 71.1272 253.811C69.4903 251.772 69.3688 249.496 71.2879 247.845Z" fill="white"/>
<path d="M203.554 85.5896C201.719 87.6299 199.574 87.093 197.917 85.5003C196.133 83.7814 196.22 81.3597 198.029 79.6143C199.733 77.9894 202.065 78.0865 203.682 79.6876C205.362 81.3677 205.756 83.4981 203.554 85.5896Z" fill="white"/>
<path d="M153.799 100.56C154.5 102.162 154.281 104.194 154.471 106.04C151.532 107.733 149.109 107.899 147.964 106.111C147.093 104.757 147.309 102.143 148.002 100.456C148.679 98.8172 153.074 98.9025 153.799 100.56Z" fill="white"/>
<path d="M112.446 63.0027C110.711 61.2674 110.589 59.007 112.423 57.1419C114.248 55.2849 116.365 55.4079 118.358 56.9178C120.003 58.9327 120.03 61.0825 118.285 62.891C116.507 64.7317 114.205 64.7458 112.446 63.0027Z" fill="white"/>
<path d="M287.059 95.3965C285.523 93.6832 285.351 91.6462 287.35 90.0264C289.273 87.9295 291.292 88.2924 292.926 89.7978C294.813 91.5396 294.703 93.9058 292.91 95.651C291.069 97.4445 288.714 97.26 287.059 95.3965Z" fill="white"/>
<path d="M101.243 106.136C100.332 104.727 100.704 102.478 100.376 99.3199C103.517 99.8552 105.788 99.6184 107.148 100.625C109.165 102.126 108.878 104.654 107.013 106.407C105.149 108.161 102.608 108.257 101.258 106.136L101.243 106.136Z" fill="white"/>
<path d="M206.827 33.223C205.128 35.1425 202.946 35.1315 200.955 33.4942C199.334 31.5349 199.091 29.4428 201.036 27.6085C202.804 25.9352 204.955 25.8509 206.73 27.5301C208.537 29.2408 208.373 31.4721 206.835 33.2149L206.827 33.223Z" fill="white"/>
<path d="M63.3289 193.38C61.6695 192.862 61.7635 188.872 63.2575 187.536C65.0808 185.902 66.9998 185.923 68.0986 186.765C70.8465 189.207 70.5438 191.702 68.9711 192.944C67.7033 193.943 65.0518 193.913 63.3289 193.38Z" fill="white"/>
<path d="M52.6468 241.072C51.3539 243.027 48.9386 243.281 47.0072 241.237C45.2333 239.367 45.4816 237.557 47.3721 234.735C49.2014 234.973 51.8572 234.557 52.6435 235.601C53.5558 236.802 53.5436 239.733 52.6547 241.079L52.6468 241.072Z" fill="white"/>
<path d="M120.651 91.0507C119.708 89.7219 119.96 87.5296 119.674 85.7167C120.06 85.3307 120.43 84.929 120.809 84.5352C122.655 84.6927 124.728 84.4021 126.281 85.1517C128.065 86.0026 127.879 89.5958 126.186 90.9897C124.396 92.4642 122.049 93.0441 120.635 91.0509L120.651 91.0507Z" fill="white"/>
<path d="M71.8745 279.693C73.571 277.996 75.9352 278.093 77.5594 279.798C79.1204 281.439 79.4749 283.498 77.4744 285.341C75.5441 287.334 73.4935 286.924 71.8678 285.379C70.1317 283.723 70.2182 281.349 71.8745 279.693Z" fill="white"/>
<path d="M38.8948 127.168C40.8126 128.973 40.6521 130.758 38.9279 132.845C37.2652 134.335 35.263 134.696 33.4794 133.009C31.7274 131.354 31.661 129.148 33.3818 127.412C34.9899 125.804 36.9531 125.355 38.8948 127.168Z" fill="white"/>
<path d="M57.306 297.511C58.6822 299.322 58.9022 301.294 56.9816 303.105C55.1253 304.85 53.3162 305.003 51.3602 303.031C49.5121 301.424 49.9449 299.477 51.4037 297.655C52.7658 295.962 56.0555 295.875 57.306 297.511Z" fill="white"/>
<path d="M165.559 48.3667C167.541 50.0757 167.187 52.1496 165.61 53.837C163.977 55.5648 161.745 55.7614 159.961 54.1062C158.004 52.2933 158.337 49.8932 160.002 48.1651C161.635 46.4532 163.794 46.4246 165.559 48.3826L165.559 48.3667Z" fill="white"/>
<path d="M268.337 38.9962C267.471 37.8577 267.542 34.6478 268.466 33.8347C269.606 32.8363 272.562 32.6248 273.861 33.4246C275.745 34.6011 275.499 36.9924 274.347 38.3493C271.982 40.7928 269.555 40.6011 268.337 38.9962Z" fill="white"/>
<path d="M17.9508 210.283C17.0407 208.859 17.3567 206.634 17.1278 204.765C17.5057 204.387 17.8993 204.024 18.2851 203.654C20.1214 203.995 22.3689 203.799 23.6891 204.813C25.6891 206.347 25.3628 208.819 23.4511 210.541C21.6599 212.143 19.2297 212.286 17.9587 210.291L17.9508 210.283Z" fill="white"/>
<path d="M83.204 333.958C83.2997 333.105 83.7215 332.305 84.5393 331.724C84.9403 331.433 85.4435 331.277 85.9859 331.176L83.1959 333.966L83.204 333.958Z" fill="white"/>
<path d="M52.0936 124.302C53.9454 124.69 56.5115 124.491 57.4641 125.636C58.3222 126.671 58.1002 129.89 57.1117 130.832C56.1393 131.757 52.9303 131.732 51.9199 130.802C50.8385 129.801 51.1733 127.273 50.8885 125.412L52.0936 124.302Z" fill="white"/>
<path d="M209.132 69.4263C210.733 71.0593 210.642 73.059 209.033 74.7308C207.32 76.5072 205.382 76.8522 204.01 75.416C201.714 73.1526 201.733 71.1297 203.478 69.4327C205.214 67.7437 207.397 67.675 209.124 69.4343L209.132 69.4263Z" fill="white"/>
<path d="M123.92 117.123C125.681 118.755 125.636 120.945 123.836 122.651C122.277 124.131 120.394 124.499 118.65 122.756C116.923 121.029 116.59 119.264 118.6 117.254C120.259 115.295 122.287 115.602 123.92 117.123Z" fill="white"/>
<path d="M212.173 61.1789C210.97 62.0505 208.263 62.0605 206.988 61.2684C205.136 60.1076 205.07 57.8068 206.65 55.8168C208.561 54.2376 210.386 54.0688 212.217 55.7873C214.127 57.5846 213.937 59.9038 212.181 61.1868L212.173 61.1789Z" fill="white"/>
<path d="M57.5871 218.321C56.6303 219.277 53.5947 219.442 52.4399 218.625C50.7711 217.422 50.6667 215.018 53.1388 212.168C54.3949 212.395 56.8979 212.132 57.8509 213.23C58.7095 214.217 58.5359 217.372 57.5792 218.313L57.5871 218.321Z" fill="white"/>
<path d="M241.921 50.7246C243.613 51.9825 243.862 54.3213 241.806 56.1248C239.894 57.7995 238.048 57.6261 236.319 56.058C234.579 54.044 234.88 51.7556 236.754 50.5909C238.036 49.7982 240.743 49.8519 241.921 50.7246Z" fill="white"/>
<path d="M96.172 107.578C97.0865 108.541 97.1376 111.519 96.29 112.714C95.0148 114.478 92.6502 114.429 90.5567 112.673C89.3313 110.917 89.2504 108.553 91.0778 107.325C92.2881 106.509 95.2811 106.639 96.1879 107.578L96.172 107.578Z" fill="white"/>
<path d="M251.244 105.782C249.648 107.788 247.574 107.322 245.98 105.776C244.323 104.168 244.085 101.646 246.136 100.32C247.442 99.4712 250.143 99.3896 251.369 100.214C253.102 101.384 253.486 103.698 251.244 105.782Z" fill="white"/>
<path d="M239.186 38.6783C237.647 37.2039 237.492 35.0553 239.125 33.3434C240.879 31.511 243.052 31.5937 244.684 33.2742C246.143 34.7653 246.547 36.7284 244.617 38.5944C242.862 40.6021 240.779 40.2239 239.178 38.6863L239.186 38.6783Z" fill="white"/>
<path d="M267.749 66.2604C269.332 68.0848 269.115 69.9901 267.513 71.7813C265.489 73.5208 263.198 73.3039 262.077 71.4751C261.308 70.2242 261.446 67.4994 262.349 66.3122C263.639 64.6116 266.048 64.2859 267.765 66.2603L267.749 66.2604Z" fill="white"/>
<path d="M45.5413 156.553C44.5585 155.232 44.763 153.008 44.4906 151.514C47.3106 149.751 49.0919 149.184 50.929 151.102C52.6241 152.877 52.4553 154.703 50.9506 156.318C49.3172 158.077 46.9484 158.458 45.5413 156.553Z" fill="white"/>
<path d="M48.2605 112.123C49.885 113.795 50.0833 115.538 48.3476 117.163C46.4561 119.259 44.1776 119.361 42.9138 117.454C42.0817 116.204 42.0756 113.512 42.9082 112.222C44.1773 110.259 46.4864 110.284 48.2527 112.115L48.2605 112.123Z" fill="white"/>
<path d="M190.084 9.53312C191.717 7.85312 194.118 7.39211 195.54 9.40915C196.42 10.6589 196.097 12.7803 196.459 15.7472C193.516 15.3453 191.435 15.6281 190.154 14.7485C188.286 13.4763 188.532 11.1327 190.084 9.53312Z" fill="white"/>
<path d="M235.499 79.3428C233.684 79.3283 231.272 80.0044 230.245 79.1065C229.211 78.2006 229.569 75.7285 229.135 72.7862C232.078 73.1721 234.758 72.7801 235.449 73.7928C236.321 75.0506 235.557 77.4549 235.499 79.3587L235.499 79.3428Z" fill="white"/>
<path d="M24.1931 193.771C23.1645 192.244 23.2502 189.95 22.879 187.97C23.2407 187.624 23.6104 187.271 23.9799 186.933C25.7047 187.274 27.8405 187.111 29.0655 188.078C30.8991 189.526 30.7948 192.107 28.8703 193.495C27.7316 194.318 24.672 194.491 24.1851 193.779L24.1931 193.771Z" fill="white"/>
<path d="M282.416 122.899C281.523 123.839 278.48 123.932 277.357 123.099C276.321 122.336 276.568 119.849 276.258 118.124L277.456 116.926C279.198 117.156 281.702 116.798 282.497 117.801C283.37 118.9 283.341 121.926 282.424 122.891L282.416 122.899Z" fill="white"/>
<path d="M266.682 52.072C267.482 53.3703 267.448 56.1339 266.545 57.2734C265.755 58.2684 263.242 57.9102 260.228 58.3373C260.639 55.3232 260.302 53.1046 261.261 51.9248C262.727 50.1111 265.459 50.0928 266.682 52.072Z" fill="white"/>
<path d="M8.43708 210.852C9.8951 212.439 10.2909 214.346 8.27612 216.014C6.46474 218.062 4.5743 217.555 3.05181 216.048C1.46636 214.463 1.47027 212.392 3.158 210.783C4.8298 209.175 6.90808 209.195 8.43708 210.852Z" fill="white"/>
<path d="M221.236 73.6184C219.436 73.6516 217.143 74.3664 215.981 73.5414C214.953 72.8027 215.175 70.3399 214.849 68.6468C215.211 68.2691 215.565 67.8834 215.927 67.5057C217.685 67.7357 220.181 67.3534 221.007 68.3568C221.897 69.4393 221.229 71.8108 221.244 73.6263L221.236 73.6184Z" fill="white"/>
<path d="M44.533 280.863C45.4894 279.954 48.7951 279.85 49.3769 280.641C50.2651 281.851 50.4212 284.676 49.5501 285.832C48.7515 286.898 46.1975 286.66 43.1819 287.23C43.7203 284.231 43.4723 281.86 44.5171 280.863L44.533 280.863Z" fill="white"/>
<path d="M171.432 45.4913C170.655 44.2804 170.88 42.4148 170.476 39.6793C173.413 39.8183 175.536 39.3043 176.739 40.1209C178.733 41.4715 178.399 43.9354 176.766 45.5835C175.158 47.1916 172.844 47.7075 171.431 45.5073L171.432 45.4913Z" fill="white"/>
<path d="M116.949 115.813C115.73 116.764 113.598 116.529 111.883 116.825C111.504 116.446 111.117 116.075 110.723 115.697C110.986 113.998 110.759 111.97 111.639 110.679C112.915 108.804 115.193 108.814 116.818 110.359C118.491 111.951 118.883 114.305 116.949 115.813Z" fill="white"/>
<path d="M174.378 66.3032C173.15 67.2467 170.32 67.6163 169.276 66.7981C168.209 65.9722 168.472 63.4373 167.928 60.4483C170.854 60.898 173.158 60.5972 174.2 61.6066C175.076 62.4502 175.148 65.7066 174.37 66.2954L174.378 66.3032Z" fill="white"/>
<path d="M294.932 59.9796C293.018 58.5805 293.63 56.2811 295.149 54.8093C296.708 53.3132 299.053 52.9721 300.324 54.919C301.156 56.1851 300.866 58.1947 301.073 59.8809C300.671 60.267 300.261 60.6612 299.859 61.0472C298.19 60.7288 296.174 60.8835 294.932 59.9796Z" fill="white"/>
<path d="M320.164 94.4262C320.709 94.9068 321.031 95.4372 321.185 95.9773L316.473 100.689C315.917 100.535 315.37 100.246 314.842 99.7649C313.16 98.2123 313.187 96.2291 314.804 94.5811C316.34 93.0136 318.169 92.4625 320.157 94.4183L320.164 94.4262Z" fill="white"/>
<path d="M77.4124 64.1508C77.3962 65.8392 78.0121 68.0471 77.1662 69.0665C76.3042 70.1021 74.0122 69.9488 71.2669 70.5644C71.6049 67.7023 71.2068 65.1977 72.1695 64.4558C73.3088 63.5689 75.6123 64.1839 77.4124 64.1508Z" fill="white"/>
<path d="M145.074 81.0615C145.804 82.257 145.699 84.8063 144.86 85.9611C143.65 87.6131 141.121 88.0753 139.802 86.0653C138.963 84.7912 139.261 82.7577 139.046 81.0636C141.836 79.1256 143.992 79.2881 145.082 81.0694L145.074 81.0615Z" fill="white"/>
<path d="M25.3881 243.578C25.5159 241.873 25.0362 239.576 25.9531 238.628C26.9344 237.615 29.2333 237.872 30.9642 237.576C31.3346 237.979 31.7052 238.366 32.0756 238.768C31.6139 240.413 31.6388 242.802 30.5729 243.505C29.3468 244.305 27.1555 243.625 25.3879 243.594L25.3881 243.578Z" fill="white"/>
<path d="M68.9432 165.948C68.0308 164.762 68.37 162.609 68.1475 160.891C70.9374 158.953 73.1109 159.004 74.2405 160.793C74.9857 161.972 74.8817 164.506 74.0739 165.708C72.8461 167.519 70.2568 167.648 68.9432 165.948Z" fill="white"/>
<path d="M227.02 81.6538C228.613 83.2471 228.569 85.3579 226.898 86.9347C225.314 88.4231 223.424 88.7199 221.706 86.8889C220.027 85.1132 220.082 83.4483 221.859 81.7351C223.597 79.8391 225.497 80.1474 227.02 81.6538Z" fill="white"/>
<path d="M83.9284 142.05C85.59 142.328 87.6226 142.126 88.8245 143.022C90.5956 144.343 90.3749 146.599 88.7512 148.175C87.1757 149.703 85.3256 149.976 83.5909 148.177C81.8799 146.401 82.0311 144.752 83.9363 142.058L83.9284 142.05Z" fill="white"/>
<path d="M2.83855 166.016C2.42401 167.724 2.51323 170.049 1.42929 170.975C0.457775 171.805 -2.50397 171.737 -3.32384 170.869C-4.18315 169.962 -4.2027 167.016 -3.34965 166.084C-2.38389 165.023 -0.0524397 165.216 1.68709 164.849C2.0736 165.235 2.46009 165.622 2.83855 166.016Z" fill="white"/>
<path d="M5.82095 134.843C7.33256 133.331 9.29205 133.281 10.7913 134.716C12.3458 136.206 12.8377 138.065 10.8933 139.867C9.1946 141.787 7.412 141.66 5.74722 140.044C4.05089 138.396 4.22076 136.459 5.82885 134.851L5.82095 134.843Z" fill="white"/>
<path d="M182.07 87.1334C181.276 86.0022 181.317 83.4217 182.117 82.2275C183.272 80.5202 185.434 80.1412 186.749 81.6974C188.792 83.7403 188.943 85.4032 187.173 87.2199C185.332 89.1089 183.177 88.7234 182.062 87.1255L182.07 87.1334Z" fill="white"/>
<path d="M3.10108 226.695C3.8466 227.842 3.70263 230.4 2.85564 231.531C2.15368 232.485 -0.122063 232.3 -1.7099 232.626L-2.78218 231.505C-2.56727 229.855 -2.86614 227.803 -1.99502 226.648C-0.623875 224.835 1.93175 224.898 3.10108 226.695Z" fill="white"/>
<path d="M44.9939 210.343C44.1137 209.125 44.3482 207.092 44.0934 205.422C44.4954 205.02 44.9132 204.634 45.3152 204.232C46.9843 204.566 49.0163 204.427 50.2179 205.355C51.9332 206.685 51.3085 208.713 49.8209 210.217C48.2529 211.8 46.1805 211.996 44.986 210.335L44.9939 210.343Z" fill="white"/>
<path d="M255.596 100.404C254.616 99.6493 254.845 97.3537 254.55 95.74C254.912 95.3463 255.282 94.9605 255.644 94.5668C257.353 94.8929 259.672 94.6715 260.586 95.698C261.382 96.6062 261.226 99.5701 260.342 100.423C259.466 101.267 256.655 101.222 255.596 100.404Z" fill="white"/>
<path d="M10.4754 261.567C11.5676 259.781 16.0689 259.571 16.945 261.219C17.4614 262.185 17.3387 264.185 16.6381 264.996C15.0999 266.787 12.9983 267.548 10.26 264.938C10.2831 264.189 9.85264 262.569 10.4754 261.567Z" fill="white"/>
<path d="M53.7944 188.638C53.4158 188.259 53.0452 187.872 52.6825 187.494C52.9529 185.867 52.7254 183.854 53.6283 182.699C55.0715 180.845 57.2417 181.246 58.7789 182.88C60.2609 184.459 60.233 186.537 58.4854 187.749C57.2909 188.58 55.3895 188.383 53.8023 188.646L53.7944 188.638Z" fill="white"/>
<path d="M182.224 22.0313C183.051 22.9392 182.976 25.8226 182.114 26.8104C181.269 27.7821 178.923 27.4462 176.068 27.8558C176.644 25.1029 176.459 22.7794 177.47 21.9893C178.513 21.167 181.42 21.179 182.208 22.0315L182.224 22.0313Z" fill="white"/>
<path d="M133.733 100.354C134.63 101.46 134.548 103.356 134.9 104.898C132.221 106.851 130.491 107.082 128.763 105.434C127.074 103.826 127.537 102.038 128.921 100.528C130.394 98.9287 132.458 98.7735 133.733 100.354Z" fill="white"/>
<path d="M109.389 45.4409C107.956 47.1429 105.757 47.1958 104.498 45.6311C103.562 44.4695 103.645 42.4619 103.286 40.8329C103.624 40.4633 103.962 40.0938 104.3 39.7242C105.938 39.9952 107.803 39.8499 109.149 40.6174C111.2 41.7843 110.678 43.8996 109.397 45.4329L109.389 45.4409Z" fill="white"/>
<path d="M82.5789 172.347C84.0701 173.79 84.284 175.564 82.4672 178.186C80.8202 178.034 78.4588 178.471 77.727 177.562C76.9242 176.566 77.052 174.041 77.7972 172.728C78.8504 170.854 81.0168 170.818 82.579 172.332L82.5789 172.347Z" fill="white"/>
<path d="M137.032 56.0699C136.207 54.9231 136.52 52.9532 136.321 51.3544C136.707 50.9685 137.1 50.5904 137.486 50.2204C139.045 50.4762 140.974 50.2666 142.097 51.1C143.67 52.2714 143.786 54.2532 142.122 55.8857C140.45 57.5263 138.392 57.9442 137.04 56.0619L137.032 56.0699Z" fill="white"/>
<path d="M210.244 -6.76206C209.533 -7.31267 209.697 -10.3483 210.549 -11.1847C211.514 -12.1495 213.678 -11.8995 215.329 -12.1781C215.66 -11.815 215.999 -11.4599 216.33 -11.0967C215.94 -9.46049 216.045 -7.10433 215.035 -6.39387C213.944 -5.63486 211.367 -5.89685 210.252 -6.75417L210.244 -6.76206Z" fill="white"/>
<path d="M67.4156 218.147C67.015 220.898 67.3117 223.173 66.4296 223.818C65.2988 224.649 62.749 224.801 61.6892 224.047C60.8588 223.442 60.6888 220.409 61.4534 219.566C62.3709 218.553 64.599 218.723 67.4156 218.147Z" fill="white"/>
<path d="M82.6943 132.052C81.8349 132.816 78.7868 132.615 78.1976 131.784C77.4434 130.708 77.6271 128.158 78.4741 127.027C79.1275 126.153 81.418 126.466 84.2009 126.081C83.5765 128.914 83.7223 131.15 82.6942 132.068L82.6943 132.052Z" fill="white"/>
<path d="M267.546 78.311C267.57 79.9273 268.226 82.095 267.437 82.9945C266.567 83.9903 264.355 83.8204 261.555 84.3967C262.003 81.645 261.746 79.3779 262.62 78.7564C263.791 77.9329 265.857 78.3909 267.538 78.3031L267.546 78.311Z" fill="white"/>
<path d="M129.008 43.3337C129.929 44.4477 129.822 46.4316 130.173 48.021C129.803 48.4227 129.441 48.8163 129.071 49.2181C127.424 49.0666 125.086 49.5111 124.306 48.6028C123.48 47.6312 123.52 45.0825 124.233 43.7856C125.271 41.8963 127.669 41.722 129.015 43.3416L129.008 43.3337Z" fill="white"/>
<path d="M67.5432 152.488C66.7482 151.516 66.9071 149.069 67.6046 147.741C68.6754 145.692 70.9906 145.917 72.2425 147.41C73.1321 148.476 73.0022 150.405 73.3378 151.946C72.9517 152.348 72.5815 152.75 72.1954 153.152C70.5805 152.984 68.2672 153.388 67.5432 152.488Z" fill="white"/>
<path d="M56.3287 89.5569C57.1349 88.5299 59.3165 88.5727 60.8972 88.1594C61.3155 88.5456 61.7339 88.9318 62.1601 89.3258C61.8343 90.9137 61.9968 93.0702 61.025 93.9316C60.1094 94.7367 57.3854 94.7947 56.5646 94.0221C55.7202 93.2259 55.579 90.5117 56.3207 89.565L56.3287 89.5569Z" fill="white"/>
<path d="M74.0644 204.92C76.1878 206.046 75.6807 208.273 74.1392 209.577C73.1196 210.439 71.3205 210.377 69.8678 210.725C69.4493 210.355 69.0388 209.977 68.6203 209.606C68.8903 208.027 68.6559 205.895 69.5878 205.042C70.4395 204.254 72.8521 204.286 74.0485 204.92L74.0644 204.92Z" fill="white"/>
<path d="M94.8434 65.0667C94.0045 64.5173 94.3777 62.1407 94.0775 59.3962C96.7164 59.9124 98.8525 59.7167 99.5206 60.6261C100.291 61.6699 99.7621 63.6817 99.8027 65.2661C98.1065 65.2584 96.0146 65.8359 94.8434 65.0667Z" fill="white"/>
<path d="M17.313 249.413C15.9542 250.772 14.2321 250.98 12.6937 249.474C11.1317 247.928 10.8324 245.924 12.4379 244.587C13.5456 243.668 15.5743 243.88 17.1858 243.577C19.144 246.147 18.7524 247.958 17.305 249.421L17.313 249.413Z" fill="white"/>
<path d="M100.724 130.35C99.7199 131.227 97.8495 131.126 96.3651 131.459C95.9703 131.112 95.5754 130.766 95.1806 130.419C95.4032 128.792 95.0975 126.621 96.022 125.712C96.8261 124.908 99.3095 125.028 100.562 125.669C102.693 126.771 102.209 129.054 100.724 130.366L100.724 130.35Z" fill="white"/>
<path d="M219.845 30.9003C220.884 28.8995 223.114 28.8463 224.477 30.4338C225.343 31.4449 225.27 33.2692 225.614 34.7232L224.615 35.975C223.04 35.799 220.934 36.1696 220.034 35.3022C219.237 34.5215 219.213 32.1009 219.845 30.9003Z" fill="white"/>
<path d="M118.846 103.156C119.421 102.219 121.642 102.254 124.333 101.535C124.187 104.22 124.652 106.469 123.882 107.034C122.727 107.905 120.707 107.606 119.065 107.797C118.928 106.214 118.175 104.254 118.854 103.148L118.846 103.156Z" fill="white"/>
<path d="M98.8044 305.69C97.9546 304.615 98.108 302.742 97.5849 299.984C100.4 300.403 102.577 300.103 103.492 301.034C104.296 301.855 104.279 304.443 103.552 305.565C102.404 307.344 100.063 307.271 98.8124 305.682L98.8044 305.69Z" fill="white"/>
<path d="M175.397 88.6945C174.427 89.4603 172.417 88.8982 170.856 88.9132C170.92 87.2721 170.43 85.2382 171.229 84.1236C171.85 83.2656 174.093 83.5626 176.772 83.1706C176.189 85.836 176.328 87.9529 175.397 88.6945Z" fill="white"/>
<path d="M219.421 59.4371C218.513 58.546 218.861 56.3846 218.506 53.5371C221.272 54.0202 223.114 53.8353 224.141 54.6537C225.714 55.9048 225.939 58.1244 223.906 59.2747C222.673 59.9714 220.178 60.1944 219.413 59.4452L219.421 59.4371Z" fill="white"/>
<path d="M291.96 124.177C291.908 124.576 291.865 124.95 291.845 125.317L287.045 130.117C286.767 130.016 286.506 129.915 286.292 129.766C285.603 129.319 285.711 126.419 286.485 125.408C287.17 124.518 289.279 124.696 291.968 124.169L291.96 124.177Z" fill="white"/>
<path d="M179.255 57.6083C178.362 56.9081 178.637 54.7553 178.389 53.2367C178.743 52.8829 179.112 52.5449 179.474 52.199C180.968 52.5033 183.12 52.3393 183.78 53.2567C184.519 54.2849 183.91 56.2975 183.887 57.8824C182.295 57.8499 180.243 58.3872 179.247 57.6004L179.255 57.6083Z" fill="white"/>
<path d="M168.794 98.8314C167.878 98.012 168.138 95.8753 167.724 93.3231C170.277 93.6729 172.582 93.3402 173.21 94.2261C173.996 95.3175 173.379 97.4178 173.371 99.0822C171.794 99.0495 169.694 99.6191 168.794 98.8314Z" fill="white"/>
<path d="M41.2612 165.25C39.7009 165.201 37.8011 165.665 36.6851 164.951C35.8857 164.441 36.1367 162.345 35.7469 159.816C38.3958 160.117 40.661 159.745 41.2899 160.599C42.021 161.587 41.3323 163.649 41.2612 165.25Z" fill="white"/>
<path d="M65.3161 178.804C64.5279 177.951 64.5545 175.18 65.3672 174.304C66.244 173.38 68.4468 173.701 71.1261 173.325C70.5921 175.863 70.7543 178.051 69.7833 178.833C68.8202 179.607 66.065 179.601 65.3161 178.804Z" fill="white"/>
<path d="M23.4574 165.843C22.6618 166.591 19.8107 166.618 19.3711 165.953C18.6254 164.822 18.4102 162.355 19.1754 161.448C19.9567 160.525 22.1758 160.798 24.9594 160.349C24.3292 162.951 24.4057 164.942 23.4575 165.827L23.4574 165.843Z" fill="white"/>
<path d="M253.753 45.0766C252.954 44.5348 253.366 42.2454 253.122 39.4605C255.8 40.048 257.896 39.9085 258.524 40.8103C259.223 41.815 259.124 44.6748 258.411 45.1036C257.21 45.8319 254.877 45.8303 253.753 45.0766Z" fill="white"/>
<path d="M88.2236 299.612C88.0018 301.143 88.2995 303.322 87.4328 304.015C86.4698 304.789 84.145 304.732 82.9168 304.098C80.904 303.066 81.5703 300.838 82.8714 299.695C83.8672 298.825 85.7138 298.919 87.1663 298.587C87.5134 298.934 87.8685 299.273 88.2236 299.612Z" fill="white"/>
<path d="M278.852 107.532C281.61 108.134 283.793 107.986 284.437 108.92C285.16 109.98 284.487 112.009 284.416 113.61C282.8 113.538 280.725 114.036 279.729 113.217C278.86 112.509 279.2 110.324 278.844 107.524L278.852 107.532Z" fill="white"/>
<path d="M98.4926 147.946C97.3777 148.777 94.9298 149.111 93.933 148.42C93.0233 147.784 93.2921 145.496 92.856 142.808C95.4483 143.198 97.4815 142.931 98.3809 143.815C99.1381 144.572 99.1823 147.446 98.5005 147.954L98.4926 147.946Z" fill="white"/>
<path d="M156.777 82.2952C155.678 83.1419 153.776 82.9451 152.221 83.1909C152.141 81.5831 151.435 79.591 152.147 78.4853C152.737 77.5638 154.989 77.6936 157.687 77.0943C157.303 79.6861 157.563 81.6984 156.769 82.3032L156.777 82.2952Z" fill="white"/>
<path d="M157.859 64.0965C157.269 64.9701 155.121 64.8155 153.668 65.1161C153.298 64.7295 152.943 64.3427 152.573 63.956C152.913 62.4795 152.79 60.4261 153.721 59.6687C154.644 58.9192 156.621 59.4657 158.134 59.4512C158.103 61.0282 158.618 62.9743 157.867 64.0884L157.859 64.0965Z" fill="white"/>
<path d="M62.3315 333.171C62.7918 332.505 65.5073 332.503 66.3525 333.22C67.2531 333.976 67.1468 335.928 67.4835 337.358C67.0815 337.76 66.6714 338.17 66.2773 338.58C64.823 338.267 62.7193 338.415 62.0987 337.521C61.4075 336.524 61.5728 334.229 62.3236 333.163L62.3315 333.171Z" fill="white"/>
<path d="M263.449 89.5229C263.795 89.1293 264.141 88.7358 264.479 88.3344C265.999 88.503 268.088 88.1485 268.861 89.0012C269.641 89.8458 269.088 91.8977 269.121 93.4263C267.568 93.4491 265.747 93.9444 264.559 93.3028C263.735 92.8647 263.786 90.8416 263.449 89.5229Z" fill="white"/>
<path d="M296.529 78.7021C296.22 80.1624 296.366 82.319 295.485 82.9168C294.379 83.66 292.425 83.1372 290.832 83.1525C290.87 81.6471 290.363 79.6929 291.113 78.77C291.878 77.8468 293.908 77.9468 295.385 77.5903C295.763 77.9689 296.142 78.3315 296.529 78.7021Z" fill="white"/>
<path d="M32.4212 205.199C31.5605 204.435 31.7383 202.506 31.2755 200.114C33.781 200.416 35.9503 200.077 36.5555 200.907C37.2709 201.88 37.0505 204.104 36.3622 205.297C36.022 205.889 33.2267 205.908 32.4212 205.199Z" fill="white"/>
<path d="M272.879 14.5927C273.61 13.8928 276.228 14.0509 277.001 14.8239C277.727 15.5496 277.726 18.2014 276.994 18.9012C276.022 19.8263 274.024 19.6942 271.303 20.2538C271.966 17.5399 271.898 15.5258 272.879 14.5927Z" fill="white"/>
<path d="M27.2909 178.81C26.5373 177.671 26.954 175.739 26.8658 174.14C28.363 174.125 30.1838 173.598 31.2365 174.265C32.0914 174.798 32.0247 176.774 32.6541 179.236C29.9799 179.087 27.7617 179.538 27.2828 178.818L27.2909 178.81Z" fill="white"/>
<path d="M50.8493 348.029C50.778 349.646 51.2215 351.569 50.4694 352.763C50.0003 353.516 47.7499 353.179 45.1991 353.442C45.6199 351.081 45.4251 348.973 46.2182 348.479C47.4039 347.735 49.2716 348.124 50.8493 348.029Z" fill="white"/>
<path d="M57.2106 163.719C57.2893 162.158 56.8614 160.267 57.6129 159.137C58.1461 158.335 60.2621 158.57 62.7426 158.172C62.3606 160.636 62.5951 162.752 61.8178 163.261C60.6559 164.013 58.7804 163.617 57.2106 163.719Z" fill="white"/>
<path d="M67.7002 271.546C68.2252 270.769 70.2458 270.989 72.6785 270.591C72.271 273.223 72.4966 275.442 71.7199 275.888C70.5107 276.592 68.6281 276.093 67.0274 276.1C67.1936 274.546 66.9167 272.693 67.6843 271.547L67.7002 271.546Z" fill="white"/>
<path d="M55.6932 248.926C55.2392 251.431 55.4247 253.675 54.5918 254.161C53.4706 254.824 51.582 254.126 50.0223 254.013C50.1713 252.586 49.8233 250.679 50.6116 249.859C51.392 249.031 53.3086 249.291 55.6932 248.926Z" fill="white"/>
<path d="M68.5726 132.322C69.3127 133.207 68.8164 135.139 68.8659 136.62C67.2887 136.667 65.3398 137.275 64.2477 136.568C63.4482 136.059 63.7882 133.826 63.5171 131.367C65.8866 131.743 67.8879 131.477 68.5807 132.314L68.5726 132.322Z" fill="white"/>
<path d="M268.136 103.971C268.119 102.395 267.556 100.497 268.26 99.3673C268.777 98.5341 270.958 98.7043 273.519 98.21C273.08 100.747 273.308 102.759 272.415 103.636C271.644 104.408 269.61 103.901 268.136 103.971Z" fill="white"/>
<path d="M103.631 89.5654C102.157 89.6353 100.168 90.3313 99.3541 89.6303C98.4141 88.835 98.5289 86.8272 97.9481 84.2844C100.581 84.5539 102.751 84.1827 103.309 84.9657C104.071 86.0334 103.582 87.9892 103.631 89.5654Z" fill="white"/>
<path d="M93.8653 118.924C93.7954 120.398 94.2236 122.258 93.4896 123.228C92.8444 124.079 90.8708 123.938 88.3572 124.48C88.756 121.92 88.5135 119.796 89.2907 119.303C90.4365 118.567 92.3118 118.995 93.8653 118.924Z" fill="white"/>
<path d="M27.8374 110.16C27.9232 108.686 27.4871 106.819 28.2449 105.856C28.9061 105.006 30.8795 105.162 33.4327 104.644C32.9781 107.213 33.1731 109.305 32.4039 109.79C31.2502 110.518 29.4068 110.09 27.8533 110.16L27.8374 110.16Z" fill="white"/>
<path d="M229.767 48.4282C229.17 49.2461 227.165 49.0424 224.676 49.4963C225.083 46.9759 224.864 44.8438 225.641 44.3666C226.811 43.6546 228.678 44.0906 230.247 44.0517C230.137 45.5498 230.525 47.4016 229.767 48.4282Z" fill="white"/>
<path d="M290.204 115.442C291.126 114.756 293.642 114.828 294.304 115.586C294.997 116.376 294.854 118.87 294.081 119.705C293.317 120.533 291.305 120.225 288.793 120.544C289.398 118.11 289.314 116.096 290.212 115.434L290.204 115.442Z" fill="white"/>
<path d="M130.65 62.2469C131.414 63.1395 131.045 65.0064 131.183 66.4465C129.605 66.5412 127.704 67.1965 126.563 66.5545C125.763 66.0923 126 63.8683 125.602 61.3317C128.051 61.7064 129.965 61.4492 130.658 62.2548L130.65 62.2469Z" fill="white"/>
<path d="M42.3873 142.48C41.6003 141.5 41.8968 139.642 41.6255 137.215C43.962 137.703 45.9464 137.548 46.6705 138.433C47.3002 139.208 46.9669 141.576 46.1862 142.435C45.5665 143.118 42.9224 143.144 42.3953 142.472L42.3873 142.48Z" fill="white"/>
<path d="M290.014 32.2266C289.262 31.7958 289.553 29.627 289.234 27.1534C291.708 27.5199 293.733 27.2616 294.322 28.0603C295.061 29.0566 294.597 30.9404 294.655 32.4449C293.07 32.4362 291.202 32.916 290.014 32.2266Z" fill="white"/>
<path d="M190.976 90.9262C192.01 90.2075 193.861 90.7074 195.359 90.6771C195.265 92.1752 195.669 94.0427 194.918 95.0772C194.329 95.8871 192.301 95.6597 189.716 96.0985C190.266 93.545 190.134 91.5156 190.968 90.9342L190.976 90.9262Z" fill="white"/>
<path d="M49.3638 267.876C48.4626 267.184 48.4562 265.36 48.0628 264.034C48.3847 263.681 48.6987 263.319 49.0207 262.966C50.4202 263.175 52.4216 262.909 53.0509 263.716C53.7825 264.656 53.3105 266.548 53.3521 268.021C51.9824 268.018 50.2096 268.529 49.3559 267.868L49.3638 267.876Z" fill="white"/>
<path d="M113.838 129.683C113.37 130.356 110.788 130.476 110.014 129.831C109.153 129.114 109.282 127.234 108.725 124.747C111.286 125.057 113.32 124.742 113.957 125.541C114.658 126.418 114.54 128.665 113.838 129.683Z" fill="white"/>
<path d="M-15.9549 158.528C-16.8935 159.245 -19.3145 159.253 -20.1197 158.512C-20.909 157.787 -20.4673 155.736 -20.6421 153.197C-18.3221 153.748 -16.3621 153.65 -15.7493 154.52C-15.1051 155.438 -15.225 157.971 -15.963 158.536L-15.9549 158.528Z" fill="white"/>
<path d="M154.725 92.8185C153.611 93.5061 151.378 93.8301 150.596 93.1607C149.735 92.4284 149.986 90.3953 149.581 87.8191C152.004 88.3931 153.796 88.3202 154.64 89.1801C155.311 89.8505 155.285 92.4787 154.725 92.8185Z" fill="white"/>
<path d="M257.679 105.768C259.12 105.746 260.821 105.26 261.914 105.855C262.691 106.277 262.625 108.173 263.177 110.397C260.661 110.326 258.546 110.848 257.956 110.113C257.208 109.189 257.72 107.256 257.679 105.752L257.679 105.768Z" fill="white"/>
<path d="M125.604 11.3058C124.861 10.7077 125.254 8.70513 125.084 6.57258C127.247 6.87038 129.336 6.57959 129.846 7.36308C130.513 8.36803 129.922 10.2212 129.868 11.7109C128.404 11.6294 126.528 12.0535 125.604 11.3058Z" fill="white"/>
<path d="M49.0239 315.811C49.6505 316.904 49.4841 318.474 49.7801 320.828C47.3616 320.581 46.033 320.442 44.7045 320.304C45.1026 318.643 45.3502 316.913 46.0259 315.37C46.14 315.098 48.6871 315.217 49.024 315.795L49.0239 315.811Z" fill="white"/>
<path d="M-24.6782 263.577C-24.7642 265.067 -24.4227 266.823 -25.1104 267.953C-25.5714 268.698 -27.5291 268.557 -29.9466 269.034C-29.5802 266.538 -29.8393 264.494 -29.0456 263.937C-28.0194 263.21 -26.1681 263.647 -24.6704 263.584L-24.6782 263.577Z" fill="white"/>
<path d="M306.161 108.13C305.773 108.771 303.079 108.94 302.361 108.286C301.516 107.522 301.678 105.641 301.206 103.272C303.601 103.56 305.61 103.254 306.097 103.982C306.772 104.995 306.8 107.065 306.161 108.13Z" fill="white"/>
<path d="M42.1968 94.2235C41.3217 94.9566 39.1083 94.9141 38.0553 94.2792C37.4377 93.9028 37.3756 91.2516 38.0599 90.4726C38.8409 89.5812 40.7039 89.627 43.1548 88.9904C42.7722 91.5184 43.0397 93.5226 42.2127 94.2234L42.1968 94.2235Z" fill="white"/>
<path d="M178.589 -4.96952C178.618 -6.35542 178.141 -8.13465 178.827 -9.02515C179.488 -9.87561 181.351 -9.81383 183.849 -10.451C183.268 -7.99267 183.363 -6.20977 182.552 -5.52512C181.685 -4.8001 179.944 -5.10992 178.589 -4.96952Z" fill="white"/>
<path d="M134.923 90.8025C134.862 92.2046 135.322 94.0318 134.597 94.8828C133.921 95.6857 132.012 95.465 129.786 95.8447C130.102 93.6358 129.835 91.5839 130.597 91.0749C131.631 90.3721 133.442 90.8485 134.923 90.8184L134.923 90.8025Z" fill="white"/>
<path d="M312.691 67.4144C312.205 68.2154 310.113 68.0523 307.935 68.4793C308.163 66.2792 307.815 64.3714 308.578 63.6234C309.382 62.8513 311.274 63.1994 312.677 63.0586C312.734 64.5472 313.33 66.3492 312.675 67.4146L312.691 67.4144Z" fill="white"/>
<path d="M172.618 80.3834C173.288 77.8526 173.25 75.9816 174.149 75.2244C174.912 74.5721 177.26 74.685 177.962 75.4029C178.624 76.0655 178.561 78.479 177.878 79.1783C177.033 80.0226 175.203 79.8809 172.626 80.3913L172.618 80.3834Z" fill="white"/>
<path d="M41.6332 220.329C40.9106 220.941 38.5796 220.701 37.8622 219.951C37.1919 219.265 37.1985 216.907 37.8582 216.216C38.5821 215.461 40.4266 215.778 42.6109 215.534C42.2392 217.751 42.444 219.644 41.6412 220.321L41.6332 220.329Z" fill="white"/>
<path d="M39.3728 249.282C40.1122 248.574 41.8766 248.939 43.1915 248.839C43.2415 250.272 43.8142 252.002 43.1911 253.036C42.7219 253.805 40.7245 253.656 38.4106 254.125C38.8073 251.788 38.6012 250.022 39.3728 249.282Z" fill="white"/>
<path d="M113.793 77.0532C114.612 76.2967 116.417 76.6059 117.796 76.4414C117.798 77.9067 118.315 79.6935 117.644 80.7112C117.102 81.5367 115.113 81.4283 112.774 81.9683C113.195 79.6231 112.997 77.7854 113.801 77.0451L113.793 77.0532Z" fill="white"/>
<path d="M181.876 69.9901C181.267 69.4942 181.387 66.9767 182.078 66.3489C182.929 65.5763 184.711 65.814 187 65.4815C186.492 67.7719 186.624 69.7216 185.782 70.3429C184.932 70.9722 182.753 70.7223 181.868 69.9981L181.876 69.9901Z" fill="white"/>
<path d="M237.591 89.5397C237.019 90.2062 234.605 90.3966 234.164 89.8433C233.432 88.9505 233.069 86.9154 233.627 86.0579C234.177 85.2245 236.087 85.2699 238.41 84.6663C238.085 87.0266 238.324 88.6966 237.583 89.5478L237.591 89.5397Z" fill="white"/>
<path d="M66.0836 262.404C65.7598 264.621 66.0204 266.506 65.2334 267.198C64.4383 267.899 62.1125 267.953 61.3862 267.291C60.6916 266.644 60.6584 264.296 61.3272 263.469C61.972 262.666 63.8497 262.84 66.0915 262.412L66.0836 262.404Z" fill="white"/>
<path d="M72.9601 84.1735C72.1087 84.9303 69.9873 85.2532 69.1247 84.6961C68.357 84.2018 68.5669 82.2407 68.1896 80.0624C70.3937 80.2403 72.1331 79.8892 72.9465 80.6061C73.594 81.1732 73.5945 83.618 72.952 84.1816L72.9601 84.1735Z" fill="white"/>
<path d="M9.54433 178.415C10.1818 177.541 12.053 177.562 14.3127 176.928C13.9892 179.113 14.2274 180.846 13.5047 181.475C12.6132 182.256 10.9262 182.128 9.57793 182.388C9.51141 181.019 8.90699 179.273 9.53643 178.407L9.54433 178.415Z" fill="white"/>
<path d="M120.155 33.114C119.444 32.4678 119.844 30.6005 119.713 28.4596C121.773 28.8142 123.662 28.6288 124.077 29.3336C124.649 30.3076 124.62 32.45 123.913 33.1576C123.254 33.8169 120.897 33.7758 120.155 33.098L120.155 33.114Z" fill="white"/>
<path d="M145.015 29.0453C143.67 28.9865 141.962 29.3851 141.085 28.7167C140.389 28.1977 140.701 26.3552 140.452 24.096C142.677 24.648 144.397 24.5838 145.13 25.397C145.713 26.0603 145.107 27.7862 145.023 29.0532L145.015 29.0453Z" fill="white"/>
<path d="M57.9885 201.371C58.335 200.109 58.3125 198.302 59.1304 197.721C60.0043 197.099 61.6794 197.648 63.0088 197.691C62.925 198.958 63.3148 200.667 62.647 201.382C61.9068 202.169 60.1958 202.05 58.9111 202.325C58.6115 202.01 58.304 201.686 58.0044 201.371L57.9885 201.371Z" fill="white"/>
<path d="M90.7898 74.2316C90.2484 76.7134 90.3674 78.4244 89.5967 79.0688C88.8259 79.7292 86.4278 79.8398 86.0667 79.3018C85.4308 78.3443 85.2824 76.3788 85.8887 75.4412C86.3898 74.6719 88.2761 74.7733 90.7819 74.2237L90.7898 74.2316Z" fill="white"/>
<path d="M18.4604 231.891C17.8732 232.51 15.5886 232.412 14.9339 231.758C14.3108 231.134 14.3313 229 14.9519 228.222C15.5565 227.459 17.2674 227.578 19.5099 227.087C19.0901 229.337 19.2487 231.071 18.4604 231.891Z" fill="white"/>
<path d="M37.3371 308.803C37.9643 309.833 37.5661 311.493 37.5926 312.886C36.3346 312.866 34.5222 313.354 33.963 312.714C33.1437 311.782 33.2239 310.061 32.6743 307.582C35.0738 308.148 36.8744 308.051 37.329 308.812L37.3371 308.803Z" fill="white"/>
<path d="M132.187 74.7347C132.839 75.5965 132.812 77.5796 132.221 78.5966C131.873 79.1972 129.499 79.3474 128.692 78.7818C127.885 78.2161 127.901 76.4959 127.231 74.1531C129.761 74.3837 131.652 74.0391 132.179 74.7427L132.187 74.7347Z" fill="white"/>
<path d="M209.27 16.7552C209.346 15.4962 208.98 13.8593 209.632 13.0806C210.26 12.3419 211.955 12.5088 214.085 12.0982C213.722 14.2598 213.919 16.1293 213.222 16.574C212.244 17.1885 210.608 16.7423 209.262 16.7473L209.27 16.7552Z" fill="white"/>
<path d="M77.8367 153.647C80.2118 154.269 81.988 154.228 82.7125 155.082C83.3347 155.8 82.7524 157.566 82.708 158.872C81.3637 158.718 79.6809 158.981 78.7639 158.273C78.0367 157.706 78.2366 155.961 77.8367 153.647Z" fill="white"/>
<path d="M59.718 309.234C60.4899 308.462 62.1924 308.637 64.4979 308.209C63.9026 310.492 63.95 312.196 63.1721 312.768C62.37 313.365 60.2838 313.354 59.6527 312.723C59.0375 312.107 59.0669 309.869 59.7021 309.234L59.718 309.234Z" fill="white"/>
<path d="M161.601 15.1256C160.953 14.6381 161.353 12.7708 161.229 10.7175C163.257 11.0564 165.154 10.863 165.561 11.5599C166.141 12.5577 165.632 14.2031 165.571 15.5734C164.202 15.475 162.518 15.8176 161.593 15.1337L161.601 15.1256Z" fill="white"/>
<path d="M227.407 62.8247C228.051 62.1814 230.425 62.0631 230.834 62.6166C231.51 63.5339 231.706 65.4512 231.156 66.4121C230.759 67.0928 228.802 66.9045 226.728 67.227C226.97 65.2179 226.692 63.5403 227.399 62.8168L227.407 62.8247Z" fill="white"/>
<path d="M102.098 314.37C102.063 314.641 102.029 314.913 102.002 315.16L98.0064 319.156C97.8556 319.101 97.7129 319.039 97.5782 318.969C97.0237 318.655 96.8955 316.244 97.4746 315.649C98.2387 314.853 99.8866 314.909 102.098 314.37Z" fill="white"/>
<path d="M193.031 53.4707C192.377 52.816 192.358 50.6581 192.978 49.8797C193.591 49.1093 195.349 49.2597 197.551 48.8245C197.188 51.0339 197.37 52.7761 196.59 53.6038C196.018 54.2225 193.686 54.1254 193.031 53.4707Z" fill="white"/>
<path d="M41.8333 177.014C41.1298 176.472 41.3372 174.765 40.9607 172.507C43.187 172.868 44.9966 172.668 45.3884 173.333C45.9525 174.299 45.4993 175.888 45.4787 177.202C44.2286 177.19 42.6078 177.628 41.8253 177.022L41.8333 177.014Z" fill="white"/>
<path d="M286.302 71.3384C286.395 70.0156 286.06 68.3943 286.722 67.4642C287.198 66.7987 288.987 67.0443 291.188 66.7525C290.634 68.9477 290.697 70.6354 289.951 71.192C289.133 71.7891 287.553 71.3344 286.311 71.3304L286.302 71.3384Z" fill="white"/>
<path d="M79.2919 275.178C79.3763 273.847 79.0412 272.258 79.6717 271.28C80.1242 270.591 81.8748 270.734 84.1406 270.298C83.6245 272.628 83.7197 274.331 82.9736 274.904C82.1553 275.533 80.5426 275.126 79.276 275.178L79.2919 275.178Z" fill="white"/>
<path d="M160.618 29.6762C161.467 29.0788 163.071 29.573 164.353 29.5846C164.261 30.8915 164.619 32.5843 163.927 33.3873C163.323 34.0859 161.55 33.7923 159.326 34.0445C159.887 31.9528 159.848 30.2251 160.618 29.6762Z" fill="white"/>
<path d="M25.3937 222.213C24.7225 221.622 25.0978 219.858 24.9582 217.805C26.8665 218.105 28.5725 217.914 28.9566 218.555C29.4976 219.434 29.5183 221.433 28.8834 222.036C28.1922 222.696 26.0489 222.82 25.3936 222.229L25.3937 222.213Z" fill="white"/>
<path d="M42.0584 54.6548C41.3797 54.0083 41.7066 52.309 41.5201 50.1607C43.5706 50.587 45.284 50.4511 45.8422 51.2023C46.3925 51.9456 46.1972 54.0498 45.5303 54.6693C44.8555 55.281 42.7134 55.2777 42.0663 54.6627L42.0584 54.6548Z" fill="white"/>
<path d="M67.6411 101.561C70.0499 101.992 71.6281 101.833 72.3461 102.535C72.9534 103.142 72.5718 104.739 72.6324 105.893C71.4132 105.976 69.8709 106.54 69.0638 106.007C68.2962 105.496 68.304 103.848 67.6411 101.561Z" fill="white"/>
<path d="M66.6469 347.376C66.1991 349.228 66.2087 350.717 65.6195 351.543L65.322 351.84C64.6007 352.325 62.5465 352.281 62.2169 351.774C61.6361 350.888 61.5119 348.898 62.1235 348.224C62.7836 347.485 64.5254 347.715 66.6467 347.392L66.6469 347.376Z" fill="white"/>
<path d="M245.946 90.2082C248.156 90.6171 249.783 90.4422 250.421 91.1608C251.012 91.8161 251.023 93.9661 250.437 94.4893C249.714 95.1333 247.689 95.296 246.986 94.7374C246.243 94.1393 246.387 92.4497 245.938 90.2163L245.946 90.2082Z" fill="white"/>
<path d="M64.4759 210.801C63.6022 211.391 62.0219 210.936 60.7477 210.932C60.8234 209.689 60.4878 208.147 61.1092 207.289C61.6176 206.592 63.265 206.695 65.5873 206.171C65.0787 208.557 65.1974 210.3 64.468 210.793L64.4759 210.801Z" fill="white"/>
<path d="M42.1353 189.538C41.4428 190.341 39.8656 190.388 37.8129 191.021C38.1207 188.82 37.9051 187.221 38.6057 186.41C39.1291 185.808 41.2079 185.764 41.9113 186.323C42.5278 186.811 42.6828 188.911 42.1434 189.53L42.1353 189.538Z" fill="white"/>
<path d="M40.6333 298.061C39.8823 297.487 39.9859 295.822 39.4583 293.541C41.7791 294.013 43.3569 293.902 44.1064 294.635C44.6743 295.203 44.6373 297.402 44.0755 297.853C43.2812 298.474 41.3686 298.619 40.6412 298.069L40.6333 298.061Z" fill="white"/>
<path d="M206.639 94.4154C205.749 95.053 204.246 94.8365 203.01 94.9837C203.125 93.7482 202.861 92.2616 203.467 91.356C203.927 90.6747 205.511 90.7471 207.65 90.2169C207.192 92.3635 207.304 93.9391 206.639 94.4154Z" fill="white"/>
<path d="M68.6902 121.714C68.1605 121.313 68.2616 119.082 68.8807 118.463C69.5721 117.772 71.1552 117.94 73.4605 117.543C72.9288 119.842 72.9991 121.649 72.2864 122.062C71.3814 122.588 69.552 122.367 68.6822 121.722L68.6902 121.714Z" fill="white"/>
<path d="M73.1867 219.222C72.9118 219.655 70.699 219.549 70.0995 218.949C69.4212 218.271 69.563 216.772 69.1464 214.539C71.4352 215.026 73.2122 214.906 73.6671 215.634C74.1767 216.465 73.8093 218.237 73.1869 219.206L73.1867 219.222Z" fill="white"/>
<path d="M276.49 77.3493C275.327 77.4082 273.761 77.9488 273.089 77.4058C272.314 76.7761 272.322 75.1913 271.736 73.1265C273.908 73.3366 275.615 73.0336 276.071 73.6503C276.7 74.5203 276.398 76.084 276.498 77.3412L276.49 77.3493Z" fill="white"/>
<path d="M91.5661 133.655C92.104 134.032 92.0988 136.23 91.5113 136.881C90.8431 137.628 89.2672 137.547 87.0164 138.078C87.4604 135.789 87.3097 134.062 88.0315 133.529C88.8175 132.949 90.6957 133.074 91.558 133.663L91.5661 133.655Z" fill="white"/>
<path d="M36.3813 234.873C35.7653 234.337 35.6095 232.316 36.1412 231.674C36.818 230.855 38.3876 230.768 39.5621 230.367C39.8702 230.627 40.1782 230.886 40.4863 231.146C40.2202 232.327 40.3088 233.879 39.5773 234.595C38.9582 235.214 36.9656 235.393 36.3734 234.865L36.3813 234.873Z" fill="white"/>
<path d="M71.0853 301.385C70.3476 301.917 68.5033 301.585 67.6253 300.964C67.1506 300.634 67.2911 298.443 67.8856 297.895C68.6569 297.187 70.169 297.284 72.4352 296.801C71.832 299.092 71.8713 300.804 71.0853 301.385Z" fill="white"/>
<path d="M-8.65279 127.815C-9.26326 128.362 -11.2773 128.294 -11.8371 127.702C-12.5309 126.976 -12.3488 125.421 -12.7251 123.147C-10.4858 123.811 -8.90923 123.827 -8.2638 124.618C-7.75201 125.226 -8.00229 127.243 -8.64491 127.823L-8.65279 127.815Z" fill="white"/>
<path d="M7.44907 303.969C7.95949 304.721 7.46792 306.159 7.40126 307.299C6.26338 307.206 4.80326 307.499 4.10822 306.9C3.46051 306.349 3.6581 304.842 3.29659 302.679C5.42502 303.28 6.96217 303.257 7.44118 303.962L7.44907 303.969Z" fill="white"/>
<path d="M85.984 285.681C85.4763 285.479 85.6697 283.582 85.4574 281.633C87.3349 281.822 88.8826 281.537 89.4262 282.145C90.0013 282.8 90.0603 284.95 89.5633 285.289C88.6495 285.919 86.9994 286.086 85.984 285.681Z" fill="white"/>
<path d="M22.3772 126.49C21.6792 127.03 19.6571 126.97 19.1771 126.377C18.6182 125.69 18.6528 123.746 19.2484 123.088C19.8279 122.445 21.4416 122.74 23.3626 122.555C22.9629 124.374 23.0752 125.95 22.3772 126.49Z" fill="white"/>
<path d="M237.274 0.45649C236.73 -0.0240541 236.829 -2.07956 237.425 -2.75419C238.012 -3.42079 239.579 -3.23672 241.366 -3.54053C241.062 -1.67418 241.261 -0.0435941 240.571 0.536386C239.904 1.10817 237.946 1.04731 237.274 0.45649Z" fill="white"/>
<path d="M-1.43495 269.581C-2.58876 269.489 -3.98484 269.749 -4.79957 269.175C-5.34535 268.79 -5.05174 267.235 -5.17998 265.659C-3.55729 265.851 -1.94638 265.612 -1.60146 266.182C-1.08392 267.022 -1.45567 268.419 -1.443 269.589L-1.43495 269.581Z" fill="white"/>
<path d="M105.406 14.1034C105.24 15.5941 105.458 16.9856 104.961 17.3249C104.167 17.866 102.902 17.7109 101.85 17.8484C101.932 16.7089 101.761 15.4443 102.217 14.4684C102.412 14.0525 103.931 14.237 105.406 14.1034Z" fill="white"/>
<path d="M24.0747 78.996C23.274 79.4497 21.8312 79.5989 21.1508 79.1435C20.5969 78.7666 20.7619 77.3396 20.4612 75.479C22.2491 75.8839 23.5159 75.8161 24.02 76.4005C24.4847 76.9296 24.4591 78.7694 24.0828 78.988L24.0747 78.996Z" fill="white"/>
<path d="M-30.3419 223.87C-31.0476 224.386 -32.3586 224.072 -33.4101 224.114C-33.4081 223.071 -33.7779 221.768 -33.2775 221.079C-32.8499 220.493 -31.4177 220.623 -29.6546 220.296C-29.942 222.034 -29.7726 223.458 -30.3419 223.87Z" fill="white"/>
<path d="M52.6098 75.4337C51.6863 75.4107 50.5846 75.692 49.9037 75.2844C49.4127 75.0024 49.4799 73.7993 49.1361 72.2816C50.7502 72.5449 51.9299 72.4221 52.5142 72.9421C52.9485 73.3281 52.6101 74.5657 52.6178 75.4256L52.6098 75.4337Z" fill="white"/>
</g>
<defs>
<clipPath id="clip0_8_410">
<rect width="212" height="206" fill="white"/>
</clipPath>
</defs>
</svg>
