<svg width="194" height="196" viewBox="0 0 194 196" fill="none" xmlns="http://www.w3.org/2000/svg">
<g clip-path="url(#clip0_8_389)">
<path d="M245.469 89.0543C246.302 89.618 246.91 90.0039 247.4 90.2243L244.335 93.289C244.042 92.7126 243.428 92.1732 242.901 91.6216L245.469 89.0543Z" fill="white"/>
<path d="M253.582 75.0573C258.179 79.1757 259.577 73.5235 262.407 72.2997L263.872 73.7647L256.091 81.5461L251.592 77.0472L253.582 75.0573Z" fill="white"/>
<path d="M58.8495 66.3439L61.515 63.6784L66.351 68.5144C65.325 69.9327 63.1705 70.8614 65.1072 73.0069C67.4054 75.5508 68.0104 71.8566 69.9553 71.9099L75.2082 77.1627L78.2053 74.1656C76.6729 72.6333 75.2203 71.1806 73.7676 69.728C73.026 68.9863 72.6831 68.2504 73.6289 67.3782C74.4395 66.6288 75.2441 65.7139 76.3475 66.7803C78.8483 69.2075 81.2878 71.696 83.9908 74.3991L78.3343 80.0556L81.0925 82.8138L86.6815 77.2248C85.8419 76.2011 85.0943 75.2815 84.2119 74.1903C85.2313 73.2935 86.1709 72.4642 87.1104 71.635C86.1605 70.55 85.2167 69.471 84.2974 68.4044C85.2066 67.3236 85.9745 66.421 86.9389 65.2727L81.5328 59.8666C82.6333 57.6383 83.8602 57.7597 85.2087 59.0714C86.5327 60.3708 87.8198 61.7071 89.1315 63.0187C91.5036 65.3908 93.8879 67.7506 96.2477 70.1349C97.3632 71.2505 97.9696 72.3481 96.3485 73.6627C95.1019 74.6763 94.0392 75.9229 92.5714 77.3907C93.9265 78.2422 95.4467 79.6641 95.8826 79.3876C97.5279 78.3429 99.1675 76.9363 100.102 75.2665C100.612 74.3518 99.6933 72.647 99.3147 70.819C99.4437 70.6655 100.003 70.033 100.519 69.4434C100.256 68.5295 100.263 67.2104 99.7297 66.9348C97.7306 65.9183 99.0076 65.1317 99.7507 64.364C101.974 62.0671 104.246 59.8192 106.5 57.553C107.867 58.8707 109.29 60.1455 110.595 61.5247C111.668 62.6464 112.538 63.2223 113.92 61.8281C115.37 60.3787 114.499 59.4715 113.5 58.4602C112.213 57.173 110.932 55.892 109.534 54.4945C110.677 53.4626 111.543 52.6825 112.482 51.8287C114.039 53.3856 115.412 54.734 116.76 56.107C117.735 57.1061 118.575 57.2218 119.62 56.1041C121.321 54.2679 123.108 52.5175 124.926 50.7977C125.595 50.1651 126.479 49.7715 127.363 49.1939C127.962 51.672 129.109 51.7261 132.106 49.7107C132.725 50.2193 133.368 50.7525 134.067 51.3285C134.393 51.1625 134.73 51.0333 135.007 50.8306C136.364 49.8414 137.954 48.9256 135.882 47.0748C135.636 46.8542 135.815 45.9152 136.067 45.4425C136.387 44.8409 136.964 44.3741 137.646 43.6064L132.166 38.1268L135.096 35.1972L142.733 42.8344C144.041 41.6858 145.374 40.5739 146.651 39.3823C148.579 37.5888 149.88 37.7471 151.307 40.0833C150.576 40.9245 149.839 41.7842 148.979 42.7791C149.819 43.7906 150.621 44.753 151.596 45.9117L145.952 51.5559L148.796 54.3999L154.501 48.6942C153.968 48.0996 153.527 47.6461 153.135 47.1434C152.749 46.6591 152.424 46.1256 151.964 45.4696L154.562 42.8716L160.33 48.6393L163.419 45.5501L157.645 39.7762L160.409 37.0125C159.668 36.2708 159.171 35.7744 158.675 35.2779C157.725 34.3033 156.646 33.4209 155.898 32.3172C155.561 31.8206 155.893 30.8631 155.919 30.1145C156.612 30.1445 157.367 30.0149 157.968 30.2597C158.501 30.474 158.881 31.0994 159.414 31.6326C160.52 30.9198 161.521 29.7838 162.527 29.7705C163.484 29.7573 164.446 30.9281 165.415 31.5775C162.816 34.8994 163.362 34.8314 165.022 37.5723C164.61 38.7323 163.676 40.1567 164.019 40.5859C165.478 42.4619 167.305 44.0552 169.015 45.7653C169.991 44.9483 170.679 44.3709 171.348 43.8119C174.229 46.165 175.107 46.1335 177.239 43.3397C176.062 42.1629 174.842 40.9431 173.622 39.7234C171.618 37.7068 171.809 36.7066 174.449 35.305C175.393 36.0158 176.337 36.7266 177.349 37.4802L180.088 34.741L174.48 29.1327L177.385 26.2277C180.86 29.703 184.268 33.0373 187.553 36.5067C187.915 36.8929 187.766 38.1201 187.428 38.7156C186.955 39.5566 186.071 40.1711 185.371 40.8835C183.964 42.3145 182.503 43.6903 181.194 45.2071C180.826 45.6369 180.591 46.7047 180.855 47.0542C181.253 47.5876 182.179 48.0591 182.811 47.991C183.738 47.8857 184.769 47.4552 185.475 46.8348C187.139 45.379 188.595 43.678 190.216 42.1671C191.383 41.0861 191.274 40.1168 190.287 39.0686C189.901 38.6579 189.49 38.2718 188.871 37.6527C189.977 36.5472 190.978 35.5461 191.973 34.5512C193.696 32.8438 193.796 31.1216 192.272 29.3848C192.186 29.299 192.211 29.1272 192.144 28.7898C193.323 27.6106 194.527 26.2841 195.866 25.1293C196.48 24.601 197.382 24.3976 198.155 24.0533C198.418 25.0654 199.233 26.5923 198.852 26.9976C197.206 28.7417 198.223 29.8451 199.707 31.1934C198.595 32.3051 197.594 33.3062 196.593 34.3073C194.865 36.0351 194.8 37.8165 196.397 39.6515C196.483 39.7373 196.465 39.9152 196.52 40.1422C195.789 40.9958 195.021 41.8862 194.204 42.838L197.054 45.6881C198.91 42.9376 200.811 43.0829 202.49 45.6336L208.343 39.7806C205.708 36.6664 205.795 35.9546 209.816 33.0608C211.812 31.6169 212.288 33.8866 213.404 34.7812C212.703 35.6164 212.126 36.3041 211.426 37.1515C213.712 38.9347 214.287 40.8238 211.641 42.6242L222.656 53.6386C224.435 53.1951 226.142 52.2731 226.681 52.7265C228.373 54.1728 229.631 54.0795 230.94 52.5627C231.191 52.6422 231.363 52.6421 231.455 52.734C237.486 58.7285 243.523 64.7168 249.481 70.785C249.843 71.1466 249.609 72.1899 249.491 72.8833C249.399 73.4663 248.741 74.3688 248.895 74.5098C250.93 76.3729 250.093 78.1163 248.668 79.7988L253.241 84.3713L250.102 87.5097C248.663 85.3453 248.123 85.4686 244.771 87.6685C244.096 87.117 243.397 86.5409 242.57 85.8607L239.892 88.5385C240.603 89.3844 241.191 90.071 241.749 90.7392C240.741 92.1514 240.206 93.0784 240.083 93.8025C241.132 93.9794 242.193 94.144 243.248 94.2656L241.381 96.1327C241.381 96.1327 241.412 96.1634 241.43 96.1695L235.725 101.875C235.725 101.875 235.694 101.844 235.682 101.832L229.706 107.808C193.016 71.1177 133.477 71.1774 96.7129 107.941C59.9489 144.705 59.8892 204.244 96.5795 240.935L91.4573 246.057L91.5003 246.1L63.1074 274.493L61.477 272.862L67.0597 267.279L64.1054 264.325C61.1643 266.445 60.2686 266.384 58.7496 263.833L64.1235 258.459C63.5966 257.785 63.2534 257.344 62.898 256.902C62.5058 256.412 62.1198 255.915 61.7276 255.425C61.2794 255.726 60.7822 255.978 60.3953 256.353C58.3747 258.324 58.3809 258.33 56.3582 256.308C55.1262 255.076 53.888 253.837 52.3618 252.311L46.6869 257.986C45.0604 256.605 44.9865 254.767 46.4654 252.471C45.0073 250.365 45.2384 248.353 47.1587 246.433C48.9643 244.627 50.7761 242.815 52.4466 241.145C52.2938 240.635 52.2939 240.464 52.2081 240.366C51.1662 239.287 50.1181 238.214 49.0639 237.16C47.5254 235.621 46.2799 235.604 44.7384 237.121C43.4855 238.35 42.2571 239.602 41.0472 240.812C39.4697 239.456 39.3197 238.131 40.5972 236.837C41.0516 236.383 41.5061 235.928 41.9606 235.474C43.6516 233.783 43.7393 232.028 42.2236 230.209C42.1501 230.123 42.1871 229.939 42.1749 229.804C44.675 226.85 44.6264 226.347 41.579 224.442C40.7561 225.167 39.9148 225.91 38.8279 226.875L33.2072 221.254L30.3391 224.122L24.6143 218.397C25.29 217.599 25.941 217.01 26.3528 216.279C26.5986 215.837 26.7407 214.874 26.4955 214.677C24.6011 213.164 24.9277 211.771 26.4753 210.284C26.6964 210.063 26.7582 209.683 26.8689 209.437C26.2622 208.683 25.7414 208.04 25.0183 207.132C26.1603 206.334 27.1427 205.633 27.8365 205.148C28.75 205.803 29.4916 206.606 29.7616 206.471C30.6456 206.016 31.5789 205.353 32.0399 204.524C32.2919 204.076 31.7653 203.033 31.3548 202.414C30.8525 201.654 30.0923 201.065 29.4426 200.391C27.7326 198.595 27.825 198.184 29.8386 197.09C30.961 197.5 31.8316 198.063 32.7396 198.111C35.4452 198.25 36.3681 195.697 37.9342 194.204C38.1676 193.971 37.2796 192.297 36.63 191.524C36.3726 191.218 35.1945 191.305 34.7279 191.637C33.7516 192.331 32.9776 193.313 32.0993 194.155C30.5087 195.684 29.2755 195.679 27.737 194.153C26.5969 193.013 25.4569 191.873 24.323 190.739C23.4571 191.482 22.8615 191.992 22.2965 192.483C18.9544 190.775 18.875 190.389 21.4054 187.821C22.3451 186.869 23.2909 185.936 24.2674 184.959C23.2992 183.819 22.5331 182.93 21.5955 181.821L32.976 170.44C31.9894 169.257 31.1804 168.288 30.347 167.295C31.2622 166.245 32.0854 165.3 32.8532 164.421C31.9462 163.342 31.2169 162.478 30.4877 161.614C30.7457 161.233 30.8626 160.969 31.0592 160.773C32.3366 159.52 33.2949 158.341 31.3576 156.772C31.0327 156.508 31.1445 155.183 31.5131 154.68C32.4162 153.47 32.7239 152.586 31.4428 151.391C28.8377 148.945 26.3615 146.371 23.8362 143.834C21.881 141.878 21.918 141.706 24.386 140.096C24.5945 140.244 24.8336 140.384 25.0359 140.574C27.2611 142.615 27.3592 142.615 29.521 140.515C29.7667 140.269 30.0185 140.042 30.2764 139.808C29.357 138.889 28.4376 137.97 27.3956 136.928L33.1319 131.191C34.1863 132.135 35.118 132.968 36.062 133.814L38.7029 131.173C37.8635 130.1 37.0914 129.107 36.1661 127.912L38.8132 125.265L41.5224 127.974C44.813 125.946 44.8319 125.473 41.9024 122.175C44.3038 119.762 44.2978 119.743 42.1659 116.432L46.9748 111.624C47.9557 112.469 48.8507 113.229 49.7579 114.014C50.851 113.117 51.7659 112.361 52.644 111.642C54.6223 113.105 56.5958 113.154 58.5646 111.79C58.1479 111.25 57.7804 110.662 57.3023 110.184C54.8629 107.707 52.3927 105.262 49.9226 102.792C50.973 101.57 51.7899 100.618 52.6806 99.5799C52.1535 99.0528 51.7428 98.6667 51.3567 98.256C50.9338 97.7962 50.5478 97.2996 50.1617 96.8399C51.2842 95.1535 53.1372 95.033 55.7208 96.4784L58.46 93.7392C57.9268 93.206 57.5099 92.826 57.1238 92.4031C56.7071 91.9372 56.3333 91.4283 55.9718 90.9685C57.6554 88.5126 58.226 88.4936 61.537 90.65L69.4474 82.7395C66.3337 79.6258 63.4102 76.5794 60.3453 73.6988C59.0826 72.5098 58.8198 71.4732 60.1216 70.3429C61.2024 69.4093 60.8106 68.6243 60.1733 67.7783C59.8057 67.2878 59.3582 66.8526 58.8495 66.2702L58.8495 66.3439ZM231.096 68.2327C232.052 69.2993 232.799 70.1329 233.682 71.1137C232.846 72.1208 232.042 73.0726 231.151 74.1472L233.848 76.8441L236.612 74.0804C235.852 73.1731 235.049 72.2229 234.271 71.2972C236.329 68.3685 236.875 68.3127 239.204 70.6542C239.358 70.8074 239.505 70.9545 239.658 71.1077C241.501 72.9833 241.613 74.9793 239.995 77.0957L242.588 79.6884C245.652 77.7035 245.683 77.2433 243.06 74.2273C243.091 74.0861 243.079 73.9144 243.159 73.8222C244.702 72.0332 244.643 70.3113 242.98 68.6563C241.417 67.0934 239.829 65.5427 238.291 63.9551C237.341 62.9683 236.494 62.736 235.45 63.8659C234.099 65.3275 232.649 66.6911 231.096 68.2449L231.096 68.2327ZM214.32 63.1999C215.718 64.5974 217.091 65.8354 218.292 67.2086C219.456 68.5449 220.206 67.7343 221.09 66.9358C222.054 66.0697 222.374 65.2595 221.191 64.322C220.872 64.0646 220.658 63.6783 220.419 63.3779C222.729 59.817 222.717 59.5838 219.983 57.5373L214.314 63.2061L214.32 63.1999ZM214.356 57.5614C215.431 56.3516 216.211 55.4735 217.084 54.5032L211.389 48.809C210.923 49.1899 210.616 49.4724 210.272 49.7182C208.682 50.8794 208.386 51.9718 210.127 53.3812C211.598 54.57 212.842 56.0352 214.369 57.5614L214.356 57.5614ZM201.112 61.7591C201.903 62.4271 202.693 63.2914 203.805 62.1307C205.279 60.5953 206.808 59.1151 208.436 57.4876L205.5 54.5516C203.86 56.1914 202.324 57.7514 200.758 59.293C199.727 60.3002 200.296 61.0788 201.118 61.7652L201.112 61.7591ZM168.673 68.3566C169.586 69.3558 170.346 70.1894 171.4 71.3296C172.328 70.3163 173.801 69.4068 173.79 68.511C173.778 67.5539 172.38 66.6104 171.486 65.5314L168.673 68.3443L168.673 68.3566ZM187.088 53.4841C188.314 54.7591 189.589 55.9848 190.925 57.321C189.721 58.5003 188.456 59.7532 189.394 61.1941C190.417 62.7576 191.783 64.3086 193.371 65.2089C194.021 65.5764 195.643 64.2372 196.735 63.7207C196.129 62.2917 195.627 61.421 195.407 60.4886C195.273 59.9243 195.366 59.0345 195.728 58.6845C196.79 57.6833 196.625 56.9165 195.688 56.0033C193.751 54.1032 191.894 52.1111 189.914 50.2663C189.166 49.5676 188.253 48.4334 187.067 49.7783C185.986 51.0064 185.924 52.2704 187.094 53.478L187.088 53.4841ZM179.024 49.9274C178.326 48.517 176.797 49.2486 176.023 49.9489C175.274 50.6245 174.567 51.8707 175.952 53.4523C176.989 53.4328 178.707 53.7502 178.91 53.3266C179.371 52.3751 179.483 50.8657 179.017 49.9336L179.024 49.9274ZM164.584 64.5015C165.798 65.5556 166.977 65.2231 167.953 64.4183C169.396 63.2205 168.072 62.326 167.355 61.4248C166.27 60.0577 165.404 60.8746 164.452 61.8388C163.384 62.662 163.444 63.5087 164.584 64.5015ZM166.41 54.7565C167.851 56.1969 169.181 57.5637 170.548 58.8815C171.363 59.6599 172.491 60.3705 173.198 59.0997C173.69 58.2157 173.888 56.608 173.397 55.8477C172.43 54.3393 170.897 53.1874 169.438 51.7286L166.404 54.7626L166.41 54.7565ZM160.158 54.6216C157.91 51.2064 157.162 51.1949 154.912 54.6576L157.517 57.2625L160.158 54.6216ZM144.073 65.3013C143.833 65.8844 143.954 67.0991 144.347 67.3564C145.064 67.8281 146.272 68.1889 146.984 67.8937C148.691 67.1802 148.613 65.628 148.08 64.0885C146.449 63.5257 144.866 63.3923 144.073 65.3013ZM70.5415 258.257C70.7306 259.306 72.1839 260.12 73.0727 261.009C75.5596 258.951 75.4934 257.62 72.7468 255.573C71.9667 256.464 70.4072 257.521 70.5415 258.269L70.5415 258.257ZM73.4032 249.572C73.7518 250.67 74.8799 251.516 75.5785 252.325C77.9724 251.279 77.6733 249.789 77.3065 248.476C77.1781 248.016 76.0069 247.348 75.7306 247.502C74.7975 248.031 73.2625 249.149 73.397 249.578L73.4032 249.572ZM58.454 252.679C59.5697 253.623 60.6548 254.536 61.7399 255.449C62.477 254.528 63.2081 253.613 64.0743 252.526L61.3406 249.793L58.454 252.679ZM72.285 238.897C73.8418 240.454 75.2209 241.882 76.6491 243.249C77.9302 244.481 78.9372 243.646 79.9627 242.755C80.497 242.294 80.6385 241.883 80.5653 241.503C80.4733 241.411 80.3875 241.313 80.3017 241.215C80.1915 240.957 80.0262 240.681 79.8301 240.387C79.7995 240.356 79.7689 240.326 79.7321 240.289C78.2856 238.842 76.8329 237.39 75.1289 235.686C74.0417 236.908 73.2186 237.841 72.2788 238.904L72.285 238.897ZM61.7606 216.434C61.6437 216.734 62.8511 218.052 63.4217 218.033C64.6059 217.989 65.7661 217.356 66.9322 216.975C66.908 216.68 66.8715 216.386 66.8473 216.091L63.899 213.143C63.0941 214.303 62.2158 215.28 61.7544 216.428L61.7606 216.434ZM49.9868 216.182C51.7816 219.057 53.0884 219.111 55.429 216.195L52.7014 213.467L49.9868 216.182ZM55.6617 210.445C58.2111 213.486 58.3706 213.498 60.8764 210.992C61.2326 210.636 61.5827 210.286 61.9389 209.93C62.7557 209.113 63.3146 208.542 63.6035 208.057C63.1381 207.137 62.6604 206.229 62.1705 205.322C61.9314 205.132 61.6862 204.936 61.4042 204.703L55.6617 210.445ZM43.8816 204.328C42.8762 203.544 41.9569 202.514 40.8283 202.134C40.4542 202.006 38.974 203.523 38.9671 204.302C38.9476 205.327 39.8731 206.375 40.5344 207.687L43.8939 204.328L43.8816 204.328ZM52.4129 207.442L49.7467 204.776L47.0321 207.491L49.6984 210.157L52.4129 207.442ZM30.959 211.66C29.4598 213.809 32.1469 214.015 32.8017 215.714C34.5041 212.884 36.2397 213.637 38.2447 214.905C38.7414 215.217 40.0001 214.314 41.2768 213.834C43.4597 215.166 45.2167 214.974 46.5477 213.258L43.8324 210.543C42.5485 212.084 41.3517 212.546 39.6537 210.983C38.109 209.561 37.0885 211.538 35.9895 212.257C33.2 210.13 32.1572 209.96 30.9713 211.66L30.959 211.66ZM45.7255 188.877C46.5035 190.097 47.3996 189.789 48.3087 188.745C49.0458 187.91 50.0895 187.173 48.7348 185.978C47.6498 185.016 46.6933 184.305 45.2931 185.595C43.8806 186.897 44.6651 187.78 45.7255 188.877ZM35.8694 185.175C37.0099 185.934 37.9537 186.94 39.0395 187.141C39.5793 187.239 40.9796 185.863 40.9558 185.188C40.92 184.157 39.9884 183.164 39.2473 181.797L35.8633 185.181L35.8694 185.175ZM30.2804 184.732C30.8147 184.198 31.3122 183.701 31.8097 183.203C32.1536 182.859 32.4608 182.491 32.8662 182.049L30.1693 179.352C26.7434 181.638 26.7365 182.38 30.2866 184.726L30.2804 184.732ZM62.8676 109.828C62.4814 109.454 62.1689 109.007 61.8258 108.59C60.7387 109.677 59.6639 110.764 58.583 111.857C59.0121 112.188 59.4842 112.488 59.8581 112.874C61.0594 114.125 62.0478 113.615 63.1225 112.626C64.3261 111.52 63.787 110.699 62.8798 109.828L62.8676 109.828ZM48.5178 126.985C48.094 127.495 48.2709 128.519 48.1099 129.98C49.7113 129.96 50.9933 130.308 51.4171 129.848C52.2954 128.908 52.7508 127.521 51.5556 126.326C50.2562 125.026 49.2427 126.126 48.524 126.979L48.5178 126.985ZM108.585 65.3614C107.99 64.7668 107.396 64.1723 106.599 63.3755C105.85 64.1248 105.328 64.61 104.855 65.132C104.529 65.4943 104.265 65.9056 103.933 66.36C104.454 66.9424 105.128 67.3957 105.343 68.0029C105.545 68.5733 105.439 69.414 105.144 69.9542C104.56 71.0162 103.541 71.9253 104.718 73.188C105.894 74.463 107.073 73.652 108.252 73.1967C108.313 73.1721 108.35 73.0985 108.405 73.0432C112.613 68.5662 113.163 70.0259 108.591 65.3675L108.585 65.3614ZM123.073 62.8374C121.168 59.8391 120.334 59.7295 118.037 62.0264C117.736 62.3274 117.435 62.6283 117.134 62.9293C114.579 65.4842 114.615 65.9137 117.638 68.2728L123.079 62.8313L123.073 62.8374ZM145.915 45.6474C144.774 44.6791 143.757 43.8089 142.733 42.9326C142.598 43.1536 142.493 43.4052 142.315 43.5956C140.079 46.0152 140.11 46.3772 142.967 48.6077L145.921 45.6535L145.915 45.6474ZM123.203 80.2008L120.445 77.4426C117.449 79.274 117.227 79.8509 119.808 82.3209C120.403 82.0442 121.005 81.7737 121.607 81.5031C121.791 81.417 121.981 81.3248 122.171 81.2326L123.203 80.2008ZM107.935 89.5972C107.824 89.6833 107.707 89.7877 107.585 89.8983C109.359 88.8473 108.806 89.081 107.935 89.5972ZM55.534 142.108L52.8316 144.811L55.6266 147.606L58.3289 144.903L55.534 142.108ZM39.0364 159.685C38.9683 160.268 40.1695 161.592 40.6359 161.518C41.7527 161.345 42.772 160.546 44.1655 159.827L40.6411 156.302C39.9772 157.604 39.1724 158.605 39.0425 159.691L39.0364 159.685ZM132.513 59.7357C132.935 60.6985 134.044 62.2251 134.578 62.108C135.707 61.8615 136.641 60.7194 137.648 59.9453C137.612 59.5649 137.587 59.1845 137.551 58.8042C136.318 58.4802 135.079 57.9415 133.846 57.9366C133.374 57.931 132.347 59.3738 132.513 59.7357ZM33.0401 137.13L30.3009 139.87C30.6196 140.237 30.9137 140.63 31.2631 140.955C32.3297 141.923 32.6846 142.843 31.4196 143.985C30.916 144.44 30.6821 145.176 30.301 145.827L37.8401 153.366C38.3313 153.059 38.8347 152.801 39.2768 152.469C41.082 151.081 41.1008 150.645 39.452 148.996L33.2185 142.763C34.0662 141.817 34.8401 140.945 35.7922 139.883C37.8263 142.691 39.7967 141.836 41.8173 139.803C42.4975 140.594 43.0797 141.274 43.6619 141.955C43.846 141.905 44.0608 141.887 44.202 141.782C47.0264 139.669 47.0817 139.663 49.9203 141.813C52.4015 139.332 54.9379 136.845 57.407 134.302C58.1808 133.504 58.1266 132.565 57.1087 131.977C56.0663 131.377 54.9623 130.899 53.8752 132.023C52.5977 133.35 51.2711 134.627 49.7603 136.138C48.4486 134.826 47.198 133.76 46.1808 132.51C44.9981 131.057 44.0223 131.297 42.8677 132.488C41.3752 134.03 39.8275 135.516 38.286 137.021C36.0321 139.226 35.4492 139.245 33.0278 137.143L33.0401 137.13ZM46.9783 144.878C45.7093 143.781 44.6795 142.886 43.6496 141.991C42.9063 142.906 42.1507 143.821 41.2661 144.902C42.0383 145.822 42.7859 146.729 43.7174 147.845C44.8289 146.831 45.7869 145.959 46.9783 144.878ZM91.891 70.6056C91.0647 68.6615 89.8684 68.4847 88.3514 69.9894C87.8785 70.4623 87.5527 71.0701 87.1656 71.6288L89.7829 74.2461C90.7843 72.975 92.7051 72.5374 91.891 70.6056ZM58.5953 105.654C59.6926 106.629 60.7469 107.572 61.8136 108.516C62.5507 107.607 63.2879 106.699 64.148 105.63C63.3145 104.686 62.4933 103.767 61.5433 102.694L58.5892 105.648L58.5953 105.654ZM68.0163 90.4472C67.6476 90.9997 67.8915 92.5334 68.4064 92.9992C69.8408 94.2984 71.0873 93.2971 72.1624 91.9524C75.3933 94.4217 75.9271 94.4027 77.9482 91.9158C76.2212 88.7271 75.8164 88.6171 73.0963 90.6262C71.4035 90.0389 69.6876 87.9422 68.0224 90.441L68.0163 90.4472Z" fill="white"/>
<path d="M27.1765 227.003C28.3125 226.014 29.3197 225.142 30.3206 224.276C31.0867 225.165 31.8527 226.053 32.6923 227.028C31.8323 228.072 31.0337 229.042 30.1982 230.062C31.1052 231.116 31.908 232.066 32.6986 232.98C30.5362 235.632 30.5669 235.589 28.0041 233.788C27.6056 233.512 26.63 233.532 26.2554 233.833C25.0949 234.773 24.063 235.878 23.0373 236.977C21.9686 238.132 20.6866 237.722 19.8283 237.073C18.6757 236.202 19.1738 235.067 20.1748 234.176C20.531 233.857 20.8198 233.445 21.2436 232.96C20.6676 232.311 19.9686 231.82 19.6993 231.146C19.43 230.483 19.2777 229.373 19.6402 228.937C20.9916 227.316 22.576 225.891 24.0991 224.368C25.2578 225.354 26.208 226.157 27.1888 226.991L27.1765 227.003Z" fill="white"/>
<path d="M30.3753 224.22C30.3753 224.22 30.3347 224.26 30.3144 224.281C30.3009 224.267 30.2806 224.247 30.2671 224.233L30.3752 224.233L30.3753 224.22Z" fill="white"/>
<path d="M252.838 64.0203C251.665 65.4142 250.199 65.1273 249.304 64.3183C246.324 61.6585 243.493 58.8267 240.833 55.8475C240.318 55.2713 240.504 53.4796 241.039 52.6998C241.991 51.2938 242.836 52.6673 243.572 53.3292C244.32 53.9911 244.994 54.7267 245.705 55.4377C247.292 57.0252 248.88 58.6127 250.461 60.1941C251.72 59.1437 252.635 58.3881 253.581 57.5895C254.016 57.9633 254.365 58.2023 254.653 58.5026C255.279 59.1523 255.879 59.8389 256.486 60.5071C255.252 61.6679 253.919 62.7307 252.832 64.0141L252.838 64.0203Z" fill="white"/>
<path d="M38.9391 244.453C39.8235 243.568 40.7079 242.684 41.58 241.812L43.7559 243.988C42.7241 245.02 41.7783 245.965 40.8325 246.911C39.0473 248.696 38.982 250.547 40.6367 252.464C38.4925 255.356 38.198 255.393 35.924 253.131C34.7165 251.924 33.5274 250.698 32.3199 249.491C30.2176 247.388 30.3719 246.437 33.0546 244.931C35.7337 247.082 36.3534 247.038 38.9329 244.459L38.9391 244.453Z" fill="white"/>
<path d="M17.4627 191.482C16.2463 193.054 16.7672 193.71 17.76 194.838C18.857 196.082 19.8619 197.443 20.6642 198.884C20.8908 199.283 20.4112 200.302 19.9751 200.763C19.7172 201.02 18.6803 200.954 18.3555 200.641C15.7504 198.159 13.2312 195.591 10.614 192.974L15.4966 188.091C16.5202 189.127 18.9741 189.517 17.4566 191.476L17.4627 191.482Z" fill="white"/>
<path d="M122.809 44.5048C122.239 44.1556 121.609 42.7144 121.756 42.5793C123.881 40.6384 122.766 38.8847 121.528 37.1803L126.264 32.4451L128.856 35.0378C127.984 36.0449 127.253 36.8985 126.547 37.7152C127.386 38.9353 128.121 40.0021 128.875 41.0996C127.511 42.4631 126.455 43.7526 125.147 44.7049C124.65 45.0674 123.423 44.8846 122.809 44.5048Z" fill="white"/>
<path d="M18.4265 178.787C16.2931 177.01 16.1038 176.145 17.6027 174.315C18.3706 173.375 18.1195 172.842 17.3533 172.186C16.2008 171.206 15.8153 170.157 17.1234 168.959C17.5717 168.547 17.9219 168.026 18.3028 167.547L23.9786 173.222L18.4265 178.774L18.4265 178.787Z" fill="white"/>
<path d="M29.8827 116.359C29.1413 115.396 28.3998 114.434 27.5971 113.398C29.5747 111.42 31.3374 109.657 33.1062 107.889C35.4339 105.561 35.9308 105.64 37.6888 108.553L29.8827 116.359Z" fill="white"/>
<path d="M29.8284 116.408L29.8738 116.362C29.8738 116.362 29.9062 116.395 29.9256 116.414L29.8349 116.401L29.8284 116.408Z" fill="white"/>
<path d="M163.919 24.2963C161.688 22.057 161.744 19.75 164.086 17.3752C164.239 17.2217 164.38 17.0682 164.534 16.9146C165.791 15.6576 167.032 15.8139 168.258 17.3834C166.767 19.34 166.704 21.2952 168.068 23.249C166.102 25.9015 165.641 26.0186 163.925 24.2901L163.919 24.2963Z" fill="white"/>
<path d="M40.9762 60.7539L49.5757 69.3534L47.8315 71.0976L39.232 62.4982L40.9762 60.7539Z" fill="white"/>
<path d="M13.9397 156.047C12.8035 157.195 11.6979 158.375 10.5801 159.541L7.69928 156.661L13.2943 151.066C15.8817 152.867 15.9849 153.965 13.9336 156.041L13.9397 156.047Z" fill="white"/>
<path d="M47.0138 274.699C47.5655 275.25 48.4424 275.734 48.6012 276.385C48.8456 277.415 48.7217 278.581 48.4691 279.63C48.426 279.821 46.7753 280.025 46.3278 279.663C44.7155 278.321 43.2998 276.746 41.841 275.287C44.4149 272.174 44.4824 272.167 47.0138 274.711L47.0138 274.699Z" fill="white"/>
<path d="M225.209 40.7334L225.261 40.6815L225.255 40.7788C225.255 40.7788 225.222 40.7464 225.209 40.7334Z" fill="white"/>
<path d="M219.368 40.7328C222.451 37.7478 221.684 36.9203 225.202 40.7331L220.467 45.4683C217.07 43.6065 216.936 43.0913 219.368 40.7328Z" fill="white"/>
<path d="M11.2148 199.704C12.6496 200.537 13.9551 201.867 14.8004 203.289C15.2292 204.001 14.8288 205.602 14.2635 206.45C13.4032 207.727 12.5332 206.55 11.8589 205.912C10.4736 204.601 9.14968 203.228 7.68477 201.763C8.88221 200.749 9.35066 198.626 11.2086 199.71L11.2148 199.704Z" fill="white"/>
<path d="M83.4307 51.7167C84.0326 51.1149 84.5857 50.1326 85.273 50.0215C86.1751 49.8795 87.2852 50.2526 88.1314 50.7181C89.1432 51.2754 88.7927 52.0795 88.0619 52.7858C86.7906 54.008 85.5561 55.2793 84.2356 56.5998C81.3417 54.627 81.2626 53.8847 83.4368 51.7228L83.4307 51.7167Z" fill="white"/>
<path d="M37.0765 260.205C38.1064 261.026 37.6517 261.726 36.8779 262.463C35.6005 263.666 34.3783 264.938 33.0455 266.27C30.0171 263.782 30.005 263.623 32.3941 261.234C32.9469 260.681 33.469 260.098 34.0278 259.551C35.3483 258.28 36.1815 259.481 37.0766 260.192L37.0765 260.205Z" fill="white"/>
<path d="M42.3415 265.592C42.838 266.052 43.26 267.408 42.959 267.782C41.7488 269.311 40.2565 270.619 38.801 272.075L35.9631 269.237C37.4555 267.745 38.6779 266.326 40.1147 265.208C40.5384 264.882 41.8511 265.151 42.3354 265.598L42.3415 265.592Z" fill="white"/>
<path d="M105.078 32.5092C104.679 32.0372 104.889 31.0676 104.822 30.3252C105.552 30.3061 106.553 29.9799 106.97 30.3353C108.576 31.6835 109.985 33.2528 111.671 34.9384C110.768 35.7431 110.123 36.3266 109.423 36.9531C107.823 35.3533 106.34 34.0296 105.078 32.5092Z" fill="white"/>
<path d="M94.986 61.749C93.2512 60.2353 91.6761 58.5373 90.0763 56.9375C91.1827 54.9608 92.2139 54.5303 93.6418 56.1302C94.7266 57.3501 95.9833 58.4102 97.0066 59.6793C97.2824 60.0164 97.1709 61.0964 96.8454 61.3851C96.4094 61.7598 95.2986 62.0248 94.9921 61.7551L94.986 61.749Z" fill="white"/>
<path d="M150.988 27.469C149.456 26.3784 148.224 24.8642 146.814 23.4544L148.915 21.354L153.628 26.0674C153.658 26.3435 153.695 26.6134 153.725 26.8895C152.793 27.1113 151.503 27.8366 150.988 27.469Z" fill="white"/>
<path d="M11.9971 92.5158C13.3087 93.8643 12.7001 95.1227 11.509 95.9092C9.31104 97.3471 9.09275 94.7459 7.76822 94.011C10.0471 91.3643 10.6916 91.1734 11.9971 92.5158Z" fill="white"/>
<path d="M100.701 46.4719C101.695 46.52 102.633 47.7891 103.65 48.5735L100.733 51.4907L97.9932 48.7509C98.9942 47.848 99.8792 46.4359 100.701 46.4719Z" fill="white"/>
<path d="M73.0535 29.2405C73.3859 28.1603 74.4299 27.288 75.2162 26.2933L78.5444 29.6215C77.059 30.3225 75.9844 31.1764 74.8922 31.202C74.248 31.2211 72.9119 29.7131 73.0535 29.2405Z" fill="white"/>
<path d="M259.329 51.8409L262.057 54.5685C261.197 55.5756 260.466 56.4169 259.747 57.2581C258.742 56.3388 257.737 55.4195 256.701 54.4695L259.329 51.8409Z" fill="white"/>
<path d="M39.3466 119.521C39.3466 119.521 39.3259 119.542 39.3121 119.556C39.2983 119.542 39.2845 119.528 39.2708 119.515L39.3466 119.521Z" fill="white"/>
<path d="M38.7481 125.257C38.7481 125.257 38.7752 125.23 38.7954 125.21C38.8157 125.23 38.8359 125.251 38.8562 125.271L38.7549 125.251L38.7481 125.257Z" fill="white"/>
<path d="M41.87 122.257C41.87 122.257 41.8312 122.218 41.8182 122.205L41.8507 122.173L41.87 122.257Z" fill="white"/>
<path d="M36.1228 122.206C37.3079 121.217 38.3088 120.388 39.3098 119.546C40.1433 120.429 40.983 121.317 41.8165 122.2C40.8093 123.207 39.8021 124.215 38.7948 125.222C37.9552 124.272 37.1156 123.322 36.1228 122.206Z" fill="white"/>
<path d="M29.9196 116.42C29.9196 116.42 29.8936 116.446 29.8806 116.459C29.8612 116.44 29.8478 116.427 29.8284 116.408L29.9131 116.414L29.9196 116.42Z" fill="white"/>
<path d="M30.2636 122.046L27.5851 119.368C28.439 118.293 29.1639 117.372 29.8888 116.463C30.8573 117.432 31.8196 118.394 32.8677 119.442L30.2636 122.046Z" fill="white"/>
<path d="M183.629 15.5824C184.193 15.5696 185.382 16.8446 185.259 17.176C184.872 18.2747 184.018 19.2142 183.268 20.3194L179.793 16.844C181.432 16.2595 182.518 15.6265 183.623 15.5886L183.629 15.5824Z" fill="white"/>
<path d="M145.719 -4.31996C146.805 -4.08177 147.749 -3.1992 148.877 -2.48862L145.487 0.901578C144.832 -0.490524 144.023 -1.48365 143.993 -2.49598C143.976 -3.12792 145.259 -4.4238 145.719 -4.31996Z" fill="white"/>
<path d="M21.5661 119.331C20.2765 120.461 19.3553 121.272 18.5325 121.996C16.6618 121.33 16.4545 120.041 16.9099 118.691C17.1191 118.065 18.1324 117.088 18.3655 117.199C19.4326 117.676 20.3583 118.479 21.5661 119.331Z" fill="white"/>
<path d="M49.9489 52.0386C48.6904 52.8191 47.72 53.7773 46.6462 53.9194C46.0877 53.9998 44.7087 52.5471 44.8013 51.9518C44.9681 50.8779 45.9568 49.9382 46.7065 48.784L49.9551 52.0325L49.9489 52.0386Z" fill="white"/>
<path d="M17.7336 245.628C17.8857 246.971 18.4055 248.621 15.9445 249.354C15.3072 248.557 14.3448 247.643 13.8612 246.521C13.7511 246.263 15.2492 245.133 16.1638 244.721C16.5076 244.561 17.6911 245.241 17.7336 245.628Z" fill="white"/>
<path d="M106.862 51.8588C107.757 52.8642 108.523 53.7162 109.246 54.5377C108.957 54.949 108.859 55.1332 108.711 55.2806C107.987 56.0176 107.25 56.7423 106.513 57.4793C105.655 56.6212 104.79 55.757 103.877 54.8437L106.862 51.8588Z" fill="white"/>
<path d="M106.453 57.5291L106.514 57.4683L106.568 57.5223L106.453 57.5291Z" fill="white"/>
<path d="M109.925 38.1675C110.453 38.1425 111.568 39.3561 111.482 39.8593C111.315 40.8964 110.523 41.836 109.883 43.0146L106.402 39.5331C107.863 38.9181 108.876 38.2238 109.919 38.1737L109.925 38.1675Z" fill="white"/>
<path d="M49.7817 261.646L52.5461 264.41C50.6363 266.013 48.7094 266.408 47.9559 265.237C46.8655 263.532 48.2591 262.666 49.3337 261.738C49.4197 261.652 49.5976 261.683 49.7879 261.64L49.7817 261.646Z" fill="white"/>
<path d="M52.5962 264.47L52.5355 264.41C52.5355 264.41 52.5692 264.376 52.5963 264.362L52.5962 264.47Z" fill="white"/>
<path d="M223.229 32.2374C223.506 31.1512 224.336 30.1993 225.042 29.0267L228.297 32.2814C226.904 32.9638 225.89 33.7073 224.786 33.8802C224.332 33.9542 223.124 32.6609 223.229 32.2374Z" fill="white"/>
<path d="M129.519 29.1654L132.264 26.4201C133.116 27.358 133.919 28.2468 134.82 29.2337C133.788 30.1674 132.977 30.9045 132.075 31.7214L129.512 29.1593L129.519 29.1654Z" fill="white"/>
<path d="M242.07 45.8455C242.07 45.8455 242.031 45.8844 242.018 45.8974L241.966 45.8456L242.07 45.8455Z" fill="white"/>
<path d="M241.016 50.626C239.851 49.5596 239.895 48.4245 240.762 47.2518C241.118 46.7606 241.594 46.3457 242.018 45.8974L244.681 48.567C244.183 49.1258 243.858 49.5986 243.434 49.9487C242.746 50.5139 242.217 51.7415 241.01 50.6322L241.016 50.626Z" fill="white"/>
<path d="M4.97654 210.269L7.77715 207.469C8.56742 208.677 9.33952 209.645 9.81084 210.755C9.89653 210.964 8.85863 211.94 8.21423 212.119C6.74744 212.519 5.64372 211.858 4.97654 210.269Z" fill="white"/>
<path d="M157.559 39.8131C156.558 40.8142 155.557 41.8153 154.562 42.8102L151.994 40.242C153.972 37.5404 154.905 37.515 157.559 39.8131Z" fill="white"/>
<path d="M157.613 39.8581C157.613 39.8581 157.58 39.8257 157.561 39.8062L157.6 39.7673L157.613 39.8581Z" fill="white"/>
<path d="M154.503 42.8587L154.557 42.8046L154.618 42.8654L154.503 42.8587Z" fill="white"/>
<path d="M23.385 134.919C22.5308 136.264 21.126 136.075 20.0468 135.401C18.937 134.709 19.5769 132.843 21.5481 131.203C22.1725 132.577 24.7677 132.715 23.3789 134.913L23.385 134.919Z" fill="white"/>
<path d="M56.6465 262.541C57.0569 263.197 57.786 264.233 57.5647 264.589C57.1714 265.203 56.1094 265.799 55.4162 265.708C54.4592 265.586 53.5763 264.875 52.6688 264.398C53.59 263.477 54.5113 262.555 55.5062 261.56C55.9353 261.916 56.4075 262.155 56.6526 262.547L56.6465 262.541Z" fill="white"/>
<path d="M52.5962 264.47L52.6036 264.371C52.6167 264.384 52.6429 264.397 52.6626 264.404L52.5962 264.47Z" fill="white"/>
<path d="M123.107 23.2205C122.359 22.0923 121.348 21.1914 121.232 20.1792C121.159 19.5657 122.541 18.1593 123.143 18.2323C124.167 18.3478 125.093 19.3348 126.251 20.0883L123.113 23.2267L123.107 23.2205Z" fill="white"/>
<path d="M259.699 57.3012C259.699 57.3012 259.734 57.2711 259.747 57.2581C259.76 57.2711 259.771 57.2816 259.79 57.3011C259.771 57.3205 259.751 57.34 259.738 57.353C259.725 57.34 259.712 57.3271 259.699 57.3141L259.699 57.3012Z" fill="white"/>
<path d="M257.951 61.6652C257.454 61.5982 257.032 60.9421 256.578 60.5131C257.634 59.4567 258.682 58.4093 259.738 57.353C260.1 57.825 260.464 58.3066 260.856 58.7602C261.616 59.6429 262.137 60.7284 260.915 61.4107C260.123 61.8594 258.927 61.7931 257.951 61.6652Z" fill="white"/>
<path d="M256.532 60.5322L256.532 60.5712C256.519 60.5582 256.5 60.5388 256.487 60.5258C256.506 60.5063 256.519 60.4934 256.539 60.4739C256.552 60.4869 256.565 60.4998 256.584 60.5192C256.565 60.5387 256.552 60.5517 256.532 60.5712C256.532 60.5712 256.532 60.5582 256.539 60.5387L256.532 60.5322Z" fill="white"/>
<path d="M119.751 47.8456C119.756 49.0175 119.411 50.1958 119.207 51.3679C118.894 51.3744 118.587 51.3747 118.275 51.3811L115.339 48.4452C116.487 47.763 117.42 47.0626 118.469 46.6627C118.727 46.5643 119.739 47.4161 119.744 47.8394L119.751 47.8456Z" fill="white"/>
<path d="M18.5345 224.073C17.2755 225.209 16.3974 225.989 15.6605 226.653C13.2743 226.06 14.0797 224.47 14.0686 223.28C14.069 222.875 15.0883 222.027 15.3214 222.125C16.3579 222.559 17.2836 223.276 18.5345 224.073Z" fill="white"/>
<path d="M199.37 42.9555C198.653 41.6984 197.985 40.7481 197.612 39.687C197.545 39.4969 198.656 38.7657 199.307 38.4828C200.719 37.8678 201.663 38.505 202.348 39.9768L199.37 42.9555Z" fill="white"/>
<path d="M234.249 37.8158L237.357 34.7081C237.981 36.0696 238.557 37.0507 238.826 38.118C238.887 38.3633 237.905 38.9656 237.322 39.2423C235.824 39.9555 235.033 39.0421 234.249 37.8158Z" fill="white"/>
<path d="M27.1152 165.685C28.0907 165.788 28.9918 166.616 30.1017 167.234L26.908 170.428C26.1485 169.116 25.3887 168.135 25.0892 167.037C25.0158 166.754 26.4527 165.612 27.1091 165.679L27.1152 165.685Z" fill="white"/>
<path d="M10.2136 163.88C9.43435 163.972 8.55773 163.219 7.49065 162.729L10.5676 159.652C11.168 160.51 12.02 161.325 12.1909 162.27C12.2702 162.706 10.9684 163.787 10.2075 163.873L10.2136 163.88Z" fill="white"/>
<path d="M10.5635 159.656C10.5635 159.656 10.5242 159.617 10.5177 159.597C10.5177 159.597 10.5604 159.561 10.5801 159.541L10.6292 159.59L10.5635 159.656Z" fill="white"/>
<path d="M38.8052 114.939C39.5413 115.073 40.5955 116.152 40.6193 116.851C40.6492 117.716 39.7954 118.607 39.3098 119.485C38.2862 118.461 37.2565 117.431 35.9019 116.077C37.0743 115.579 38.0261 114.798 38.8113 114.945L38.8052 114.939Z" fill="white"/>
<path d="M39.3466 119.521L39.2813 119.508C39.2879 119.502 39.3009 119.489 39.3009 119.476L39.3466 119.521Z" fill="white"/>
<path d="M83.9627 35.1135C85.5998 36.2102 86.7828 37.3441 85.2904 38.7997C84.6579 39.42 83.1721 40.3909 82.1919 38.9316C80.7032 36.7182 83.4153 36.5191 83.9689 35.1074L83.9627 35.1135Z" fill="white"/>
<path d="M225.254 40.688C225.254 40.688 225.3 40.7076 225.313 40.7207C225.293 40.7404 225.267 40.7666 225.247 40.7863L225.254 40.688Z" fill="white"/>
<path d="M228.183 41.9695C227.183 41.7926 226.263 41.1676 225.313 40.7207C226.228 39.8056 227.137 38.8967 228.144 37.8894C228.739 38.484 229.278 38.8639 229.603 39.3851C229.94 39.9308 230.411 40.9549 230.215 41.1392C229.705 41.6244 228.815 42.0855 228.183 41.9695Z" fill="white"/>
<path d="M188.87 19.9641C190.129 19.3309 191.099 18.7163 192.161 18.3901C192.406 18.3162 193.154 19.1376 193.301 19.6528C193.674 20.9471 193.445 22.1437 191.757 22.8387L188.877 19.9579L188.87 19.9641Z" fill="white"/>
<path d="M212.656 27.6586C212.111 27.1377 212.205 24.9227 212.782 24.4803C214.495 23.1595 215.15 25.1406 216.382 26.1763C215.068 27.1838 214.323 29.2767 212.656 27.6586Z" fill="white"/>
<path d="M21.0482 164.703L18.309 167.442C17.7023 166.737 17.0895 166.026 16.5073 165.346C18.7746 162.024 19.5601 161.925 21.0482 164.703Z" fill="white"/>
<path d="M18.3511 167.497C18.3511 167.497 18.3117 167.537 18.2986 167.563L18.2397 167.504L18.3053 167.438L18.3577 167.491L18.3511 167.497Z" fill="white"/>
<path d="M75.1092 59.6337L72.3516 62.3913C69.8259 60.3323 70.0106 59.5713 73.3623 57.8868L75.1092 59.6337Z" fill="white"/>
<path d="M242.676 40.9242C245.006 42.6275 245.012 42.6827 243.262 44.4453C242.832 44.8753 242.426 45.342 242.015 45.7903L239.912 43.6879L242.676 40.9242Z" fill="white"/>
<path d="M242.07 45.8455L241.966 45.8456C241.987 45.8253 242.001 45.8038 242.015 45.7903L242.076 45.8516L242.07 45.8455Z" fill="white"/>
<path d="M160.535 9.70932L163.771 6.47266C164.298 7.63788 165.033 8.55743 165.014 9.45937C165.001 10.0361 163.859 11.0312 163.221 11.0319C162.392 11.0388 161.559 10.2543 160.541 9.70317L160.535 9.70932Z" fill="white"/>
<path d="M21.0583 209.646L18.4113 212.293L16.5664 210.448C18.6371 207.384 19.306 207.255 21.0583 209.646Z" fill="white"/>
<path d="M12.5929 116.339L10.699 114.445L13.4934 111.651L15.6019 113.759C14.5273 114.687 13.557 115.51 12.5929 116.339Z" fill="white"/>
<path d="M13.6889 234.876L15.3717 233.193L18.0503 235.872C16.1702 238.426 15.4464 238.255 13.6889 234.876Z" fill="white"/>
<path d="M134.104 45.4936C134.116 45.7758 134.128 46.0581 134.152 46.3403C133.047 46.8568 131.961 47.4161 130.813 47.8161C130.678 47.8653 129.875 46.8415 129.986 46.6328C130.465 45.7365 131.025 44.6623 131.847 44.2565C132.289 44.0352 133.331 45.0403 134.104 45.4936Z" fill="white"/>
<path d="M24.0574 155.773C23.222 156.706 22.4419 157.585 21.6066 158.53C18.8783 156.465 19.0754 155.729 22.4699 154.185L24.0635 155.779L24.0574 155.773Z" fill="white"/>
<path d="M-0.629293 220.582C-1.53085 220.221 -2.54244 219.468 -2.87291 218.621C-3.06263 218.149 -2.00634 217.166 -1.34884 216.166C-0.257964 217.404 0.544846 218.33 1.66024 219.592C0.690388 220.035 -0.144778 220.76 -0.623163 220.576L-0.629293 220.582Z" fill="white"/>
<path d="M143.787 31.9244C144.868 31.0153 145.838 30.1921 146.839 29.3506L148.653 31.1649C147.732 32.172 146.872 33.1177 145.969 34.1065L143.787 31.9244Z" fill="white"/>
<path d="M46.5259 88.2292L43.9648 90.7903L42.0034 88.8289C44.3196 85.7527 44.878 85.6969 46.5259 88.2292Z" fill="white"/>
<path d="M95.8347 35.3286L97.6245 37.1184C97.1638 37.6772 96.789 38.1868 96.3529 38.6474C95.9721 39.0527 95.5238 39.3906 95.137 39.7284C92.3963 37.8353 92.5136 37.1419 95.8347 35.3286Z" fill="white"/>
<path d="M15.5574 170.451C14.3845 171.477 13.5125 172.239 12.6036 173.037L10.6728 171.107C11.5511 170.228 12.2578 169.166 13.2337 168.717C13.6205 168.539 14.6316 169.722 15.5512 170.445L15.5574 170.451Z" fill="white"/>
<path d="M21.2403 107.815L18.5687 110.486L16.6686 108.586L19.3402 105.914L21.2403 107.815Z" fill="white"/>
<path d="M19.2706 144.636L16.6595 142.025L18.5511 140.133L21.1622 142.744L19.2706 144.636Z" fill="white"/>
<path d="M25.4267 197.591C26.3032 198.468 27.0076 199.602 25.7306 200.462C23.9623 201.667 23.449 199.679 22.1247 198.687C23.4199 198.053 23.7595 195.899 25.4267 197.591Z" fill="white"/>
<path d="M8.72209 231.875C10.2911 233.554 8.24152 233.9 7.47333 235.146C6.58514 233.693 4.29706 233.186 5.83895 231.313C6.80954 230.134 7.94371 231.047 8.72209 231.875Z" fill="white"/>
<path d="M235.911 50.7416C235.69 50.8277 234.667 49.7673 234.753 49.5464C235.177 48.5213 235.865 47.6003 236.566 46.4829L239.06 48.9776C237.876 49.6721 236.942 50.3356 235.905 50.7355L235.911 50.7416Z" fill="white"/>
<path d="M251.621 71.8566C251.628 71.5436 251.628 71.2246 251.628 70.9178C252.408 70.4569 253.483 69.4312 253.906 69.6455C254.715 70.0619 255.248 71.1473 255.689 72.0549C255.799 72.288 254.982 73.3134 254.823 73.2645C253.719 72.8975 252.682 72.3525 251.621 71.8566Z" fill="white"/>
<path d="M10.0781 182.869C10.9122 183.138 11.9728 183.965 12.1254 184.72C12.2476 185.321 11.1669 186.181 10.4726 187.121C9.44915 185.962 8.67694 185.092 7.5738 183.853C8.63569 183.404 9.5015 182.686 10.0719 182.875L10.0781 182.869Z" fill="white"/>
<path d="M134.376 6.91331C135.234 7.69779 136.123 8.50066 137.006 9.29739L134.954 11.3487C132.183 9.16725 132.116 8.6826 134.376 6.91331Z" fill="white"/>
<path d="M29.2113 155.743C28.7992 156.756 28.1295 157.659 27.4596 158.745L24.8914 156.177C26.0946 155.526 27.034 154.905 28.0712 154.554C28.3106 154.474 29.3035 155.516 29.2113 155.743Z" fill="white"/>
<path d="M29.801 99.8912C28.4934 100.647 27.7319 101.36 26.9097 101.434C26.4863 101.477 25.5548 100.374 25.5738 99.8157C25.5928 99.2205 26.5448 98.1213 26.9436 98.1761C27.7656 98.298 28.495 99.052 29.7949 99.8851L29.801 99.8912Z" fill="white"/>
<path d="M35.409 99.812C33.9971 100.513 33.6943 102.63 31.9596 101.043C30.8746 100.056 31.0717 99.2212 32.0972 98.4164C33.9147 96.9788 34.0537 99.12 35.409 99.812Z" fill="white"/>
<path d="M54.3303 277.839C54.176 278.655 53.3839 279.349 52.7817 280.209L50.3668 277.794C51.3306 277.186 52.0677 276.436 52.8899 276.325C53.3256 276.269 54.4105 277.403 54.3303 277.839Z" fill="white"/>
<path d="M58.4983 275.792C58.8473 276.595 59.7119 277.042 60.012 277.625L57.8993 279.737C57.6539 279.652 57.4087 279.468 57.1513 279.161C55.7664 277.482 57.5399 277.081 58.5045 275.798L58.4983 275.792Z" fill="white"/>
<path d="M229.373 48.3676C229.312 47.9627 230.375 47.023 230.97 46.9917C231.528 46.9604 232.607 47.8061 232.613 48.2662C232.612 49.0638 231.948 49.8621 231.567 50.6601C231.291 50.6665 231.015 50.6729 230.739 50.6793C230.255 49.9129 229.507 49.1896 229.379 48.3615L229.373 48.3676Z" fill="white"/>
</g>
<defs>
<clipPath id="clip0_8_389">
<rect width="194" height="196" fill="white"/>
</clipPath>
</defs>
</svg>
