<svg width="173" height="32" viewBox="0 0 173 32" fill="none" xmlns="http://www.w3.org/2000/svg">
<path d="M141.827 17.4367C139.928 16.4955 136.12 15.5543 134.799 12.7203C133.54 10.0209 138.318 8.94521 140.764 10.5794C143.21 12.2135 145.594 14.6027 146.977 17.809L146.667 10.5173C146.667 10.5173 141.713 8.25224 135.563 9.38995C129.412 10.5173 129.979 15.306 130.165 16.3713C130.475 18.1503 131.734 20.8394 135.934 22.7839C135.934 22.7839 143.003 25.5558 143.963 27.945C145.078 30.7065 140.516 32.2889 136.997 30.21C134.458 28.7103 131.507 25.7419 130.124 22.5357L130.433 30.5307C130.433 30.5307 136.285 32.7647 142.446 31.7201C148.349 30.7168 148.587 26.2177 148.215 23.7975C147.885 21.5634 146.657 19.8258 141.827 17.4367Z" fill="white"/>
<path d="M119.486 17.5618L119.486 8.89453L110.703 12.9799C112.52 14.6141 112.581 17.448 112.581 17.448L112.581 31.4315L121.622 31.4315C120.115 30.8213 119.682 26.8807 119.682 26.8807L119.372 19.2063C121.065 14.3038 127.278 15.6794 127.278 15.6794L128.66 9.03933C120.992 8.87385 119.486 17.5618 119.486 17.5618Z" fill="white"/>
<path d="M165.107 26.7051C159.018 26.7879 156.613 21.1614 156.778 17.5517L170.804 17.5517C170.804 17.5517 170.886 10.3221 163.115 9.03959C155.344 7.75708 150.7 15.3073 150.452 18.7515C150.215 22.206 151.175 31.0388 160.628 31.9179C170.081 32.797 172.486 23.323 172.806 20.9959C172.806 21.0062 171.196 26.6224 165.107 26.7051ZM161.278 10.0635C163.27 9.68084 165.21 10.5807 165.179 13.4043C165.169 14.9143 164.137 15.7521 163.28 16.2175C162.568 16.6105 161.743 16.7864 160.927 16.7864L156.675 16.7864C156.975 12.1838 159.864 10.3324 161.278 10.0635Z" fill="white"/>
<path d="M102.209 26.7012C96.1196 26.784 93.7149 21.1575 93.88 17.5478L107.905 17.5478C107.905 17.5478 107.988 10.3182 100.217 9.03568C92.4455 7.75317 87.8014 15.3034 87.5537 18.7476C87.3163 22.2021 88.2761 31.0348 97.7295 31.914C107.183 32.7931 109.588 23.3191 109.908 20.992C109.897 21.0023 108.298 26.6185 102.209 26.7012ZM98.3694 10.0596C100.361 9.67694 102.301 10.5768 102.27 13.4004C102.26 14.9104 101.228 15.7482 100.372 16.2136C99.6594 16.6066 98.8338 16.7824 98.0185 16.7824L93.7665 16.7824C94.0761 12.1799 96.9555 10.3285 98.3694 10.0596Z" fill="white"/>
<path d="M81.0524 9.03769C83.457 10.889 83.0545 15.8433 83.0545 15.8433L78.8851 24.9346C78.8851 24.9346 74.1584 13.3713 73.8384 11.9233C73.5185 10.4753 74.3235 9.03769 74.3235 9.03769L64.3437 9.03769C66.3872 11.6027 67.1922 13.8574 67.1922 13.8574L74.4061 31.4195L79.0502 31.4195L79.0502 26.5377C79.0502 26.5377 82.8997 18.6668 84.5406 15.2123C86.1919 11.7578 88.741 9.02734 88.741 9.02734L81.0524 9.02734L81.0524 9.03769Z" fill="white"/>
<path d="M58.4937 8.06739C60.7125 8.06739 62.5186 6.2574 62.5186 4.0337C62.5186 1.80999 60.7125 -1.97321e-07 58.4937 -1.9011e-07C56.2748 -1.82898e-07 54.4687 1.80999 54.4687 4.0337C54.4687 6.2574 56.2645 8.06739 58.4937 8.06739Z" fill="white"/>
<path d="M35.0864 3.19957C35.0348 5.99212 39.4416 9.40525 44.4056 10.5843L35.0864 10.5843L35.0864 11.1946C35.0864 11.1946 39.4932 10.1913 40.8864 15.0007L40.8864 31.4354L49.8135 31.4354C49.8135 31.4354 47.8629 28.9221 47.801 26.3985C47.7494 23.8852 47.801 10.8015 47.801 10.8015L52.3729 10.8015L52.3729 10.243C52.3729 10.243 48.2964 10.9153 44.901 8.50543C41.5056 6.1059 40.5562 3.40642 41.2786 1.96877C42.1248 0.262209 43.8483 1.38957 46.4697 4.08905C50.1644 7.90555 52.3833 8.95017 52.3833 8.95017L52.3833 2.69277C52.3833 2.69277 48.9259 2.579 44.2921 1.01723C39.6583 -0.544531 35.1483 0.396665 35.0864 3.19957Z" fill="white"/>
<path d="M62.2307 26.1668L62.2307 9.03906L53.4687 13.4037C55.4812 15.4723 55.3058 18.0477 55.3058 18.0477L55.3058 31.4313L64.3464 31.4313C62.3442 30.6452 62.2307 26.1668 62.2307 26.1668Z" fill="white"/>
<path d="M32.7463 26.1644L32.7463 0.503906L23.9844 4.86857C25.9968 6.93713 25.8214 9.51249 25.8214 9.51249L25.8214 31.4289L34.862 31.4289C32.8599 30.6429 32.7463 26.1644 32.7463 26.1644Z" fill="white"/>
<path d="M9.25732 30.926L9.25732 9.61983C9.25732 9.61983 13.6641 9.41297 19.1339 16.7874L19.1339 10.2921L13.7776 10.2404C13.7776 10.2404 9.37085 10.0749 8.92708 5.93779C8.4833 1.80066 11.9922 1.01461 13.4474 1.07667C14.9025 1.12838 19.3609 2.35917 21.2599 7.95464L21.2599 0.507812L-2.6655e-09 0.507812C-2.6655e-09 0.507812 2.01245 3.08317 2.06406 7.94429C2.11566 12.8054 2.06406 26.0028 2.06406 26.0028C2.06406 26.0028 1.34164 30.14 -1.64936e-07 31.4225L22.5396 31.4225L22.5396 23.7067C22.5396 23.7067 17.689 29.6952 9.25732 30.926Z" fill="white"/>
</svg>
