<svg width="32" height="32" viewBox="0 0 32 32" fill="none" xmlns="http://www.w3.org/2000/svg">
<g clip-path="url(#clip0_2323_22910)">
<path d="M25.9531 13.375V14.25C25.9513 15.7305 25.4138 17.1604 24.44 18.2755C23.4662 19.3907 22.1218 20.1158 20.655 20.317C21.2537 21.0832 21.5787 22.0277 21.5781 23V27.375C21.5781 27.6071 21.4859 27.8296 21.3218 27.9937C21.1577 28.1578 20.9352 28.25 20.7031 28.25H13.7031C13.4711 28.25 13.2485 28.1578 13.0844 27.9937C12.9203 27.8296 12.8281 27.6071 12.8281 27.375V25.625H10.2031C9.0428 25.625 7.93 25.1641 7.10953 24.3436C6.28906 23.5231 5.82812 22.4103 5.82812 21.25C5.82812 20.5538 5.55156 19.8861 5.05928 19.3939C4.567 18.9016 3.89932 18.625 3.20312 18.625C2.97106 18.625 2.7485 18.5328 2.58441 18.3687C2.42031 18.2046 2.32812 17.9821 2.32812 17.75C2.32812 17.518 2.42031 17.2954 2.58441 17.1313C2.7485 16.9672 2.97106 16.875 3.20312 16.875C3.77766 16.875 4.34657 16.9882 4.87736 17.208C5.40816 17.4279 5.89046 17.7502 6.29672 18.1564C6.70297 18.5627 7.02523 19.045 7.2451 19.5758C7.46496 20.1066 7.57812 20.6755 7.57812 21.25C7.57812 21.9462 7.85469 22.6139 8.34697 23.1062C8.83925 23.5985 9.50693 23.875 10.2031 23.875H12.8281V23C12.8276 22.0277 13.1525 21.0832 13.7513 20.317C12.2845 20.1158 10.9401 19.3907 9.96624 18.2755C8.99242 17.1604 8.45497 15.7305 8.45312 14.25V13.375C8.46402 12.2876 8.75361 11.2211 9.29422 10.2775C9.02677 9.41476 8.94097 8.50595 9.04225 7.60839C9.14353 6.71082 9.42968 5.84398 9.88266 5.06251C9.95947 4.92947 10.07 4.81899 10.203 4.74219C10.3361 4.66539 10.487 4.62498 10.6406 4.62501C11.6598 4.62288 12.6653 4.85915 13.5769 5.31493C14.4885 5.77072 15.2808 6.4334 15.8906 7.25001H18.5156C19.1254 6.4334 19.9178 5.77072 20.8293 5.31493C21.7409 4.85915 22.7465 4.62288 23.7656 4.62501C23.9193 4.62498 24.0702 4.66539 24.2032 4.74219C24.3363 4.81899 24.4468 4.92947 24.5236 5.06251C24.9766 5.84396 25.2627 6.71085 25.3638 7.60846C25.4649 8.50606 25.3788 9.41487 25.1109 10.2775C25.6526 11.2207 25.9426 12.2874 25.9531 13.375Z" fill="white"/>
</g>
<defs>
<clipPath id="clip0_2323_22910">
<rect width="28" height="28" fill="white" transform="translate(2.32812 2)"/>
</clipPath>
</defs>
</svg>
