<svg width="229" height="101" viewBox="0 0 229 101" fill="none" xmlns="http://www.w3.org/2000/svg">
<path d="M214.634 36.6532C213.747 37.0566 199.356 49.3014 193.604 54.6344C194.507 51.9679 195.776 49.4242 196.767 46.7753C197.201 45.5824 200.052 38.6355 196.819 41.0739C194.334 42.951 193.551 47.2489 191.448 49.5119C189.241 51.8802 185.052 54.0379 182.15 55.4764C184.566 52.5117 186.373 49.0558 188.511 45.8981C189.085 45.0561 192.3 41.53 191.066 40.4073C189.606 39.0565 187.138 42.9334 186.443 43.7228C184.079 46.3367 181.437 49.4242 178.57 51.4241C177.648 52.0731 172.174 56.4412 171.339 55.9851C172.608 53.7221 174.572 52.3363 174.277 49.4768C174.103 47.8278 172.886 46.3542 172.99 44.6701C173.112 42.6703 175.493 40.4248 173.686 38.4425C172.521 37.1619 170.696 37.7057 169.758 39.0039C168.732 40.4248 169.063 42.5826 168.385 44.2316C167.603 46.0911 166.247 47.091 164.839 48.4243C161.78 51.3188 158.53 53.8449 155.037 56.2307C155.106 54.7221 157.835 52.3012 158.739 51.0907C160.146 49.2312 161.606 47.4243 162.997 45.5473C166.386 40.9336 169.671 36.2146 172.938 31.5307C175.928 27.2503 189.815 6.58512 189.398 4.69052C186.512 5.53256 167.185 30.9694 163.257 36.5479C162.423 37.7408 161.832 38.9688 160.424 39.4951C159.104 39.9863 157.366 39.7933 155.975 40.1617C152.899 40.9862 150.031 42.565 147.476 44.4421C144.695 46.4946 142.523 49.2312 139.794 51.3013C137.361 53.1257 134.736 54.8098 132.164 56.4237C133.554 54.7747 135.293 52.7047 135.432 50.4943C135.623 47.6875 133.641 45.8806 134.649 43.0387C135.31 41.1616 135.849 36.7233 132.425 37.8636C129.453 38.846 130.391 42.5124 129.487 44.6351C128.584 46.7402 126.011 48.4594 124.343 49.9154C122.535 51.5118 120.676 53.0906 118.764 54.5642C116.8 56.0553 114.714 57.0552 112.611 58.1955C111.36 58.8797 106.198 61.5461 105.555 60.8971C104.72 60.055 106.476 58.7042 107.293 57.8271C108.249 56.8096 109.622 56.6167 110.873 56.1606C113.272 55.2834 115.67 54.1256 117.773 52.6871C120.745 50.6346 127.211 45.2666 125.003 40.9862C122.761 36.6532 114.957 41.8107 112.611 43.6702C110.578 45.2841 108.683 47.1963 106.98 49.1611C105.155 51.2837 103.139 52.617 100.897 54.266C102.513 51.2837 110.56 43.565 107.762 40.0038C106.215 38.0215 101.87 39.8635 100.115 40.6704C98.6026 41.3721 97.1774 42.2843 95.8391 43.2667C94.8137 44.0211 93.4058 45.863 92.224 46.1613C92.867 44.9508 95.8391 40.5125 93.5275 40.1441C91.7199 39.8459 81.4134 53.1959 78.3892 57.4236C72.6885 65.3704 67.1094 73.3699 61.9648 81.6675C58.8711 86.6321 55.7774 91.5089 53.2572 96.8068C52.9791 97.4033 51.7104 99.2277 52.2144 99.9294C52.7879 100.736 53.8655 99.7715 54.4738 99.2979C56.5421 97.6313 58.228 95.0175 59.7749 92.8422C66.1534 83.7551 72.4799 74.6154 78.789 65.5108C81.6046 61.4584 84.7852 57.6166 88.0353 53.9326C91.7547 49.7049 96.656 44.5473 102.096 42.8457C99.3673 50.1434 92.4152 57.2833 85.7585 61.055C84.5071 61.7567 81.4134 63.4057 84.2985 64.4056C85.7237 64.8968 88.7131 63.5986 90.0862 63.1425C94.6398 61.5988 98.0464 58.4937 102.166 56.2132C102.026 58.9148 99.7671 61.6339 102.357 63.8267C105.242 66.2476 109.413 63.8969 112.124 62.3706C118.086 59.0376 123.213 54.0028 128.532 49.74C132.407 46.6349 129.661 51.1083 128.479 52.9678C126.794 55.5992 124.013 58.6516 123.231 61.7391C122.883 63.1425 122.935 65.0371 124.76 65.2827C126.498 65.5108 128.288 63.3881 129.435 62.3356C131.521 60.4234 133.694 57.4587 136.353 56.3184C135.762 58.2481 133.815 60.5111 134.25 62.6338C134.858 65.5985 137.569 64.6161 139.29 63.4407C142.766 61.0725 145.408 58.2657 149.232 55.4764C148.05 56.9851 144.73 62.3531 146.677 64.1249C148.971 66.23 152.951 61.5988 154.394 60.2304C156.618 58.1078 159.051 56.1781 161.467 54.2835C162.58 53.4064 169.254 48.1085 169.601 48.7225C170.262 49.8978 166.004 55.1431 165.256 56.3535C164.04 58.2832 161.033 61.6865 162.145 64.1074C163.605 67.3001 167.046 63.4758 168.454 62.2128C170.992 59.9498 173.321 57.3535 176.154 55.4238C174.659 56.9675 172.434 60.3006 172.799 62.6162C173.442 66.6861 177.666 63.1952 179.161 61.8619C182.758 58.6867 186.408 55.5992 190.11 52.5643C189.502 55.5817 186.651 58.178 186.773 61.4409C186.877 64.4933 189.728 64.6863 191.709 63.0197C196.263 59.213 199.965 54.266 204.171 50.1084C206.639 47.5998 215.764 36.1444 214.634 36.6532ZM121.684 43.4246C121.684 43.4246 119.633 47.8278 116.348 50.9679C113.063 54.1081 108.162 55.6343 108.162 55.6343C112.437 48.6172 121.684 43.4246 121.684 43.4246ZM147.146 54.8975C141.549 59.3007 137.691 61.6865 137.691 61.6865C137.691 61.6865 142.418 54.0204 145.408 50.8802C148.397 47.7401 151.873 44.0912 157.731 43.2141C157.713 43.2141 152.742 50.4943 147.146 54.8975Z" fill="white"/>
<path d="M218.578 56.1753C215.45 58.0172 207.993 62.3678 207.298 60.5083C206.725 57.912 210.653 57.4734 214.72 55.2806C218.769 53.1053 224.07 49.4038 225.669 45.8602C226.469 44.0884 227.181 41.6149 225.495 40.0711C223.983 38.7028 221.515 39.7203 219.934 40.3518C215.797 42.0184 211.73 44.9655 208.897 48.4214C206.655 51.1405 204.465 53.9649 203.162 57.298C200.902 63.087 204.952 66.2623 210.166 63.6484C213.868 61.7889 216.979 59.9995 220.055 57.3682C221.081 56.491 226.973 51.7545 228.016 49.6143C226.469 50.6318 220.403 55.1227 218.578 56.1753ZM223.827 43.4218C223.827 43.4218 222.958 47.4741 218.491 50.9651C214.911 53.7719 210.305 55.6314 210.305 55.6314C214.581 48.6144 223.827 43.4218 223.827 43.4218Z" fill="white"/>
<path d="M56.9568 81.4206C66.2553 70.4564 73.1901 61.4395 80.5941 50.6333C82.8709 47.3177 86.3644 43.9144 87.8243 40.1077C88.6412 37.985 87.5289 38.5464 86.208 39.5288C84.5047 40.7919 82.7493 41.9848 81.1503 43.3882C78.0913 46.0722 75.0671 48.7913 71.9213 51.3701C69.1578 53.6331 66.0989 56.4223 62.8661 57.9661C63.9437 55.4575 65.8903 53.0892 67.4546 50.8613C68.2888 49.6684 69.1926 48.4931 70.1311 47.3703C71.1392 46.1424 73.0163 44.353 73.6246 42.9496C75.1367 39.4411 62.588 49.8438 60.5372 52.5454C59.0077 54.5804 57.513 56.8258 56.6961 59.2467C55.7576 62.0535 56.1573 65.9655 60.1027 63.9832C62.3447 62.8605 64.2913 60.5098 66.2032 58.8783C66.8289 58.3345 71.5911 53.5804 72.1646 53.8436C66.5682 63.299 59.4074 72.5791 51.7253 80.368C47.6062 84.5607 43.348 88.613 38.4467 91.876C35.7876 93.6478 33.0241 95.2266 30.0868 96.4546C28.7659 97.016 23.6561 97.9983 24.108 99.0684C24.8727 100.875 31.0775 98.665 32.5027 98.2089C35.8571 97.1388 38.8986 95.3845 41.9228 93.5776C44.9296 91.7883 55.0276 83.6836 56.9568 81.4206Z" fill="white"/>
<path d="M41.0908 40.8425C46.5829 39.8426 52.0578 38.6672 57.5673 37.7375C49.7462 49.877 40.7084 61.1569 33.4955 73.6472C31.9313 76.3663 33.3217 76.5944 35.0945 74.6998C36.9716 72.6824 38.6575 70.4194 40.3782 68.2792C43.524 64.3847 46.6525 60.4727 49.694 56.5081C53.622 51.4032 57.324 46.1228 61.4779 41.2109C65.4928 36.4569 64.3109 37.1586 69.4207 34.9482C71.4716 34.0711 73.0706 33.843 77.7112 32.1589C77.6938 32.2291 67.926 33.3869 66.8832 33.5272C69.4902 30.0889 90.0338 2.19612 89.5993 0.494483C88.8346 -2.55793 68.6039 22.721 62.6598 30.9485C61.0608 33.1588 60.4525 34.1061 57.7064 34.5623C55.36 34.9482 52.9963 35.264 50.6326 35.6323C45.4011 36.4218 40.2044 37.3164 34.9555 37.9304C38.1361 33.422 52.3185 15.0198 54.4389 9.5991C55.8119 6.07303 53.5003 6.73966 51.658 8.52901C49.6766 10.4236 39.3006 23.1771 36.0678 27.5978C34.2255 30.124 32.3484 32.6676 30.4192 35.1412C29.22 36.6849 28.2988 38.6146 26.4391 39.1935C21.451 40.7197 3.86205 42.6845 2.83661 44.0703C1.25499 46.2281 21.5205 43.2809 24.058 43.9125C23.9711 45.1755 19.9041 49.9998 19.2437 50.9997C17.1928 54.0521 6.86884 68.8756 4.01846 73.4542C3.47967 74.3138 -1.00446 80.3485 0.229542 81.0502C1.09856 81.5414 4.12275 77.1557 4.59202 76.5417C9.04139 70.9456 25.5701 50.2103 29.1505 45.3159C31.7054 41.1407 36.7457 41.6495 41.0908 40.8425Z" fill="white"/>
</svg>
