<svg width="281" height="291" viewBox="0 0 281 291" fill="none" xmlns="http://www.w3.org/2000/svg">
<g clip-path="url(#clip0_8_445)">
<path d="M179.749 374.399C177.293 376.488 174.96 378.47 172.612 380.451C172.066 380.912 171.493 381.345 170.94 381.785C171.467 382.37 171.988 382.962 172.515 383.547L173.659 382.404C174.042 381.809 174.341 381.13 174.83 380.627C177.981 377.42 181.173 374.256 184.719 370.71C183.566 371.356 182.879 371.747 182.185 372.132C182.115 372.033 182.044 371.934 181.982 371.828L194.682 359.128C191.102 361.862 187.741 364.83 184.365 367.768C183.102 368.863 181.94 370.348 180.462 370.883C178.112 371.741 178.336 372.77 179.763 374.384L179.749 374.399Z" fill="white"/>
<path d="M337.346 96.4579C335.746 101.719 334.104 106.966 332.433 112.199C332.301 112.599 331.754 113.217 331.484 113.177C329.651 112.94 329.251 113.763 329.554 115.375C329.648 115.872 329.514 116.442 329.359 116.949C327.883 121.974 326.357 126.978 324.917 132.01C324.178 134.579 323.567 137.19 322.899 139.772C322.977 139.793 323.062 139.806 323.133 139.82C325.987 132.404 328.897 125.016 331.665 117.572C333.708 112.079 335.511 106.503 337.525 101.01C338.272 98.9954 339.388 97.1194 340.227 95.1254C340.417 94.668 340.325 93.929 340.074 93.5047C339.864 93.1654 339.028 92.8327 338.777 92.9847C338.211 93.3394 337.678 93.9427 337.43 94.5572C337.203 95.1075 337.53 95.8654 337.346 96.4579Z" fill="white"/>
<path d="M378.768 114.25C377.667 116.126 376.58 118.015 375.535 119.933C375.056 120.807 374.775 121.791 374.296 122.665C372.512 125.857 370.721 129.042 368.817 132.157C368.52 132.637 367.519 133.075 366.98 132.967C365.652 132.689 365.128 133.114 364.958 134.383C364.888 134.931 364.676 135.496 364.415 135.982C360.932 142.337 357.428 148.686 353.932 155.027L354.136 155.174C354.706 154.45 355.332 153.767 355.839 152.993C358.392 149.06 360.86 145.085 363.463 141.187C364.902 139.03 366.68 137.083 368.027 134.877C371.176 129.728 374.743 124.851 377.221 119.247C378.497 116.352 381.416 114.165 383.514 111.602C383.925 111.107 384.253 110.285 384.131 109.717C384.043 109.313 383.088 108.761 382.66 108.865C382.132 108.999 381.67 109.701 381.301 110.238C380.419 111.543 379.58 112.889 378.776 114.242L378.768 114.25Z" fill="white"/>
<path d="M243.66 120.466C243.011 114.525 241.891 108.745 240.871 102.935C240.522 100.961 240.465 98.9335 240.202 96.9439C240.116 96.2974 239.954 95.4595 239.509 95.144C239.128 94.8776 237.909 95.0399 237.75 95.3547C237.444 95.9414 237.478 96.8233 237.648 97.5117C237.894 98.5053 238.518 99.4023 238.757 100.389C239.582 103.76 240.3 107.153 241.061 110.547C241.483 112.421 241.904 114.309 242.257 115.885C241.15 116.245 240.075 116.306 239.635 116.859C239.354 117.21 239.99 118.306 240.224 119.058C240.375 119.555 240.598 120.036 240.728 120.54C242.36 127.019 243.985 133.505 245.61 139.992C245.685 140.311 245.809 140.623 245.942 140.913C246.074 141.189 246.242 141.444 246.556 141.988C245.336 133.548 242.843 125.747 241.804 117.661C242.04 117.623 242.282 117.578 242.524 117.547C242.905 118.518 243.279 119.481 243.66 120.452L243.66 120.466Z" fill="white"/>
<path d="M291.237 113.446C288.82 112.497 287.948 112.876 287.997 114.277C288.114 117.357 288.203 120.437 288.149 123.518C288.057 128.158 287.83 132.793 287.667 137.434C287.881 137.446 288.094 137.458 288.314 137.477C288.789 131.594 289.257 125.705 289.739 119.816C289.967 119.813 290.187 119.818 290.422 119.823C290.461 121.501 290.5 123.18 290.54 124.859C291.025 124.021 291.162 123.18 291.32 122.346C292.412 116.664 291.813 110.771 293.793 105.186C293.94 104.758 293.501 103.902 293.077 103.579C292.724 103.312 291.842 103.321 291.462 103.589C291.103 103.834 290.946 104.597 290.955 105.124C290.998 107.784 291.126 110.43 291.236 113.46L291.237 113.446Z" fill="white"/>
<path d="M204.558 133.602C202.469 133.311 202.194 131.727 201.617 130.417C200.13 127.031 198.844 123.558 197.407 120.151C197.226 119.726 196.613 119.213 196.2 119.218C195.652 119.23 194.751 119.61 194.633 120.01C194.456 120.581 194.733 121.375 195.032 121.962C195.304 122.493 195.998 122.785 196.292 123.308C200.272 130.452 204.202 137.633 208.189 144.77C210.033 148.081 211.969 151.34 213.87 154.622C213.992 154.571 214.106 154.513 214.228 154.462C214.076 153.979 213.975 153.461 213.766 153.008C211.226 147.634 208.657 142.261 206.117 136.887C205.581 135.747 205.24 133.694 204.565 133.595L204.558 133.602Z" fill="white"/>
<path d="M135.881 180.635C135.739 180.608 135.153 181.503 135.244 181.652C135.644 182.252 136.148 182.987 136.772 183.18C137.886 183.531 138.388 183.817 137.734 185.09C137.073 186.371 138.072 186.795 139.058 187.076C139.491 187.192 140.032 187.087 140.386 187.311C143.666 189.34 146.845 191.54 150.212 193.426C152.044 194.452 153.596 196.35 156.618 195.834C154.367 194.058 152.448 192.527 150.493 191.018C146.301 187.789 142.108 184.575 137.873 181.403C137.315 180.989 136.577 180.784 135.881 180.649L135.881 180.635Z" fill="white"/>
<path d="M111.287 241.56C111.454 241.9 112.193 242.02 112.712 242.093C113.202 242.166 113.729 242.061 113.907 242.052C113.698 243.036 113.196 244.03 113.437 244.789C113.561 245.186 114.956 245.2 115.801 245.326C116.632 245.453 117.493 245.436 118.317 245.584C122.515 246.315 126.705 247.068 130.902 247.813C130.954 247.607 131.006 247.4 131.058 247.193C125.899 245.874 120.747 244.562 115.581 243.251C115.655 242.98 115.736 242.715 115.81 242.444C122.191 243.907 128.558 245.369 134.94 246.832L135.08 246.325C134.421 246.097 133.769 245.848 133.109 245.648C126.428 243.641 119.754 241.627 113.057 239.663C112.575 239.526 111.756 239.598 111.482 239.914C111.165 240.273 111.078 241.107 111.287 241.546L111.287 241.56Z" fill="white"/>
<path d="M360.382 129.721C358.086 134.213 355.706 138.664 353.403 143.15C352.88 144.166 352.394 144.975 351.036 144.854C350.653 144.816 349.992 145.392 349.795 145.828C348.593 148.523 347.539 151.281 346.343 153.983C345.134 156.7 343.825 159.375 342.558 162.063L342.991 162.18C344.121 160.304 345.3 158.448 346.388 156.544C348.715 152.471 350.936 148.335 353.312 144.282C355.16 141.125 357.114 138.03 359.11 134.964C360.42 132.936 361.927 131.021 363.25 129.007C363.518 128.599 363.583 127.787 363.36 127.391C363.136 126.995 362.337 126.598 361.944 126.723C361.408 126.892 360.904 127.495 360.628 128.039C360.388 128.518 360.622 129.241 360.382 129.721Z" fill="white"/>
<path d="M124.996 338.675C128.049 337.341 131.115 336.063 134.222 334.885C134.68 334.709 135.386 335.157 135.961 335.343C136.613 335.549 137.418 336.153 137.89 335.949C140.663 334.752 143.361 333.351 146.106 332.055C148.309 331.021 150.539 330.059 152.763 329.06C152.679 328.89 152.595 328.721 152.505 328.544C149.363 329.601 146.248 330.759 143.079 331.689C139.203 332.832 135.259 333.778 131.355 334.837C128.123 335.717 124.897 336.634 121.685 337.607C121.221 337.747 120.674 338.279 120.556 338.736C120.43 339.214 120.668 340.215 120.91 340.269C121.605 340.418 122.446 340.353 123.11 340.068C123.804 339.769 124.289 338.96 124.99 338.654L124.996 338.675Z" fill="white"/>
<path d="M133.914 327.011C133.423 327.066 132.911 327.029 132.447 327.169C127.101 328.713 121.783 330.299 116.438 331.828C114.425 332.404 112.371 332.839 110.345 333.372C109.639 333.558 108.748 333.702 108.358 334.19C108.113 334.492 108.455 335.783 108.859 335.971C109.56 336.298 110.521 336.224 111.341 336.108C111.868 336.032 112.329 335.486 112.865 335.288C117.786 333.507 122.721 331.754 127.657 329.987C129.8 329.225 131.949 328.455 134.092 327.678C134.038 327.451 133.983 327.224 133.929 326.997L133.914 327.011Z" fill="white"/>
<path d="M306.382 121.17C305.715 121.653 304.999 122.088 304.416 122.656C304.265 122.807 304.494 123.367 304.547 123.736C304.392 123.667 304.25 123.597 304.094 123.528C303.596 124.166 302.758 124.766 302.672 125.442C302.347 127.894 302.357 130.391 302.089 132.856C301.655 136.823 301.094 140.778 300.597 144.74L300.917 144.729C302.146 140.895 303.424 137.082 304.568 133.221C305.557 129.895 306.46 126.527 307.236 123.146C307.37 122.575 306.688 121.835 306.382 121.17Z" fill="white"/>
<path d="M165.035 248.463C165.072 248.299 165.102 248.142 165.132 247.971C159.5 246.38 153.874 244.796 148.248 243.183C147.681 243.018 147.18 242.618 146.649 242.318C146.715 242.21 146.78 242.103 146.845 241.981C147.421 242.011 147.997 242.04 148.58 242.062C146.606 241.08 144.549 240.433 142.55 239.671C139.092 238.342 135.664 236.912 132.198 235.59C131.752 235.417 131.06 235.559 130.609 235.799C130.352 235.929 130.116 236.658 130.249 236.92C130.472 237.373 130.936 237.894 131.397 238.01C135.939 239.115 140.503 240.141 145.131 241.202C143.793 244.006 143.96 244.274 146.615 244.268C147.006 244.271 147.411 244.302 147.794 244.397C151.804 245.387 155.799 246.405 159.809 247.38C161.534 247.796 163.295 248.09 165.035 248.449L165.035 248.463Z" fill="white"/>
<path d="M261.247 140.239C260.774 139.867 259.804 140.119 258.801 140.094C258.826 139.731 258.974 139.16 258.88 138.635C258.786 138.109 258.55 137.528 258.17 137.191C257.986 137.022 257.088 137.216 256.971 137.459C256.746 137.924 256.732 138.572 256.847 139.09C257.16 140.481 257.672 141.828 257.935 143.227C258.971 148.88 259.943 154.54 260.936 160.194L261.343 160.125C260.58 154.214 259.817 148.302 259.047 142.397C259.268 142.359 259.482 142.314 259.703 142.276L262.067 155.5C262.416 154.123 262.323 152.836 262.223 151.556C261.985 148.485 261.74 145.407 261.495 142.328C261.439 141.61 261.621 140.555 261.232 140.253L261.247 140.239Z" fill="white"/>
<path d="M244.181 79.2487C244.428 80.1711 245.052 81.0112 245.22 81.9415C246.113 87.0338 246.877 92.1559 247.748 97.2555C248.357 100.842 249.067 104.414 249.726 107.993L250.232 107.909C250.284 107.731 250.4 107.545 250.373 107.389C249.454 100.774 248.449 94.1601 247.623 87.5231C247.256 84.5954 247.287 81.6066 247.012 78.6567C246.968 78.1235 246.399 77.4677 245.889 77.2312C245.514 77.0573 244.664 77.3011 244.369 77.6386C244.074 77.9904 244.051 78.7449 244.181 79.2487Z" fill="white"/>
<path d="M112.461 234.824C112.491 234.638 112.522 234.467 112.552 234.282C112.318 234.178 112.106 234.052 111.865 233.983C105.942 232.302 99.9955 230.729 94.116 228.92C90.9032 227.936 87.3752 227.817 84.5733 225.648C84.2557 225.402 83.2566 225.683 82.8401 226.043C82.517 226.324 82.3655 227.194 82.5532 227.612C82.7407 228.044 83.3915 228.407 83.9098 228.508C84.5062 228.63 85.2216 228.267 85.8107 228.41C91.8649 229.847 97.8969 231.363 103.944 232.822C106.776 233.51 109.629 234.149 112.461 234.809L112.461 234.824Z" fill="white"/>
<path d="M342.327 135.44C342.654 134.803 343.09 133.988 342.925 133.434C342.801 133.009 341.618 132.502 341.232 132.691C340.724 132.945 340.387 133.831 340.252 134.487C340.05 135.436 340.303 136.479 338.771 136.602C338.358 136.635 337.823 137.466 337.632 138.023C337.221 139.237 337.129 140.554 336.682 141.747C335.07 146.147 333.373 150.52 331.705 154.906C331.91 154.982 332.109 155.051 332.321 155.12C335.033 149.634 337.724 144.141 340.457 138.662C341.01 137.546 341.761 136.528 342.327 135.426L342.327 135.44Z" fill="white"/>
<path d="M124.763 364.086C118.509 367.44 112.282 370.878 105.993 374.168C103.539 375.453 100.925 376.406 98.4149 377.578C97.8572 377.84 97.1619 378.324 97.0355 378.831C96.9169 379.287 97.3619 380.265 97.7591 380.388C98.3123 380.553 99.1055 380.239 99.6851 379.927C100.172 379.666 100.435 378.98 100.915 378.697C107.551 374.906 114.215 371.171 120.844 367.372C122.669 366.321 124.404 365.108 126.18 363.979C126.146 363.901 126.111 363.809 126.076 363.731C125.634 363.849 125.15 363.883 124.756 364.094L124.763 364.086Z" fill="white"/>
<path d="M176.166 109.525C176.95 110.683 178.086 111.604 178.807 112.798C181.926 117.931 184.909 123.144 188.007 128.298C189.153 130.207 190.45 132.022 191.676 133.88C191.834 133.779 191.984 133.671 192.142 133.569C191.89 133.145 191.631 132.714 191.387 132.282C188.308 126.744 185.1 121.263 182.213 115.616C180.945 113.139 178.761 111.027 178.787 107.903C178.791 107.562 177.964 107.008 177.488 106.978C176.997 106.947 176.21 107.326 176.014 107.733C175.788 108.227 175.85 109.08 176.151 109.539L176.166 109.525Z" fill="white"/>
<path d="M123.884 160.511C123.354 160.858 122.834 161.589 122.785 162.188C122.752 162.586 123.501 163.119 124.003 163.42C124.406 163.665 125.083 163.508 125.45 163.775C127.809 165.443 130.103 167.191 132.433 168.888C134.975 170.74 137.51 172.613 140.088 174.414C142.751 176.271 145.464 178.064 148.163 179.886C148.264 179.785 148.371 179.706 148.479 179.612C146.482 178.075 144.47 176.538 142.48 174.993C139.163 172.424 135.803 169.898 132.558 167.229C130.103 165.22 127.821 162.995 125.417 160.922C125.036 160.598 124.192 160.301 123.891 160.504L123.884 160.511Z" fill="white"/>
<path d="M239.852 132.766C239.758 132.227 239.224 131.578 238.728 131.384C238.338 131.238 237.516 131.596 237.234 131.976C236.982 132.327 237.059 133.08 237.246 133.555C237.932 135.277 238.726 136.948 239.504 138.718C237.467 139.601 236.773 140.576 238.351 142.082C238.598 142.328 238.628 142.805 238.745 143.181C240.172 147.584 241.591 151.995 243.017 156.399C243.074 156.398 243.124 156.405 243.174 156.397C242.297 150.443 241.4 144.497 240.552 138.544C240.281 136.618 240.187 134.67 239.859 132.759L239.852 132.766Z" fill="white"/>
<path d="M143.493 144.408C143.397 144.096 142.318 143.837 141.84 143.991C141.361 144.146 140.792 144.871 140.765 145.362C140.739 145.825 141.302 146.402 141.747 146.746C142.488 147.315 143.459 147.61 144.129 148.237C150.217 153.822 156.27 159.443 162.33 165.057C162.423 164.963 162.524 164.877 162.625 164.791C162.477 164.586 162.351 164.374 162.183 164.19C157.923 159.902 153.584 155.707 149.44 151.304C147.371 149.106 144.492 147.578 143.493 144.408Z" fill="white"/>
<path d="M141.461 382.495C136.706 385.968 132.037 389.539 127.269 392.984C125.555 394.219 123.645 395.185 121.868 396.328C121.309 396.69 120.52 397.296 120.537 397.758C120.545 398.299 121.248 399.117 121.788 399.239C122.27 399.348 122.996 398.721 123.505 398.296C123.886 397.972 124.021 397.344 124.408 397.041C129.681 392.923 134.997 388.861 140.263 384.749C141.87 383.494 143.393 382.112 144.958 380.8L144.718 380.604C143.63 381.227 142.479 381.759 141.475 382.495L141.461 382.495Z" fill="white"/>
<path d="M96.1687 186.86C96.5147 187.106 96.8239 187.473 97.207 187.582C98.0086 187.809 98.9487 187.728 99.6778 188.083C103.515 189.935 107.272 191.923 111.095 193.79C115.774 196.081 120.489 198.308 125.19 200.564C125.29 200.463 125.384 200.355 125.485 200.24C125.366 200.035 125.298 199.723 125.121 199.632C121.831 197.91 118.526 196.216 115.221 194.521C109.8 191.747 104.386 188.965 98.9504 186.219C98.455 185.968 97.7949 185.811 97.2532 185.903C96.8539 185.978 96.5351 186.522 96.1687 186.86Z" fill="white"/>
<path d="M112.139 251.847C108.56 251.187 104.951 250.614 101.395 249.833C96.3685 248.733 91.0811 248.796 86.2791 246.698C85.84 246.504 84.9258 246.826 84.5517 247.215C84.2281 247.538 84.1042 248.493 84.3353 248.839C84.6299 249.249 85.3891 249.447 85.9863 249.498C86.5904 249.555 87.242 249.171 87.8318 249.243C90.4967 249.564 93.1463 249.984 95.8107 250.347C101.189 251.08 106.575 251.806 111.954 252.525C112.013 252.297 112.072 252.068 112.132 251.84L112.139 251.847Z" fill="white"/>
<path d="M111.343 325.165C103.318 327.036 95.2936 328.892 87.2897 330.827C86.7904 330.946 86.2142 331.607 86.0664 332.12C85.9483 332.52 86.3315 333.292 86.7134 333.515C87.0812 333.725 87.7735 333.525 88.2592 333.35C88.7307 333.174 89.0917 332.672 89.5699 332.532C95.2803 330.821 100.997 329.145 106.715 327.455C108.949 326.798 111.176 326.106 113.41 325.435C113.348 325.229 113.294 325.03 113.232 324.825C112.597 324.938 111.963 325.023 111.335 325.172L111.343 325.165Z" fill="white"/>
<path d="M319.599 93.1946C318.834 96.9453 317.969 100.683 317.175 104.434C316.321 108.485 315.524 112.534 314.705 116.592C314.861 116.633 315.017 116.688 315.174 116.729C315.399 116.278 315.702 115.848 315.814 115.37C316.579 112.296 317.217 109.179 318.054 106.118C319.401 101.18 320.897 96.276 322.244 91.3237C322.385 90.8028 322.101 90.0445 321.757 89.5998C321.561 89.3458 320.686 89.2768 320.414 89.4931C319.976 89.8464 319.628 90.4762 319.529 91.0393C319.401 91.7309 319.734 92.4958 319.592 93.1875L319.599 93.1946Z" fill="white"/>
<path d="M111.032 181.53C111.339 182.153 111.945 182.702 112.553 183.08C112.941 183.325 113.641 183.09 114.059 183.32C118.183 185.603 122.263 187.958 126.388 190.227C129.691 192.049 133.06 193.778 136.385 195.55C136.451 195.4 136.524 195.257 136.582 195.114C135.14 194.218 133.712 193.309 132.263 192.434C128.452 190.134 124.619 187.883 120.837 185.539C118.462 184.07 116.174 182.458 113.813 180.96C113.226 180.589 112.533 180.227 111.878 180.219C111.587 180.215 110.9 181.269 111.025 181.523L111.032 181.53Z" fill="white"/>
<path d="M198.442 104.963C198.742 105.593 199.499 105.991 199.784 106.621C201.94 111.309 204.01 116.04 206.159 120.735C207.349 123.333 208.617 125.896 209.849 128.466C210.042 128.385 210.242 128.312 210.442 128.225C209.083 124.866 207.681 121.523 206.386 118.142C204.551 113.359 202.802 108.546 200.967 103.762C200.794 103.302 200.273 102.795 199.825 102.693C199.364 102.591 198.5 102.849 198.34 103.193C198.114 103.672 198.206 104.453 198.457 104.963L198.442 104.963Z" fill="white"/>
<path d="M403.618 128.097C398.455 134.598 393.242 141.05 388.044 147.516C388.178 147.649 388.297 147.783 388.424 147.924C391.923 144.002 395.395 140.052 398.922 136.158C401.723 133.062 404.615 130.043 407.402 126.933C407.798 126.494 408.005 125.738 407.976 125.148C407.958 124.828 407.202 124.245 406.896 124.312C406.261 124.454 405.538 124.839 405.149 125.341C404.521 126.166 404.274 127.286 403.625 128.09L403.618 128.097Z" fill="white"/>
<path d="M114.402 300.25C113.762 300.271 113.114 300.271 112.473 300.335C109.118 300.69 105.783 301.138 102.422 301.416C98.0065 301.775 93.5786 301.979 89.1633 302.338C88.6933 302.372 88.0899 302.919 87.8573 303.377C87.6756 303.742 87.7953 304.537 88.0914 304.79C88.4582 305.1 89.1545 305.192 89.6676 305.115C90.4161 304.986 91.1112 304.516 91.8597 304.388C94.9107 303.857 97.9751 303.398 101.04 302.924C105.516 302.222 109.991 301.535 114.46 300.84C114.441 300.648 114.414 300.449 114.388 300.264L114.402 300.25Z" fill="white"/>
<path d="M159.388 388.902C157.328 390.581 155.24 392.219 153.208 393.941C150.3 396.412 147.498 399.003 144.548 401.432C142.617 403.025 140.496 404.385 138.538 405.936C138.172 406.231 137.857 407.039 137.995 407.436C138.168 407.925 138.781 408.438 139.3 408.539C139.719 408.627 140.399 408.243 140.723 407.862C141.479 406.979 141.975 405.835 142.802 405.037C148.365 399.727 153.999 394.487 159.605 389.219C159.528 389.114 159.444 389.001 159.366 388.895L159.388 388.902Z" fill="white"/>
<path d="M174.486 123.062C174.2 122.517 173.682 121.697 173.276 121.708C172.7 121.722 171.854 122.285 171.649 122.814C171.481 123.25 171.978 124.035 172.35 124.55C172.714 125.059 173.402 125.329 173.752 125.837C176.4 129.737 178.963 133.68 181.626 137.566C183.279 139.982 185.069 142.318 186.787 144.683L187.087 144.581C186.775 143.879 186.526 143.128 186.12 142.477C182.958 137.445 179.737 132.441 176.61 127.387C175.764 126.022 175.232 124.47 174.479 123.055L174.486 123.062Z" fill="white"/>
<path d="M293.845 140.691C294.123 141.243 293.815 142.101 293.765 142.827C293.5 146.359 293.235 149.891 292.97 153.423C293.07 153.422 293.176 153.414 293.276 153.413C294.43 148.612 295.562 143.818 296.751 139.024C297.145 137.447 297.766 135.911 298.096 134.314C298.223 133.736 297.975 132.928 297.589 132.469C297.343 132.18 296.369 132.112 296.067 132.357C295.672 132.696 295.422 133.453 295.431 134.008C295.461 135.16 295.698 136.303 295.863 137.561C293.81 137.91 292.813 138.667 293.837 140.684L293.845 140.691Z" fill="white"/>
<path d="M383.107 125.161C381.153 128.27 379.051 131.288 377.047 134.362C375.087 137.364 373.184 140.394 371.252 143.41C371.401 143.515 371.549 143.606 371.697 143.711C373.704 141 375.69 138.282 377.717 135.578C380.828 131.44 383.981 127.315 387.07 123.156C387.381 122.733 387.616 122.004 387.457 121.572C387.298 121.154 386.577 120.663 386.15 120.711C385.608 120.773 384.934 121.25 384.659 121.737C384.043 122.818 383.773 124.101 383.114 125.154L383.107 125.161Z" fill="white"/>
<path d="M158.521 217.772C160.724 218.738 162.978 219.568 165.173 220.555C168.643 222.127 172.076 223.777 175.524 225.398C173.568 223.327 171.438 221.542 169.236 219.843C168.467 219.247 167.167 219.068 166.762 218.333C165.568 216.132 164.415 216.835 163.041 218.322C161.84 217.467 160.718 216.618 159.523 215.869C159.141 215.631 158.502 215.538 158.081 215.678C157.795 215.78 157.453 216.474 157.543 216.779C157.659 217.184 158.117 217.584 158.528 217.765L158.521 217.772Z" fill="white"/>
<path d="M382.527 151.146C379.237 155.436 375.918 159.711 372.65 164.022C371.437 165.629 370.317 167.313 369.161 168.962C370.826 167.564 372.146 165.906 373.487 164.27C376.896 160.142 380.312 156.022 383.735 151.909C383.98 151.607 384.296 151.348 384.625 151.159C385.678 150.543 386.758 149.97 387.832 149.375C387.762 149.233 387.693 149.092 387.623 148.95C387.387 149.059 387.136 149.254 386.908 149.257C386.047 149.244 383.01 150.522 382.534 151.139L382.527 151.146Z" fill="white"/>
<path d="M283.382 95.8543C283.406 98.3515 283.272 100.85 283.239 103.363C283.18 107.533 283.151 111.703 283.107 115.873C283.334 115.885 283.562 115.896 283.789 115.894C284.009 112.647 284.178 109.408 284.461 106.167C284.842 101.816 285.357 97.4699 285.731 93.1256C285.779 92.5701 285.467 91.7978 285.058 91.4749C284.698 91.2012 283.737 91.2042 283.435 91.492C283.04 91.859 282.868 92.6507 282.897 93.2409C282.938 94.1157 283.377 94.972 283.389 95.8471L283.382 95.8543Z" fill="white"/>
<path d="M134.416 367.699C129.27 370.535 124.117 373.364 119.006 376.265C118.462 376.569 117.985 377.328 117.857 377.935C117.783 378.277 118.514 379.123 118.87 379.105C119.496 379.084 120.169 378.65 120.722 378.253C121.173 377.928 121.408 377.285 121.866 376.996C124.933 374.999 128.055 373.074 131.136 371.092C134.36 369.023 137.555 366.925 140.772 364.835C140.674 364.679 140.583 364.531 140.492 364.368C138.474 365.471 136.442 366.574 134.431 367.684L134.416 367.699Z" fill="white"/>
<path d="M111.066 293.462C113.516 293.208 115.961 292.834 118.405 292.516C118.385 292.296 118.366 292.075 118.347 291.855C113.356 292.185 108.372 292.537 103.381 292.824C101.095 292.955 98.8116 292.93 96.5263 293.046C95.7218 293.09 94.9219 293.369 94.1161 293.541C94.3424 294.343 94.5758 295.152 94.7473 295.755C96.4601 295.267 97.6323 294.771 98.8292 294.63C102.897 294.167 106.984 293.868 111.059 293.455L111.066 293.462Z" fill="white"/>
<path d="M156.07 232.249C156.258 232.653 156.673 233.083 157.084 233.221C157.864 233.483 158.754 233.452 159.541 233.707C163.98 235.183 168.403 236.701 173.203 238.337C171.076 236.282 169.684 234.027 167.067 233.25C166.946 233.216 166.848 233.103 166.749 233.019C164.775 231.261 164.604 231.305 163.231 233.974C161.469 233.046 159.722 232.09 157.924 231.227C157.534 231.039 156.907 231.088 156.479 231.263C156.229 231.358 155.951 232.016 156.056 232.25L156.07 232.249Z" fill="white"/>
<path d="M106.223 212.419C105.865 212.651 105.585 213.564 105.759 213.94C105.988 214.442 106.645 214.87 107.22 215.041C107.936 215.254 108.8 215.025 109.502 215.252C112.536 216.259 115.534 217.373 118.554 218.422C121.908 219.589 125.268 220.735 128.629 221.881C128.687 221.752 128.745 221.609 128.804 221.48C128.387 221.221 127.984 220.906 127.531 220.711C123.479 219.06 119.382 217.496 115.359 215.774C112.866 214.718 110.489 213.392 108.01 212.294C107.514 212.071 106.674 212.123 106.223 212.405L106.223 212.419Z" fill="white"/>
<path d="M139.301 317.512C139.253 317.349 139.198 317.193 139.157 317.037C135.105 317.99 131.06 318.994 127.002 319.898C123.543 320.667 120.05 321.245 116.626 322.121C116.019 322.276 115.651 323.461 115.181 324.171C115.834 324.349 116.562 324.832 117.126 324.663C121.08 323.482 124.993 322.174 128.913 320.902C132.376 319.777 135.846 318.644 139.316 317.512L139.301 317.512Z" fill="white"/>
<path d="M143.322 160.661C142.821 160.176 142.122 159.664 141.489 159.649C141.084 159.632 140.241 160.587 140.301 160.964C140.395 161.546 141.029 162.137 141.573 162.508C142.47 163.118 143.584 163.426 144.424 164.094C147.451 166.502 150.391 169.011 153.39 171.449C155.344 173.043 157.363 174.573 159.345 176.139C159.439 176.031 159.526 175.916 159.626 175.801C159.267 175.442 158.923 175.054 158.542 174.717C154.623 171.229 150.675 167.784 146.791 164.261C145.551 163.135 144.519 161.801 143.315 160.64L143.322 160.661Z" fill="white"/>
<path d="M98.6277 321.094C99.1378 321.302 99.8502 321.223 100.421 321.061C100.964 320.899 101.383 320.311 101.925 320.177C105.114 319.353 108.338 318.636 111.541 317.827C114.652 317.04 117.742 316.189 120.845 315.366C120.791 315.153 120.736 314.94 120.681 314.728C120.496 314.772 120.311 314.817 120.118 314.854C113.211 316.059 106.303 317.235 99.4094 318.496C98.9246 318.586 98.3695 319.268 98.1577 319.79C98.0188 320.14 98.3158 320.984 98.6276 321.108L98.6277 321.094Z" fill="white"/>
<path d="M127.511 368.661C127.984 368.386 128.198 367.636 128.671 367.347C133.118 364.66 137.614 362.065 142.047 359.364C144.825 357.67 147.52 355.848 150.257 354.083C150.194 353.977 150.131 353.871 150.068 353.765C144.692 356.789 139.345 359.869 133.92 362.801C131.43 364.151 128.779 365.197 126.226 366.44C125.832 366.637 125.4 367.153 125.353 367.567C125.299 367.987 125.568 368.717 125.887 368.835C126.348 369.008 127.068 368.908 127.526 368.647L127.511 368.661Z" fill="white"/>
<path d="M132.989 342.525C130.002 343.724 127.036 344.972 124.028 346.106C120.157 347.556 116.229 348.879 112.357 350.328C111.893 350.497 111.346 351.058 111.256 351.514C111.166 351.985 111.449 352.8 111.817 352.981C112.313 353.218 113.152 353.209 113.66 352.94C115.986 351.727 118.192 350.281 120.539 349.103C124.723 347.003 128.978 345.044 133.204 343.028C133.135 342.858 133.065 342.688 132.989 342.525Z" fill="white"/>
<path d="M112.587 305.755C113.407 305.569 114.173 305.07 115 304.919C118.708 304.239 122.428 303.645 126.135 302.994C129.279 302.441 132.415 301.867 135.559 301.3C135.533 301.13 135.513 300.952 135.487 300.781C131.981 301.189 128.483 301.631 124.964 301.996C120.676 302.439 116.375 302.784 112.094 303.249C111.652 303.296 111.057 303.736 110.882 304.137C110.721 304.523 110.877 305.24 111.173 305.521C111.455 305.803 112.137 305.852 112.587 305.755Z" fill="white"/>
<path d="M264.729 110.987C264.361 111.496 263.629 112.058 263.682 112.513C263.941 114.901 264.507 117.25 264.78 119.638C265.465 125.53 266.043 131.444 266.664 137.343C266.82 137.327 266.984 137.318 267.141 137.302C267.007 134.507 266.858 131.712 266.739 128.917C266.505 123.363 266.322 117.8 266.004 112.247C265.973 111.799 265.166 111.409 264.722 110.994L264.729 110.987Z" fill="white"/>
<path d="M117.392 253.015C117.587 253.412 118.324 253.66 118.857 253.718C119.547 253.789 120.29 253.468 120.965 253.568C123.885 254 126.796 254.552 129.716 255.012C132.934 255.512 136.152 255.955 139.371 256.426L139.42 255.828C137.453 255.386 135.48 254.966 133.521 254.474C128.78 253.3 124.055 252.07 119.314 250.939C118.845 250.83 118.081 251.073 117.75 251.432C117.419 251.791 117.211 252.619 117.399 253.008L117.392 253.015Z" fill="white"/>
<path d="M228.744 127.469C228.265 125.638 227.786 123.808 227.322 121.977C226.175 117.392 225.049 112.801 223.845 108.231C223.708 107.706 223.153 107.093 222.664 106.934C222.274 106.803 221.38 107.204 221.227 107.569C221.022 108.04 221.25 108.757 221.45 109.317C221.616 109.784 222.132 110.113 222.283 110.581C223.553 114.353 224.744 118.162 226.013 121.934C226.661 123.862 227.431 125.754 228.144 127.66C228.344 127.601 228.551 127.535 228.758 127.483L228.744 127.469Z" fill="white"/>
<path d="M169.021 165.463C168.615 165.56 168.104 166.07 168.029 166.47C167.953 166.869 168.253 167.456 168.577 167.766C169.274 168.435 170.159 168.916 170.849 169.606C175.144 173.858 179.411 178.139 183.692 182.42C183.771 182.37 183.842 182.312 183.921 182.261C183.143 181.167 182.436 180.014 181.572 178.992C177.854 174.612 174.094 170.262 170.318 165.94C170.044 165.623 169.414 165.366 169.035 165.463L169.021 165.463Z" fill="white"/>
<path d="M367.945 145.266C367.526 145.235 366.88 145.754 366.626 146.191C366.032 147.264 365.727 148.513 365.096 149.565C362.113 154.521 359.065 159.427 356.039 164.354L356.321 164.607C357.519 163.015 358.717 161.409 359.922 159.824C362.967 155.807 366.033 151.811 369.05 147.78C369.361 147.357 369.653 146.571 369.465 146.225C369.207 145.751 368.507 145.31 367.952 145.273L367.945 145.266Z" fill="white"/>
<path d="M165.551 148.458C165.038 148.464 164.121 149.114 164.095 149.52C164.053 150.111 164.537 150.838 164.987 151.318C165.543 151.917 166.407 152.235 166.956 152.841C170.74 157.027 174.473 161.25 178.229 165.465C178.386 165.35 178.544 165.248 178.702 165.133C176.061 161.802 173.371 158.508 170.795 155.141C169.427 153.355 168.266 151.404 166.948 149.568C166.597 149.088 166.035 148.453 165.551 148.458Z" fill="white"/>
<path d="M323.785 117.229C324.579 114.815 325.649 112.492 326.5 110.092C326.676 109.606 326.613 108.867 326.347 108.457C326.158 108.167 325.319 108.034 324.969 108.215C324.468 108.462 323.907 109.023 323.788 109.537C323.139 112.397 322.667 115.305 322.039 118.172C321.291 121.567 320.459 124.948 319.662 128.337C319.825 128.385 320.002 128.433 320.165 128.481C320.369 128.08 320.643 127.707 320.768 127.286C321.786 123.931 322.704 120.549 323.799 117.229L323.785 117.229Z" fill="white"/>
<path d="M119.111 260.717C114.295 259.9 109.48 259.054 104.642 258.302C104.095 258.215 103.274 258.473 102.907 258.868C102.598 259.205 102.531 260.16 102.797 260.513C103.106 260.922 103.879 261.12 104.47 261.135C105.345 261.147 106.245 260.782 107.113 260.83C109.936 261.006 112.736 261.318 115.558 261.537C118.189 261.737 120.813 261.888 123.437 262.052C123.453 261.867 123.476 261.674 123.493 261.489C122.03 261.234 120.574 260.972 119.111 260.717Z" fill="white"/>
<path d="M139.912 380.242C140.38 380.365 141.101 380.208 141.488 379.891C143.685 378.089 145.726 376.103 147.972 374.365C152.305 371.003 156.744 367.761 161.133 364.47C161.042 364.35 160.958 364.223 160.874 364.11C157.555 366.401 154.271 368.755 150.904 370.968C147.3 373.333 143.597 375.556 139.965 377.893C139.586 378.132 139.181 378.677 139.184 379.082C139.18 379.495 139.571 380.16 139.919 380.249L139.912 380.242Z" fill="white"/>
<path d="M228.822 129.517C228.238 129.509 227.494 129.859 227.106 130.304C226.832 130.62 226.895 131.402 227.068 131.877C227.247 132.402 227.869 132.765 228.063 133.289C229.156 136.238 230.156 139.223 231.235 142.186C232.161 144.737 233.145 147.274 234.107 149.819C234.3 149.752 234.479 149.687 234.671 149.62C233.772 146.506 232.794 143.414 231.974 140.278C231.153 137.142 230.518 133.947 229.74 130.796C229.617 130.299 229.163 129.528 228.836 129.517L228.822 129.517Z" fill="white"/>
<path d="M118.14 208.444C118.235 208.898 118.799 209.419 119.281 209.584C122.202 210.621 125.188 211.493 128.101 212.565C131.191 213.699 134.209 214.991 137.263 216.218C137.35 216.032 137.437 215.846 137.532 215.653C135.189 214.504 132.809 213.433 130.524 212.198C127.213 210.411 123.321 209.713 120.555 206.903C120.252 206.6 119.248 206.689 118.754 206.957C118.375 207.168 118.06 207.989 118.155 208.444L118.14 208.444Z" fill="white"/>
<path d="M122.292 224.26C122.599 224.897 122.773 225.948 123.248 226.107C126.254 227.086 129.363 227.764 132.37 228.729C136.483 230.037 140.538 231.517 144.614 232.918C144.68 232.782 144.745 232.647 144.811 232.511C144.598 232.385 144.394 232.238 144.167 232.14C137.452 229.266 130.751 226.376 124.014 223.58C123.618 223.414 122.871 224.019 122.292 224.274L122.292 224.26Z" fill="white"/>
<path d="M121.275 294.293C121.456 294.633 122.308 294.794 122.814 294.711C123.833 294.551 124.806 294.042 125.825 293.911C129.431 293.446 133.042 293.101 136.64 292.672C138.371 292.462 140.096 292.145 141.821 291.87C141.808 291.714 141.789 291.565 141.776 291.408C138.971 291.523 136.166 291.681 133.369 291.732C129.775 291.791 126.176 291.744 122.589 291.81C122.119 291.815 121.376 292.093 121.245 292.422C121.025 292.979 120.995 293.798 121.275 294.293Z" fill="white"/>
<path d="M289.612 163.498C289.502 165.115 289.371 166.724 289.248 168.34C289.589 168.365 289.916 168.405 290.257 168.429C290.327 165.796 290.86 163.222 291.57 160.638C291.689 160.196 291.66 159.506 291.393 159.239C291.111 158.957 290.351 158.858 289.993 159.047C289.686 159.214 289.515 159.892 289.496 160.347C289.47 161.401 289.687 162.451 289.619 163.491L289.612 163.498Z" fill="white"/>
<path d="M191.984 143.148C191.718 142.682 191.204 142.21 190.721 142.102C190.387 142.027 189.649 142.511 189.56 142.868C189.442 143.325 189.648 143.991 189.95 144.394C191.072 145.919 192.366 147.314 193.439 148.861C196.873 153.777 200.243 158.743 203.642 163.695C201.965 160.753 200.275 157.811 198.605 154.861C196.398 150.957 194.219 147.038 191.991 143.155L191.984 143.148Z" fill="white"/>
<path d="M394.202 154.608C394.842 153.968 395.742 153.589 396.382 152.949C396.836 152.496 397.213 151.823 397.312 151.203C397.357 150.918 396.661 150.207 396.347 150.238C395.72 150.302 394.998 150.615 394.552 151.061C394.121 151.493 394.119 152.325 393.723 152.806C389.738 157.552 385.711 162.255 381.698 166.972C382.336 166.517 383.03 166.104 383.577 165.557C387.137 161.927 390.641 158.239 394.209 154.616L394.202 154.608Z" fill="white"/>
<path d="M189.448 342.619C189.343 342.47 189.231 342.315 189.119 342.174C186.828 343.479 184.502 344.734 182.232 346.075C181.81 346.328 181.491 346.915 181.322 347.408C181.248 347.622 181.676 348.265 181.882 348.256C182.409 348.25 183.043 348.137 183.452 347.812C184.177 347.257 184.705 346.447 185.408 345.856C186.743 344.761 188.092 343.679 189.441 342.597L189.448 342.619Z" fill="white"/>
<path d="M248.779 122.91C249.44 125.685 250.272 128.415 250.911 131.198C251.917 135.627 252.795 140.086 253.737 144.538L254.222 144.433C253.77 141.464 253.196 138.517 252.9 135.531C252.469 131.203 250.727 127.059 251.401 122.569C251.462 122.17 250.871 121.55 250.418 121.284C250.135 121.117 249.422 121.266 249.17 121.532C248.875 121.856 248.677 122.491 248.779 122.91Z" fill="white"/>
<path d="M259.479 108.21C259.047 108.037 258.241 108.209 257.91 108.54C257.579 108.871 257.422 109.619 257.502 110.117C258.019 113.05 258.679 115.953 259.181 118.886C259.664 121.67 260.019 124.47 260.431 127.255L261.029 127.178C260.965 125.791 260.902 124.404 260.845 123.01C260.679 118.515 260.528 114.019 260.305 109.525C260.282 109.041 259.876 108.362 259.472 108.203L259.479 108.21Z" fill="white"/>
<path d="M152.9 365.184C150.343 366.797 147.806 368.461 145.221 370.032C142.443 371.712 139.601 373.286 136.83 374.973C136.25 375.328 135.703 375.932 135.454 376.546C135.337 376.832 135.961 377.772 136.274 377.783C136.892 377.797 137.636 377.505 138.138 377.101C139.429 376.077 140.553 374.813 141.872 373.831C145.602 371.06 149.408 368.38 153.187 365.671C153.096 365.509 152.991 365.346 152.9 365.184Z" fill="white"/>
<path d="M142.921 197.914C144.811 198.855 146.816 199.581 148.627 200.629C152.927 203.117 157.147 205.74 161.403 208.3C161.483 208.178 161.562 208.056 161.635 207.941C158.753 205.923 155.886 203.89 152.989 201.899C150.001 199.86 146.594 198.395 144.22 195.503C143.967 195.192 143.021 195.124 142.635 195.356C142.262 195.573 142.012 196.344 142.043 196.835C142.067 197.219 142.524 197.705 142.914 197.907L142.921 197.914Z" fill="white"/>
<path d="M319.031 133.431C319.193 132.917 319.21 132.027 318.906 131.796C318.476 131.466 317.588 131.34 317.094 131.566C316.687 131.762 316.443 132.569 316.331 133.146C316.158 133.966 316.263 134.848 316.083 135.661C315.013 140.631 313.894 145.581 312.788 150.545C312.916 150.587 313.036 150.635 313.164 150.676C313.411 150.147 313.723 149.625 313.9 149.068C315.627 143.862 317.354 138.657 319.017 133.431L319.031 133.431Z" fill="white"/>
<path d="M186.076 206.623C185.934 206.596 185.303 207.663 185.437 207.854C185.738 208.299 186.354 208.541 186.871 208.813C187.267 209.022 187.75 209.088 188.111 209.334C189.502 210.308 190.9 211.289 192.292 212.264C192.451 212.063 192.595 211.862 192.754 211.661C191.081 210.334 189.54 208.692 187.854 207.38C187.353 206.994 186.701 206.73 186.083 206.616L186.076 206.623Z" fill="white"/>
<path d="M129.065 284.911C132.336 282.429 135.21 283.878 138.02 283.927C140.93 283.974 143.831 284.086 146.734 284.169C146.757 283.948 146.774 283.735 146.804 283.521C145.028 283.269 143.26 282.982 141.469 282.788C137.951 282.405 134.41 282.158 130.907 281.675C129.891 281.537 128.836 281.014 128.424 282.271C128.211 282.906 128.764 283.776 129.072 284.918L129.065 284.911Z" fill="white"/>
<path d="M353.997 124.573C352.871 127.431 351.519 130.206 350.272 133.015C350.371 133.071 350.477 133.134 350.576 133.19C350.799 132.967 351.086 132.779 351.231 132.521C352.689 129.838 354.304 127.209 355.529 124.421C356.958 121.147 358.061 117.734 359.214 114.357C359.354 113.95 358.954 113.363 358.803 112.853C358.45 113.276 357.962 113.651 357.779 114.13C356.49 117.602 355.35 121.122 353.997 124.573Z" fill="white"/>
<path d="M162.384 376.02C159.407 378.335 156.458 380.693 153.438 382.952C152.061 383.977 150.502 384.762 149.104 385.766C148.595 386.134 148.047 386.794 147.984 387.364C147.937 387.777 148.639 388.624 149.031 388.627C149.628 388.635 150.323 388.179 150.819 387.74C151.293 387.322 151.45 386.559 151.924 386.141C154.568 383.765 157.289 381.467 159.947 379.105C160.916 378.248 161.787 377.278 162.701 376.365C162.588 376.252 162.49 376.139 162.384 376.02Z" fill="white"/>
<path d="M133.625 344.297C132.783 344.52 131.706 344.076 131.594 345.287C131.53 345.913 132.199 346.596 132.338 346.851C139.155 343.47 145.614 340.264 152.073 337.058C152.018 336.931 151.955 336.796 151.899 336.669C148.018 338.311 144.13 339.96 140.249 341.602C138.048 342.536 135.901 343.683 133.625 344.297Z" fill="white"/>
<path d="M176.139 337.608C173.72 338.857 171.323 340.128 168.884 341.328C164.779 343.335 160.646 345.271 156.547 347.285C156.125 347.496 155.643 347.992 155.582 348.406C155.521 348.819 155.827 349.499 156.187 349.701C156.506 349.876 157.177 349.684 157.571 349.445C160.106 347.853 162.565 346.14 165.114 344.576C168.81 342.317 172.561 340.143 176.285 337.941C176.243 337.827 176.201 337.728 176.16 337.615L176.139 337.608Z" fill="white"/>
<path d="M113.458 307.418C112.831 307.496 112.019 307.633 111.694 308.056C111.413 308.407 111.501 309.531 111.819 309.734C112.292 310.049 113.146 310.026 113.767 309.87C114.887 309.595 115.939 308.979 117.059 308.732C121.032 307.843 125.025 307.047 129.011 306.215C128.992 305.952 128.974 305.703 128.948 305.447C126.568 305.785 124.202 306.152 121.822 306.447C119.036 306.797 116.237 307.061 113.458 307.418Z" fill="white"/>
<path d="M376.352 148.941C373.795 152.569 371.188 156.175 368.603 159.789C368.772 159.915 368.949 160.048 369.118 160.175C370.985 157.914 372.838 155.653 374.711 153.399C376.196 151.604 377.716 149.845 379.187 148.05C379.67 147.455 380.217 146.823 380.402 146.131C380.462 145.888 379.255 144.983 379.068 145.099C378.402 145.511 377.861 146.193 377.406 146.86C376.972 147.504 376.793 148.318 376.345 148.948L376.352 148.941Z" fill="white"/>
<path d="M376.652 169.708C373.927 173.067 371.181 176.418 368.442 179.777C371.86 176.796 375.031 173.624 378.196 170.446C379.296 169.345 380.375 168.238 381.468 167.131C379.223 165.504 379.18 165.547 377.822 168.087C377.51 168.667 377.07 169.191 376.638 169.708L376.652 169.708Z" fill="white"/>
<path d="M381.525 167.159C381.582 167.101 381.64 167.029 381.691 166.965C381.633 167.008 381.583 167.044 381.526 167.088C381.511 167.102 381.497 167.116 381.475 167.138C381.489 167.152 381.503 167.166 381.517 167.18L381.525 167.159Z" fill="white"/>
<path d="M177.006 146.452C176.622 146.442 175.884 146.983 175.881 147.268C175.881 147.915 176.072 148.696 176.48 149.175C177.653 150.536 179.029 151.71 180.21 153.064C182.557 155.771 184.812 158.558 187.103 161.309C187.232 161.208 187.354 161.114 187.476 161.006C185.955 158.823 184.341 156.691 182.92 154.437C181.409 152.048 179.224 150.064 178.643 147.082C178.583 146.748 177.583 146.453 177.007 146.437L177.006 146.452Z" fill="white"/>
<path d="M265.348 100.243C265.685 102.68 266.215 105.079 266.524 107.517C266.852 110.089 267.017 112.699 267.245 115.286C267.445 115.284 267.651 115.275 267.843 115.266C267.953 114.325 268.148 113.384 268.144 112.445C268.159 108.275 268.161 104.105 268.077 99.9366C268.068 99.4102 267.591 98.7748 267.146 98.4451C266.892 98.2628 266.093 98.442 265.834 98.7294C265.503 99.0886 265.275 99.7528 265.334 100.229L265.348 100.243Z" fill="white"/>
<path d="M140.146 214.715C141.138 215.145 142.267 215.283 143.259 215.728C147.529 217.654 151.77 219.651 156.018 221.627C156.106 221.455 156.2 221.29 156.287 221.119C153.896 219.806 151.469 218.558 149.128 217.167C146.533 215.636 144.018 213.955 141.43 212.417C140.998 212.158 140.266 212.131 139.794 212.321C139.458 212.459 139.088 213.182 139.155 213.551C139.243 213.998 139.707 214.52 140.146 214.715Z" fill="white"/>
<path d="M335.486 127.664C334.516 130.549 333.405 133.393 332.393 136.264C332.062 137.199 331.881 138.183 331.629 139.154C331.806 139.216 331.998 139.278 332.175 139.34C332.693 138.118 333.19 136.874 333.751 135.666C335.367 132.205 337.054 128.772 338.635 125.29C338.861 124.782 338.791 123.993 338.554 123.484C338.401 123.158 337.494 122.826 337.265 122.985C336.734 123.36 336.23 123.978 336.038 124.592C335.729 125.577 335.817 126.686 335.486 127.664Z" fill="white"/>
<path d="M274.764 137.086C274.765 136.325 275.029 135.568 275.094 134.799C275.15 134.165 275.072 133.525 275.057 132.892C274.366 132.935 273.5 132.759 273.034 133.113C272.704 133.358 272.843 134.332 272.886 134.964C272.924 135.462 273.232 135.943 273.262 136.433C273.434 139.05 273.541 141.674 273.72 144.284C273.842 146.175 274.043 148.059 274.215 149.943C274.336 149.934 274.443 149.926 274.564 149.917C274.671 149.205 274.871 148.484 274.864 147.773C274.852 144.208 274.776 140.651 274.771 137.079L274.764 137.086Z" fill="white"/>
<path d="M204.09 164.374C204.09 164.374 204.097 164.366 204.105 164.359C203.95 164.133 203.803 163.914 203.649 163.688C203.775 163.914 203.908 164.134 204.026 164.353C204.048 164.36 204.069 164.367 204.09 164.374Z" fill="white"/>
<path d="M204.842 167.93C205.105 168.034 205.271 168.417 205.453 168.685C207.316 171.54 209.114 174.431 211.063 177.229C212.226 178.91 213.611 180.439 214.89 182.034C212.476 177.491 210.011 172.999 207.139 168.803C206.136 167.34 206.354 164.926 204.09 164.374C203.471 165.753 202.844 167.112 204.842 167.93Z" fill="white"/>
<path d="M120.45 270.615C121.255 270.599 122.063 270.171 122.867 270.169C126.062 270.157 129.263 270.251 132.457 270.296C132.481 270.075 132.498 269.861 132.521 269.64C131.384 269.482 130.233 269.323 129.097 269.164C126.177 268.761 123.257 268.315 120.322 267.998C119.597 267.92 118.741 268.086 118.118 268.441C117.882 268.578 117.911 269.916 118.214 270.119C118.815 270.518 119.689 270.63 120.45 270.615Z" fill="white"/>
<path d="M275.05 124.802C275.093 126.111 275.222 127.419 275.322 128.727L276.048 128.677C276.131 126.876 276.179 125.068 276.312 123.259C276.536 120.218 276.845 117.191 277.006 114.144C277.032 113.681 276.562 113.039 276.138 112.773C275.82 112.57 275.086 112.684 274.741 112.944C274.411 113.19 274.156 113.826 274.201 114.245C274.312 115.204 274.786 116.124 274.84 117.084C274.984 119.644 274.963 122.227 275.05 124.788L275.05 124.802Z" fill="white"/>
<path d="M165.791 370.064C168.298 367.867 170.896 365.762 173.452 363.614C173.388 363.537 173.339 363.459 173.276 363.381C171.75 364.429 170.223 365.477 168.696 366.525C165.263 368.902 161.823 371.258 158.417 373.678C157.987 373.981 157.653 374.611 157.584 375.131C157.545 375.423 158.108 376.058 158.428 376.061C158.925 376.085 159.547 375.815 159.935 375.469C161.918 373.698 163.795 371.807 165.792 370.049L165.791 370.064Z" fill="white"/>
<path d="M226.236 174.208C226.209 174.08 226.21 173.952 226.154 173.839C223.681 168.187 221.215 162.528 218.692 156.898C218.532 156.536 217.866 156.202 217.461 156.228C217.041 156.253 216.446 156.665 216.285 157.051C216.139 157.423 216.331 158.047 216.584 158.428C217.816 160.308 219.256 162.064 220.374 164.002C222.316 167.383 224.072 170.879 225.9 174.318C226.015 174.274 226.129 174.23 226.236 174.194L226.236 174.208Z" fill="white"/>
<path d="M305.984 153.435C307.46 148.453 308.949 143.485 310.368 138.489C310.509 138.011 310.332 137.258 310.001 136.913C309.726 136.639 308.902 136.562 308.544 136.779C308.142 137.025 307.837 137.683 307.782 138.189C307.664 139.208 307.866 140.273 307.713 141.285C307.323 143.829 306.763 146.347 306.345 148.877C306.094 150.395 305.978 151.933 305.799 153.465C305.863 153.457 305.92 153.443 305.984 153.435Z" fill="white"/>
<path d="M128.768 228.923C128.528 228.684 127.444 228.909 127.056 229.269C126.676 229.607 126.489 230.442 126.612 230.953C126.694 231.293 127.459 231.556 127.963 231.657C128.773 231.819 129.649 231.732 130.444 231.923C133.73 232.735 136.993 233.625 140.271 234.487C140.345 234.301 140.418 234.13 140.491 233.944C139.052 233.368 137.599 232.85 136.197 232.21C133.74 231.091 130.809 231.036 128.768 228.923Z" fill="white"/>
<path d="M354.854 162.019C355.107 161.653 355.291 161.018 355.146 160.671C354.986 160.295 354.343 159.868 354.001 159.929C353.602 160.004 353.183 160.549 352.965 160.979C352.681 161.558 352.702 162.298 352.376 162.849C349.115 168.419 345.812 173.961 342.516 179.511C342.636 179.559 342.75 179.615 342.877 179.67C344.7 176.89 346.494 174.082 348.366 171.337C350.498 168.205 352.715 165.144 354.854 162.019Z" fill="white"/>
<path d="M204.634 150.621C204.186 150.619 203.476 151.103 203.337 151.524C203.19 151.953 203.481 152.647 203.79 153.07C204.905 154.631 206.191 156.076 207.249 157.68C209.063 160.443 210.754 163.3 212.496 166.121L212.897 165.889C212.34 164.728 211.79 163.559 211.233 162.398C209.486 158.767 207.774 155.127 205.969 151.525C205.746 151.086 205.103 150.63 204.648 150.621L204.634 150.621Z" fill="white"/>
<path d="M147.281 317.193C147.563 317.475 148.237 317.603 148.637 317.47C151.386 316.566 154.101 315.541 156.843 314.63C159.699 313.675 162.583 312.79 165.467 311.878C165.398 311.722 165.335 311.573 165.266 311.417C163.147 311.916 161.042 312.472 158.91 312.915C155.266 313.686 151.601 314.379 147.943 315.151C147.551 315.233 146.943 315.531 146.89 315.81C146.8 316.252 146.957 316.897 147.274 317.2L147.281 317.193Z" fill="white"/>
<path d="M135.284 264.78C135.5 265.169 136.194 265.46 136.706 265.498C138.512 265.621 140.342 265.552 142.148 265.675C144.942 265.852 147.721 266.128 150.508 266.355C150.517 266.177 150.533 266.006 150.542 265.828C150.173 265.733 149.811 265.615 149.442 265.534C145.325 264.624 141.208 263.7 137.076 262.847C136.565 262.739 135.781 262.861 135.45 263.206C135.14 263.515 135.06 264.384 135.284 264.78Z" fill="white"/>
<path d="M145.791 344.425C142.405 345.699 139.019 346.944 135.653 348.282C135.21 348.457 134.734 349.074 134.665 349.537C134.589 350.022 134.907 350.944 135.205 351.012C135.815 351.148 136.614 350.983 137.2 350.678C137.873 350.329 138.336 349.584 138.995 349.207C142.03 347.482 145.1 345.82 148.163 344.137C148.087 343.974 148.017 343.804 147.941 343.641C147.226 343.905 146.498 344.168 145.784 344.432L145.791 344.425Z" fill="white"/>
<path d="M135.613 308.344C135.164 308.413 134.441 308.812 134.402 309.104C134.332 309.681 134.502 310.455 134.882 310.835C135.15 311.102 135.969 310.973 136.476 310.804C137.712 310.399 138.871 309.761 140.127 309.42C143.631 308.465 147.148 307.61 150.658 306.719C150.638 306.556 150.626 306.385 150.599 306.214C149.166 306.45 147.748 306.714 146.308 306.914C142.745 307.393 139.169 307.815 135.599 308.33L135.613 308.344Z" fill="white"/>
<path d="M182.813 168.583C182.441 168.096 181.783 167.754 181.181 167.554C180.94 167.472 180.187 168.013 180.206 168.191C180.292 168.852 180.433 169.64 180.848 170.084C181.819 171.098 183.042 171.875 184.049 172.868C187 175.747 189.886 178.676 192.372 181.162C189.85 178.065 186.949 174.531 184.105 170.953C183.55 170.255 183.347 169.289 182.799 168.583L182.813 168.583Z" fill="white"/>
<path d="M163.263 193.288C164.004 193.785 164.941 194.003 165.669 194.515C169.023 196.891 172.321 199.326 175.957 201.97C175.642 201.482 175.573 201.298 175.446 201.171C171.846 197.772 168.26 194.374 164.61 191.039C164.279 190.737 163.503 190.738 163.003 190.886C162.711 190.967 162.355 191.647 162.415 191.981C162.517 192.47 162.86 193.029 163.269 193.309L163.263 193.288Z" fill="white"/>
<path d="M201.324 197.205C201.844 197.811 202.558 198.252 203.143 198.808C203.215 198.736 203.287 198.664 203.358 198.592C203.589 198.362 203.819 198.132 204.049 197.902C203.557 197.338 203.079 196.773 202.587 196.209C202.32 195.899 201.607 195.978 201.103 195.876C201.162 196.324 201.071 196.909 201.324 197.205Z" fill="white"/>
<path d="M164.861 294.487C163.836 294.555 162.796 294.608 161.771 294.69C156.687 295.071 151.595 295.445 146.503 295.862C146.133 295.895 145.582 296.192 145.458 296.499C145.312 296.857 145.419 297.467 145.658 297.764C145.883 298.032 146.457 298.189 146.835 298.121C147.398 298.023 147.901 297.562 148.457 297.471C153.91 296.581 159.376 295.733 164.836 294.879C164.837 294.751 164.853 294.622 164.854 294.494L164.861 294.487Z" fill="white"/>
<path d="M364.862 162.304C364.413 162.387 363.931 162.926 363.655 163.384C362.866 164.666 362.24 166.039 361.451 167.321C359.873 169.857 358.217 172.343 356.59 174.858C356.71 174.935 356.823 175.005 356.943 175.082C357.13 174.895 357.331 174.722 357.504 174.521C360.364 171.168 363.238 167.829 366.056 164.433C366.381 164.039 366.61 163.19 366.407 162.857C366.184 162.475 365.368 162.221 364.876 162.304L364.862 162.304Z" fill="white"/>
<path d="M191.463 177.635C191.366 177.999 191.702 178.579 192.018 178.924C192.581 179.544 193.302 180.006 193.864 180.626C197.417 184.481 200.948 188.357 204.486 192.226C204.593 192.161 204.708 192.089 204.815 192.023C201.781 188.327 198.724 184.652 195.747 180.913C194.946 179.911 194.433 178.692 193.697 177.626C193.445 177.258 192.965 176.808 192.588 176.819C192.197 176.83 191.566 177.278 191.47 177.642L191.463 177.635Z" fill="white"/>
<path d="M254.232 152.239C254.14 151.571 253.94 150.925 253.791 150.272C253.14 150.528 252.49 150.784 252.233 150.886C253.781 157.238 255.193 163.008 256.59 168.778C256.188 164.421 255.394 160.174 254.642 155.913C254.427 154.705 254.39 153.461 254.225 152.246L254.232 152.239Z" fill="white"/>
<path d="M323.913 150.235C323.695 149.96 323.043 149.711 322.778 149.849C322.392 150.052 322.052 150.575 321.934 151.018C321.704 151.881 321.758 152.813 321.507 153.669C320.097 158.487 318.63 163.291 317.192 168.095C317.327 168.143 317.461 168.206 317.596 168.254C318.203 166.661 318.79 165.061 319.411 163.468C320.955 159.46 322.527 155.466 324.035 151.451C324.167 151.094 324.138 150.503 323.927 150.235L323.913 150.235Z" fill="white"/>
<path d="M345.843 185.139C346.997 183.676 348.165 182.212 349.298 180.741C351.766 177.527 354.226 174.321 356.651 171.079C356.918 170.713 356.996 170.086 356.922 169.625C356.889 169.39 356.281 169.055 356.003 169.108C355.554 169.191 354.981 169.481 354.771 169.861C354.111 170.999 353.706 172.291 353.012 173.409C350.58 177.291 348.084 181.124 345.603 184.971C345.688 185.027 345.766 185.09 345.843 185.139Z" fill="white"/>
<path d="M164.946 260.254C160.473 259.305 156 258.342 151.505 257.5C151.008 257.406 150.347 258.011 149.768 258.294C150.218 258.759 150.581 259.424 151.134 259.632C151.715 259.839 152.48 259.511 153.148 259.589C157.639 260.125 162.116 260.704 166.6 261.275C166.644 261.133 166.702 260.99 166.747 260.847C166.144 260.647 165.556 260.39 164.938 260.261L164.946 260.254Z" fill="white"/>
<path d="M171.153 205.493C170.895 205.595 170.646 206.309 170.742 206.65C170.858 207.068 171.281 207.477 171.677 207.7C172.328 208.077 173.116 208.219 173.767 208.596C177.543 210.819 181.297 213.091 185.059 215.343C185.131 215.257 185.203 215.171 185.268 215.077C185.042 214.852 184.839 214.591 184.585 214.394C180.61 211.441 176.643 208.48 172.624 205.584C172.271 205.332 171.574 205.325 171.146 205.486L171.153 205.493Z" fill="white"/>
<path d="M185.232 351.721C182.71 353.37 180.069 354.842 177.512 356.456C177.197 356.659 176.885 357.224 176.931 357.572C176.99 358.02 177.325 358.628 177.701 358.774C178.062 358.905 178.748 358.67 179.078 358.368C180.206 357.353 181.151 356.14 182.314 355.174C185.602 352.45 188.952 349.818 192.289 347.142C192.212 347.065 192.156 346.98 192.086 346.896C189.806 348.514 187.568 350.202 185.232 351.721Z" fill="white"/>
<path d="M311.575 148.9C311.693 148.472 311.522 147.855 311.27 147.473C311.129 147.261 310.419 147.141 310.204 147.299C309.838 147.581 309.52 148.096 309.451 148.545C309.291 149.508 309.416 150.51 309.228 151.458C308.333 156.043 307.367 160.614 306.422 165.192C306.578 165.219 306.727 165.238 306.891 165.258C307.052 164.758 307.214 164.258 307.362 163.759C308.78 158.806 310.206 153.86 311.582 148.893L311.575 148.9Z" fill="white"/>
<path d="M153.213 307.98C153.053 308.337 153.074 309.063 153.306 309.238C153.645 309.491 154.299 309.555 154.728 309.423C155.841 309.069 156.88 308.453 158.007 308.157C162.139 307.039 166.291 306.013 170.429 304.945C170.395 304.81 170.353 304.668 170.326 304.526C169.107 304.745 167.881 304.986 166.655 305.184C162.507 305.868 158.366 306.531 154.224 307.236C153.846 307.304 153.366 307.644 153.213 307.98Z" fill="white"/>
<path d="M221.525 152.051C221.127 151.969 220.39 152.397 220.186 152.798C219.99 153.177 220.175 153.865 220.42 154.296C221.048 155.428 221.87 156.451 222.47 157.598C223.92 160.372 225.278 163.182 226.679 165.978C226.829 165.912 226.979 165.847 227.129 165.781C226.506 164.151 225.861 162.528 225.281 160.884C224.376 158.325 223.542 155.736 222.609 153.192C222.436 152.717 221.951 152.131 221.511 152.051L221.525 152.051Z" fill="white"/>
<path d="M154.678 359.181C154.604 359.523 155.058 360.251 155.406 360.34C155.86 360.463 156.559 360.285 156.968 359.975C158.819 358.575 160.592 357.055 162.436 355.634C164.122 354.342 165.864 353.135 167.584 351.893C167.501 351.752 167.424 351.618 167.34 351.476C165.807 352.389 164.296 353.351 162.736 354.207C160.417 355.484 158.049 356.655 155.73 357.932C155.28 358.185 154.783 358.696 154.679 359.166L154.678 359.181Z" fill="white"/>
<path d="M267.12 152.109C266.787 151.949 266.11 152.006 265.887 152.243C265.585 152.56 265.429 153.18 265.495 153.621C265.636 154.452 266.09 155.223 266.21 156.061C266.792 160.253 267.323 164.452 267.87 168.652C268.012 168.636 268.155 168.62 268.297 168.605C268.247 167.289 268.19 165.966 268.154 164.65C268.038 160.823 267.943 156.989 267.784 153.163C267.767 152.786 267.452 152.27 267.127 152.116L267.12 152.109Z" fill="white"/>
<path d="M285.621 151.266C285.324 151.07 284.642 151.021 284.405 151.229C284.067 151.525 283.812 152.118 283.821 152.573C283.835 153.32 284.233 154.049 284.225 154.789C284.15 159.23 284.003 163.686 283.885 168.127C283.991 168.133 284.098 168.124 284.198 168.123C284.29 168.115 284.383 168.107 284.468 168.106C284.61 166.796 284.752 165.485 284.894 164.174C285.306 160.256 285.738 156.331 286.107 152.4C286.147 152.022 285.925 151.469 285.628 151.273L285.621 151.266Z" fill="white"/>
<path d="M170.594 215.289C170.717 215.715 171.147 216.159 171.557 216.354C172.06 216.597 172.751 216.469 173.247 216.734C176.933 218.709 180.597 220.719 184.262 222.73C184.348 222.615 184.435 222.5 184.522 222.386C184.246 222.168 183.971 221.965 183.674 221.768C179.944 219.246 176.214 216.724 172.447 214.252C172.08 214.014 171.419 213.943 171.026 214.111C170.747 214.235 170.483 214.949 170.572 215.297L170.594 215.289Z" fill="white"/>
<path d="M162.313 182.846C162.814 183.203 163.568 183.252 164.041 183.638C166.721 185.83 169.359 188.079 172.003 190.307C172.133 190.177 172.262 190.048 172.384 189.926C170.92 188.461 169.434 187.018 167.991 185.532C166.611 184.095 165.304 182.6 163.932 181.156C163.566 180.776 162.96 180.156 162.675 180.259C162.117 180.464 161.507 181.033 161.323 181.582C161.22 181.882 161.875 182.537 162.32 182.853L162.313 182.846Z" fill="white"/>
<path d="M331.34 177.928C331.841 176.991 332.321 176.047 332.843 175.13C335.039 171.272 337.264 167.427 339.433 163.555C339.658 163.161 339.736 162.52 339.562 162.131C339.437 161.833 338.792 161.577 338.436 161.637C338.094 161.698 337.711 162.164 337.565 162.536C337.258 163.336 337.199 164.226 336.849 164.998C334.904 169.295 332.895 173.571 330.907 177.855C331.049 177.881 331.198 177.915 331.34 177.942L331.34 177.928Z" fill="white"/>
<path d="M351.336 195.292C351.413 195.369 351.491 195.447 351.561 195.517C352.771 194.124 353.967 192.702 355.227 191.359C357.717 188.7 360.277 186.111 362.76 183.445C363.034 183.157 363.197 182.558 363.086 182.203C362.99 181.877 362.489 181.505 362.134 181.466C361.778 181.427 361.27 181.71 361.025 182.012C360.708 182.399 360.673 183.012 360.363 183.42C357.368 187.387 354.345 191.339 351.329 195.285L351.336 195.292Z" fill="white"/>
<path d="M173.713 372.506C174.183 372.558 174.827 372.209 175.201 371.835C176.883 370.153 178.496 368.4 180.143 366.682C181.136 365.646 182.164 364.661 183.178 363.647C183.051 363.52 182.932 363.386 182.812 363.252C182.583 363.354 182.334 363.407 182.14 363.558C179.207 365.745 176.259 367.918 173.368 370.147C173.003 370.429 172.633 371.066 172.707 371.456C172.781 371.875 173.323 372.46 173.721 372.499L173.713 372.506Z" fill="white"/>
<path d="M107.564 280.727C107.78 281.23 108.422 281.7 108.997 281.871C110.337 282.277 111.737 282.469 113.099 282.81C114.455 283.144 115.781 283.564 117.122 283.941C117.224 283.727 117.326 283.512 117.42 283.305C116.968 282.982 116.538 282.624 116.057 282.359C113.963 281.228 111.869 280.084 109.717 279.053C109.278 278.844 108.466 278.924 108.093 279.213C107.72 279.501 107.405 280.351 107.571 280.734L107.564 280.727Z" fill="white"/>
<path d="M173.538 345.391C173.512 345.783 173.961 346.404 174.336 346.55C174.705 346.688 175.355 346.475 175.735 346.207C177.656 344.807 179.515 343.314 181.43 341.906C183.079 340.708 184.756 339.537 186.419 338.367C186.335 338.24 186.237 338.113 186.153 337.986C185.931 338.095 185.717 338.197 185.502 338.313C181.817 340.28 178.125 342.24 174.467 344.25C174.052 344.482 173.563 344.985 173.538 345.391Z" fill="white"/>
<path d="M219.192 174.154C218.744 174.138 218.051 174.38 217.863 174.723C217.674 175.067 217.866 175.762 218.118 176.144C218.77 177.112 219.622 177.935 220.266 178.91C221.275 180.451 222.261 182.013 223.248 183.575C223.484 183.451 223.713 183.321 223.949 183.197C222.662 180.457 221.439 177.681 220.137 174.955C219.97 174.601 219.519 174.165 219.178 174.154L219.192 174.154Z" fill="white"/>
<path d="M201.98 170.85C201.763 170.475 201.198 170.054 200.828 170.086C200.351 170.127 199.642 170.526 199.51 170.925C199.37 171.361 199.633 172.07 199.963 172.472C201.108 173.847 202.383 175.122 203.55 176.475C204.857 177.999 206.1 179.572 207.371 181.131C207.464 181.066 207.55 181.008 207.65 180.95C206.868 179.621 206.049 178.313 205.302 176.962C204.185 174.939 203.132 172.865 201.987 170.857L201.98 170.85Z" fill="white"/>
<path d="M229.755 154.988C229.585 154.89 228.79 155.361 228.73 155.646C228.603 156.266 228.609 157.02 228.859 157.573C229.395 158.741 230.188 159.779 230.774 160.925C231.812 162.956 232.765 165.031 233.754 167.084C233.833 167.048 233.904 167.004 233.976 166.975C232.989 163.399 232.045 159.809 230.994 156.255C230.843 155.73 230.257 155.274 229.748 154.981L229.755 154.988Z" fill="white"/>
<path d="M242.294 159.473C241.933 159.384 241.254 159.612 241.087 159.905C240.877 160.271 240.942 160.896 241.101 161.314C241.302 161.846 241.831 162.246 242.018 162.777C243.309 166.442 244.558 170.136 245.822 173.816C245.979 173.757 246.143 173.691 246.307 173.626C246.281 173.455 246.254 173.285 246.213 173.114C245.198 168.877 244.168 164.64 243.11 160.418C243.014 160.035 242.642 159.548 242.316 159.466L242.294 159.473Z" fill="white"/>
<path d="M159.801 290.549C160.884 290.452 161.948 290.035 163.031 289.881C165.355 289.544 167.677 289.235 170.007 288.932L169.936 288.271C166.492 288.294 163.055 288.323 159.617 288.423C159.254 288.434 158.903 289.306 158.55 289.772C158.974 290.052 159.416 290.596 159.815 290.563L159.801 290.549Z" fill="white"/>
<path d="M182.816 189.844C181.194 187.833 179.572 185.822 177.892 183.869C177.596 183.531 176.931 183.196 176.588 183.314C176.11 183.482 175.578 184.029 175.437 184.521C175.334 184.864 175.761 185.478 176.114 185.788C176.692 186.294 177.45 186.592 178.043 187.084C179.933 188.643 181.788 190.239 183.656 191.834C183.771 191.748 183.893 191.668 184.008 191.582C183.615 191.002 183.259 190.401 182.823 189.851L182.816 189.844Z" fill="white"/>
<path d="M321.853 163.349C321.973 163.398 322.094 163.447 322.214 163.495C322.504 163.008 322.829 162.528 323.077 162.013C324.364 159.345 325.68 156.678 326.89 153.975C327.087 153.525 327.011 152.686 326.708 152.383C326.384 152.059 325.58 152.004 325.088 152.158C324.752 152.269 324.482 152.933 324.378 153.376C324.117 154.495 324.062 155.663 323.773 156.769C323.187 158.974 322.502 161.151 321.86 163.342L321.853 163.349Z" fill="white"/>
<path d="M313.413 158.707C313.171 158.752 312.908 159.367 312.847 159.752C312.695 160.721 312.741 161.731 312.525 162.68C311.756 166.053 310.924 169.406 310.113 172.766C310.262 172.814 310.411 172.863 310.552 172.918C310.964 171.676 311.361 170.433 311.794 169.198C312.843 166.22 313.935 163.255 314.955 160.263C315.08 159.885 315.08 159.209 314.855 159.026C314.502 158.745 313.877 158.624 313.413 158.707Z" fill="white"/>
<path d="M174.513 314.365C170.782 315.237 167.059 316.116 163.342 317.045C162.907 317.156 162.425 317.68 162.263 318.123C162.168 318.387 162.588 319.023 162.921 319.169C163.296 319.343 163.888 319.273 164.302 319.098C165.203 318.718 166.006 318.126 166.913 317.768C169.493 316.766 172.078 315.814 174.671 314.854C174.616 314.698 174.561 314.528 174.506 314.372L174.513 314.365Z" fill="white"/>
<path d="M164.474 329.783C164.412 330.239 164.526 330.957 164.829 331.146C165.155 331.341 165.847 331.185 166.269 330.96C168.079 330.023 169.826 328.965 171.622 328.028C173.661 326.961 175.742 325.978 177.802 324.96C177.718 324.819 177.62 324.678 177.536 324.536C176.493 324.946 175.457 325.391 174.4 325.758C171.365 326.807 168.302 327.8 165.266 328.878C164.923 328.996 164.513 329.448 164.46 329.783L164.474 329.783Z" fill="white"/>
<path d="M155.604 341.582C155.118 341.786 154.486 342.348 154.439 342.789C154.392 343.217 154.933 343.859 155.379 344.103C155.669 344.264 156.319 343.951 156.706 343.705C157.752 343.039 158.714 342.218 159.781 341.573C161.922 340.277 164.106 339.051 166.268 337.79C166.205 337.656 166.142 337.536 166.08 337.401C165.136 337.795 164.2 338.211 163.235 338.584C160.692 339.578 158.12 340.531 155.597 341.575L155.604 341.582Z" fill="white"/>
<path d="M158.773 265.3C158.52 265.694 158.406 266.329 158.537 266.775C158.612 267.038 159.257 267.28 159.649 267.269C160.681 267.251 161.722 266.984 162.754 267.023C164.98 267.106 167.191 267.232 169.403 267.372C169.419 267.144 169.443 266.923 169.467 266.688C166.3 266.096 163.14 265.496 159.958 264.932C159.589 264.865 158.947 265.028 158.773 265.3Z" fill="white"/>
<path d="M355.034 182.637C354.874 182.304 354.337 181.983 353.974 181.994C353.625 182.005 353.13 182.373 352.949 182.709C352.615 183.339 352.62 184.164 352.223 184.73C350.612 187.06 348.965 189.354 347.311 191.656C347.46 191.775 347.601 191.902 347.742 192.028C350.118 189.314 352.502 186.592 354.851 183.849C355.089 183.569 355.188 182.934 355.042 182.63L355.034 182.637Z" fill="white"/>
<path d="M209.997 189.165C210.539 189.778 211.303 190.197 211.823 190.818C211.865 190.86 211.893 190.903 211.928 190.952C212.315 190.649 212.717 190.346 213.111 190.05C212.679 189.258 212.239 188.473 211.777 187.709C211.553 187.341 210.995 186.956 210.611 186.988C210.205 187.014 209.595 187.469 209.492 187.84C209.388 188.225 209.695 188.82 209.997 189.165Z" fill="white"/>
<path d="M324.417 167.165C324.313 166.945 323.646 166.739 323.417 166.869C323.002 167.101 322.591 167.54 322.423 167.976C322.181 168.626 322.23 169.379 322.024 170.05C321.31 172.313 320.567 174.577 319.825 176.84C320.08 176.923 320.335 177.006 320.591 177.088C321.937 174.278 323.283 171.481 324.579 168.65C324.761 168.243 324.626 167.604 324.424 167.172L324.417 167.165Z" fill="white"/>
<path d="M278.018 163.742C278.096 164.495 278.18 165.241 278.251 165.988C278.314 166.727 278.37 167.459 278.427 168.192C278.619 168.197 278.818 168.195 279.01 168.2C279.259 168.19 279.501 168.187 279.75 168.178C279.88 166.639 280.011 165.087 280.148 163.484C279.586 163.554 278.802 163.648 278.018 163.742Z" fill="white"/>
<path d="M227.542 145.526C227.413 144.965 227.102 144.065 226.783 144.033C226.193 143.975 225.364 144.283 224.975 144.742C224.687 145.073 224.777 145.968 225.021 146.442C225.669 147.695 226.525 148.838 227.238 150.055C227.706 150.868 228.074 151.754 228.478 152.603C228.628 152.552 228.785 152.493 228.935 152.442C228.779 151.725 228.616 151.015 228.467 150.291C228.156 148.7 227.896 147.102 227.535 145.533L227.542 145.526Z" fill="white"/>
<path d="M355.258 199.228C355.984 198.501 356.681 197.804 357.386 197.156C359.376 195.321 361.451 193.584 363.441 191.748C363.735 191.482 363.927 190.897 363.867 190.52C363.807 190.144 363.364 189.572 363.073 189.568C362.631 189.573 362.052 189.885 361.763 190.244C359.55 193.035 357.335 195.883 354.962 198.918C355.061 199.016 355.159 199.115 355.265 199.221L355.258 199.228Z" fill="white"/>
<path d="M234.486 178.589C234.965 178.42 235.45 178.259 235.936 178.097C235.681 177.31 235.433 176.53 235.164 175.743C235.033 175.353 234.495 175.017 234.07 174.865C233.808 174.775 233.158 175.031 233.106 175.224C232.98 175.688 232.981 176.292 233.183 176.71C233.482 177.34 234.089 177.818 234.409 178.44C234.43 178.49 234.458 178.532 234.479 178.582L234.486 178.589Z" fill="white"/>
<path d="M162.944 273.225C164.211 273.198 165.48 272.985 166.746 272.972C167.494 272.957 168.248 272.963 169.002 272.955C169.013 272.592 169.053 272.229 169.064 271.866C166.967 271.596 164.871 271.326 162.775 271.085C162.405 271.047 161.847 271.294 161.631 271.595C161.421 271.889 161.35 272.609 161.547 272.792C161.878 273.094 162.46 273.23 162.944 273.225Z" fill="white"/>
<path d="M195.8 350.265C194.08 351.407 192.318 352.493 190.598 353.65C190.29 353.859 190.007 354.396 190.046 354.737C190.099 355.121 190.484 355.679 190.804 355.739C191.209 355.813 191.823 355.579 192.132 355.27C192.945 354.486 193.567 353.511 194.393 352.741C195.047 352.13 195.715 351.518 196.376 350.913C196.179 350.702 195.983 350.476 195.786 350.265L195.8 350.265Z" fill="white"/>
<path d="M335.197 183.324C335.905 182.263 336.614 181.202 337.301 180.121C337.504 179.806 336.985 179.043 336.792 178.49C336.27 178.758 335.478 178.902 335.289 179.317C334.779 180.389 334.334 181.497 333.888 182.605C334.327 182.842 334.765 183.079 335.197 183.324Z" fill="white"/>
<path d="M280.143 158.646C280.312 160.124 280.353 161.618 280.444 163.104C280.565 163.124 280.686 163.13 280.807 163.15C281.262 160.484 281.774 157.818 282.101 155.125C282.14 154.775 281.227 154.337 280.755 153.936C280.336 154.496 279.604 155.044 279.577 155.607C279.545 156.61 280.018 157.616 280.136 158.639L280.143 158.646Z" fill="white"/>
<path d="M345.625 190.3C346.584 189.13 347.543 187.96 348.473 186.777C348.697 186.497 348.454 185.852 348.424 185.375C347.917 185.516 347.241 185.502 346.939 185.832C346.522 186.278 346.485 187.047 346.117 187.57C345.654 188.244 345.184 188.91 344.715 189.577C345.018 189.809 345.322 190.054 345.625 190.286L345.625 190.3Z" fill="white"/>
<path d="M200.869 182.353C200.586 182.861 200.476 183.858 200.785 184.211C202.367 185.994 204.108 187.619 205.798 189.309C205.941 189.236 206.084 189.15 206.227 189.077C205.006 186.82 203.841 184.534 202.513 182.342C202.352 182.081 201.007 182.102 200.869 182.353Z" fill="white"/>
<path d="M165.092 300.888C165.375 301.113 165.922 301.157 166.3 301.061C167.428 300.764 168.521 300.304 169.648 300.008C170.184 299.867 170.719 299.74 171.254 299.614C171.215 299.258 171.169 298.896 171.13 298.541C169.3 298.681 167.469 298.821 165.639 298.976C165.276 299.015 164.752 299.426 164.649 299.755C164.553 300.076 164.803 300.657 165.092 300.888Z" fill="white"/>
<path d="M197.016 196.852C197.168 196.63 197.312 196.415 197.464 196.192C195.347 194.507 192.684 193.311 192.019 190.287C191.978 190.117 190.824 190.215 190.184 190.193C190.192 190.776 189.948 191.654 190.245 191.879C192.446 193.606 194.742 195.211 197.009 196.845L197.016 196.852Z" fill="white"/>
<path d="M182.804 195.686C183.729 196.38 184.943 196.702 185.824 197.425C188.131 199.329 190.329 201.37 192.564 203.36C192.701 203.194 192.838 203.044 192.975 202.878C188.912 199.492 184.849 196.105 180.787 192.719C180.621 192.884 180.456 193.049 180.29 193.215C181.121 194.046 181.88 194.977 182.812 195.678L182.804 195.686Z" fill="white"/>
<path d="M332.91 171.415C333.171 171.028 333.087 170.197 332.842 169.765C332.675 169.468 331.922 169.377 331.451 169.438C331.095 169.485 330.557 169.882 330.49 170.203C330.086 172.014 329.797 173.853 329.426 175.913C330.703 174.299 331.891 172.913 332.91 171.415Z" fill="white"/>
</g>
<defs>
<clipPath id="clip0_8_445">
<rect width="281" height="291" fill="white"/>
</clipPath>
</defs>
</svg>
