<svg width="94" height="39" viewBox="0 0 94 39" fill="none" xmlns="http://www.w3.org/2000/svg">
<path fill-rule="evenodd" clip-rule="evenodd" d="M15.3084 9.0038C18.1333 9.14307 20.8568 10.1005 23.1475 11.7596V9.86662H29.2154V37.5508H23.1475V35.4283C21.0807 36.9246 18.6575 37.8525 16.1198 38.1195C13.5823 38.3865 11.0191 37.9833 8.68607 36.9501C6.35304 35.9167 4.3317 34.2897 2.82363 32.2309C1.31569 30.1722 0.373924 27.7538 0.0921542 25.2174C-0.225181 22.4062 0.281008 19.5636 1.54943 17.035C2.81786 14.5065 4.79352 12.4013 7.23641 10.9754C9.67915 9.54961 12.4836 8.86452 15.3084 9.0038ZM20.6081 29.6793C22.2177 28.087 23.1309 25.9215 23.1475 23.6571V23.5308C23.1309 21.2665 22.2177 19.1009 20.6081 17.5086C18.9983 15.9162 16.8234 15.0269 14.5594 15.0353C12.2954 15.0436 10.1271 15.949 8.52924 17.5531C6.93127 19.1574 6.03413 21.3295 6.03413 23.594C6.03413 25.8585 6.93127 28.0306 8.52924 29.6348C10.1271 31.2389 12.2954 32.1444 14.5594 32.1526C16.8234 32.161 18.9983 31.2717 20.6081 29.6793ZM93.9541 15.6146L80.3732 31.9864H94V37.5278H72.9977V31.9864L86.5442 15.6146H72.9977V10.0731H93.9541V15.6146ZM33.3103 5.59871H29.3301V0.0458121H39.4241V37.5622H33.3103V5.59871ZM56.1363 10.3255H57.6733V10.2911C61.1554 10.5076 64.4303 12.0192 66.8544 14.5286C69.2784 17.0382 70.6761 20.364 70.7726 23.852C70.837 27.6021 69.4099 31.2242 66.8051 33.922C64.2004 36.6199 60.6311 38.1727 56.882 38.2391H56.469C52.8478 38.2584 49.3546 36.901 46.6963 34.4416C45.334 33.1874 44.2387 31.6711 43.4759 29.9837C42.7133 28.2962 42.2987 26.4723 42.2572 24.6207C42.2412 21.1694 43.4162 17.8183 45.5836 15.1327L56.8017 0H64.0853L56.1363 10.3255ZM53.7381 32.2521C54.7115 32.603 55.7456 32.7545 56.7787 32.6977V32.6633C57.8623 32.6122 58.925 32.3459 59.9047 31.8801C60.8844 31.4142 61.7617 30.758 62.4855 29.9497C63.2093 29.1415 63.7651 28.1973 64.1204 27.1721C64.4758 26.1469 64.6238 25.0613 64.5556 23.9783C64.5253 22.8434 64.2705 21.7258 63.8059 20.6899C63.3412 19.6542 62.6759 18.7208 61.8486 17.9435C60.3843 16.6189 58.4776 15.8904 56.5033 15.9014H56.1249C55.0974 15.9277 54.0855 16.1583 53.1481 16.5798C52.2107 17.0014 51.3665 17.6054 50.6649 18.3566C49.8978 19.2032 49.3071 20.1943 48.9269 21.2717C48.5469 22.3492 48.3852 23.4916 48.4512 24.6323C48.4707 25.763 48.7162 26.8784 49.1733 27.9128C49.6302 28.9473 50.2896 29.8799 51.1123 30.6555C51.8718 31.3583 52.7647 31.9014 53.7381 32.2521Z" fill="white"/>
</svg>
