<svg width="158" height="31" viewBox="0 0 158 31" fill="none" xmlns="http://www.w3.org/2000/svg">
<path d="M11.0047 23.3365L10.9399 21.1217C10.1586 21.9253 9.23344 22.5751 8.21248 23.0375C7.29382 23.4292 6.30496 23.6294 5.30632 23.626C4.48908 23.6447 3.67468 23.5232 2.89848 23.2669C2.28503 23.0586 1.72379 22.7202 1.25318 22.275C0.825435 21.8617 0.500361 21.354 0.303964 20.7926C0.0973802 20.1998 -0.00537615 19.5758 0.000216591 18.948C0.000216591 17.2996 0.614567 16.0085 1.84327 15.0752C3.07197 14.1418 4.88655 13.6751 7.287 13.6751H10.6947V12.2339C10.6947 11.2615 10.3835 10.4836 9.76128 9.9004C9.13901 9.31715 8.18875 9.0229 6.91048 9.01763C5.98704 9.01899 5.06676 9.12515 4.16726 9.33403C3.21623 9.55865 2.2834 9.85427 1.37658 10.2184V7.6476C1.7357 7.51629 2.13752 7.38815 2.57891 7.26317C3.02029 7.13819 3.48857 7.02587 3.97899 6.92778C4.46942 6.82969 4.98358 6.75059 5.5183 6.69048C6.05672 6.63017 6.59808 6.60007 7.13987 6.60031C8.04694 6.58909 8.95143 6.69923 9.82931 6.92778C10.5645 7.11585 11.2522 7.4559 11.848 7.92604C12.4 8.37759 12.8343 8.95627 13.1136 9.61247C13.4234 10.371 13.5737 11.1853 13.555 12.0045V23.3365H11.0047ZM10.6883 15.852H7.07501C6.4565 15.8409 5.8393 15.9127 5.23987 16.0655C4.78123 16.1794 4.35062 16.3856 3.97425 16.6714C3.65653 16.9224 3.40639 17.2486 3.24652 17.6207C3.08322 18.0123 3.00243 18.4335 3.00921 18.8578C3.008 19.1666 3.05772 19.4733 3.15634 19.7659C3.25446 20.0551 3.4167 20.3186 3.63096 20.5363C3.87209 20.774 4.1627 20.9555 4.48207 21.0679C4.89309 21.2088 5.32599 21.2753 5.76034 21.2641C6.41531 21.2641 7.16572 21.0646 8.01156 20.666C8.99447 20.1711 9.89733 19.5311 10.6899 18.7677L10.6883 15.852ZM46.7346 22.7306C45.9954 23.0145 45.2303 23.2264 44.4503 23.3634C43.6552 23.5021 42.8495 23.572 42.0424 23.5722C39.4426 23.5722 37.4418 22.8682 36.0402 21.4603C34.6385 20.0522 33.9366 17.9956 33.9345 15.2904C33.9187 14.0841 34.1241 12.8852 34.5404 11.7529C34.9147 10.7339 35.4946 9.80282 36.2443 9.01763C36.9856 8.25992 37.8783 7.66696 38.8641 7.27741C39.933 6.85798 41.073 6.64953 42.2212 6.66358C43.0221 6.6602 43.822 6.72104 44.6131 6.84552C45.3424 6.96199 46.0561 7.15994 46.7409 7.43561V10.1535C46.0559 9.7911 45.3269 9.51885 44.572 9.34353C43.8227 9.17258 43.0563 9.08714 42.2875 9.08882C41.5756 9.0848 40.8701 9.22694 40.2152 9.50648C39.5675 9.78437 38.9851 10.1944 38.5049 10.7104C37.9918 11.2648 37.5943 11.9162 37.3358 12.6262C37.0413 13.4473 36.8987 14.3153 36.9151 15.1875C36.9151 17.1745 37.3981 18.6622 38.3642 19.6504C39.3303 20.6386 40.6708 21.1327 42.3856 21.1327C43.1438 21.1342 43.8994 21.0461 44.6369 20.8701C45.3678 20.6926 46.0742 20.4269 46.7409 20.0791L46.7346 22.7306ZM62.9646 23.3365L62.8981 21.1217C62.1174 21.9251 61.1928 22.575 60.1723 23.0375C59.2549 23.4301 58.2673 23.6319 57.2693 23.6307C56.4526 23.6493 55.6387 23.5279 54.863 23.2716C54.2494 23.0629 53.6877 22.7246 53.2162 22.2797C52.7895 21.8655 52.4645 21.3582 52.267 20.7974C52.0603 20.203 51.9582 19.5772 51.9648 18.948C51.9648 17.2996 52.5787 16.0085 53.8062 15.0752C55.0339 14.1418 56.8491 13.6751 59.2516 13.6751H62.6577V12.2339C62.6577 11.2615 62.3466 10.4836 61.7243 9.9004C61.1021 9.31715 60.1528 9.02501 58.8767 9.02396C57.9533 9.0251 57.0329 9.13126 56.1335 9.34037C55.1819 9.56497 54.2486 9.86058 53.3412 10.2247V7.6476C53.7018 7.51629 54.1022 7.38815 54.5451 7.26317C54.9881 7.13819 55.4531 7.02587 55.9452 6.92778C56.4372 6.82969 56.9498 6.75059 57.4844 6.69048C58.0229 6.63017 58.5643 6.60007 59.106 6.60031C60.0131 6.58885 60.9176 6.69898 61.7955 6.92778C62.5322 7.11579 63.2215 7.45583 63.8189 7.92604C64.3709 8.3775 64.8053 8.95621 65.0845 9.61247C65.3948 10.3709 65.5457 11.1852 65.5275 12.0045V23.3365H62.9646ZM62.6482 15.852H59.0397C58.4217 15.8409 57.805 15.9127 57.2061 16.0655C56.7474 16.1794 56.3168 16.3856 55.9405 16.6714C55.6222 16.9224 55.3716 17.2486 55.2111 17.6207C55.0479 18.0123 54.967 18.4335 54.9738 18.8578C54.9726 19.1666 55.0223 19.4733 55.1209 19.7659C55.22 20.0547 55.3822 20.3179 55.5956 20.5363C55.8366 20.774 56.1273 20.9555 56.4467 21.0679C56.8572 21.2087 57.2896 21.2752 57.7234 21.2641C58.3784 21.2641 59.1292 21.0646 59.9761 20.666C60.9586 20.171 61.8609 19.531 62.653 18.7677L62.6482 15.852ZM84.8882 14.8205C84.8882 16.2844 84.6831 17.5616 84.2728 18.6522C83.9106 19.6702 83.3327 20.5978 82.5785 21.3717C81.856 22.093 80.9838 22.6466 80.0235 22.9931C78.9995 23.3597 77.9187 23.5423 76.831 23.5327C76.3084 23.5331 75.7862 23.5055 75.2664 23.4504C74.7333 23.394 74.2047 23.301 73.6844 23.1719V30.0584H70.8367V6.89456H73.368L73.5642 9.65044C74.3836 8.52615 75.2574 7.73514 76.1856 7.27741C77.1221 6.82337 78.1506 6.59115 79.1914 6.59872C80.0525 6.57965 80.9039 6.78231 81.6641 7.18723C82.3882 7.59186 83.0036 8.16556 83.4581 8.85943C83.97 9.65065 84.336 10.5272 84.5386 11.4476C84.7894 12.5541 84.9104 13.686 84.8994 14.8205H84.8882ZM81.9725 14.9517C81.9777 14.1568 81.9147 13.3629 81.7843 12.5788C81.6839 11.9341 81.4821 11.3093 81.1863 10.7278C80.9415 10.2465 80.5818 9.83293 80.1389 9.52388C79.6904 9.2295 79.1631 9.07783 78.6266 9.08882C78.254 9.09043 77.8838 9.14857 77.5287 9.26127C77.1184 9.39478 76.7297 9.58772 76.3754 9.83396C75.9202 10.1473 75.4964 10.5038 75.1097 10.8987C74.5999 11.4155 74.1243 11.9651 73.686 12.544V20.5205C74.2243 20.7439 74.7819 20.9182 75.3518 21.0409C75.911 21.1642 76.4816 21.2272 77.0541 21.2292C78.594 21.2292 79.8005 20.7077 80.6737 19.6646C81.547 18.6215 81.9836 17.0506 81.9836 14.9517H81.9725ZM94.8771 9.25651H90.0251V6.89456H97.777V20.9618H102.681V23.3349H89.484V20.9618H94.8882L94.8771 9.25651ZM95.8864 0.000116401C96.1899 -0.00297899 96.4907 0.0556909 96.7708 0.172557C97.0389 0.283191 97.2817 0.447379 97.4843 0.655073C97.6846 0.861414 97.8455 1.1027 97.9589 1.36698C98.0753 1.64438 98.1339 1.94259 98.1313 2.24343C98.1322 2.54152 98.0736 2.83681 97.9589 3.11195C97.8468 3.37927 97.6858 3.62338 97.4843 3.83177C97.2814 4.03946 97.0388 4.20411 96.7708 4.31587C96.2032 4.54379 95.5697 4.54379 95.0021 4.31587C94.7348 4.20369 94.4927 4.03908 94.2902 3.83177C94.0876 3.6242 93.9266 3.37989 93.8156 3.11195C93.7008 2.83681 93.6422 2.54152 93.6431 2.24343C93.64 1.9427 93.6982 1.6445 93.814 1.36698C93.9262 1.10207 94.0872 0.860582 94.2886 0.655073C94.4915 0.450605 94.7336 0.289183 95.0005 0.180467C95.2805 0.0610169 95.5819 -0.000338664 95.8864 0.000116401ZM120.976 23.1072C120.319 23.2736 119.651 23.3915 118.978 23.4599C118.281 23.5304 117.581 23.5658 116.881 23.5658C114.819 23.5658 113.279 23.0991 112.263 22.1658C111.248 21.2324 110.741 19.7996 110.742 17.8674V9.28499H106.14V6.89456H110.742V2.37315L113.589 1.63593V6.89456H120.976V9.28499H113.589V17.638C113.589 18.8161 113.906 19.6973 114.538 20.2816C115.171 20.8658 116.096 21.158 117.313 21.158C117.889 21.1543 118.463 21.1136 119.033 21.0362C119.69 20.9475 120.341 20.8186 120.982 20.6502L120.976 23.1072ZM136.73 23.3365L136.665 21.1217C135.883 21.9253 134.958 22.5751 133.937 23.0375C133.018 23.4292 132.03 23.6294 131.031 23.626C130.212 23.6468 129.396 23.5269 128.618 23.2716C128.005 23.0633 127.444 22.725 126.973 22.2797C126.546 21.8659 126.221 21.3584 126.024 20.7974C125.818 20.2027 125.716 19.5772 125.722 18.948C125.722 17.2996 126.336 16.0085 127.565 15.0752C128.793 14.1418 130.608 13.6751 133.009 13.6751H136.416V12.2339C136.416 11.2615 136.106 10.4836 135.483 9.9004C134.86 9.31715 133.911 9.02501 132.635 9.02396C131.712 9.02533 130.792 9.13147 129.892 9.34037C128.941 9.56498 128.008 9.86059 127.101 10.2247V7.6476C127.46 7.51629 127.862 7.38815 128.304 7.26317C128.745 7.13819 129.213 7.02587 129.704 6.92778C130.194 6.82969 130.708 6.75059 131.243 6.69048C131.781 6.63022 132.323 6.60011 132.864 6.60031C133.771 6.58909 134.676 6.69923 135.554 6.92778C136.289 7.11585 136.977 7.4559 137.572 7.92604C138.125 8.37759 138.558 8.95627 138.839 9.61247C139.148 10.371 139.298 11.1853 139.28 12.0045V23.3365H136.73ZM136.412 15.852H132.8C132.181 15.8409 131.564 15.9127 130.964 16.0655C130.506 16.1794 130.075 16.3856 129.699 16.6714C129.381 16.9224 129.131 17.2486 128.971 17.6207C128.808 18.0123 128.727 18.4335 128.734 18.8578C128.733 19.1666 128.782 19.4733 128.881 19.7659C128.979 20.0551 129.141 20.3186 129.356 20.5363C129.597 20.774 129.887 20.9555 130.207 21.0679C130.618 21.2088 131.051 21.2753 131.485 21.2641C132.14 21.2641 132.891 21.0646 133.736 20.666C134.719 20.1711 135.622 19.5311 136.415 18.7677L136.412 15.852ZM150.209 2.53134H145.344V0.196287H153.096V20.9618H158V23.3349H144.804V20.9618H150.209V2.53134ZM33.6703 25.757H15.2303V23.3982H33.6703V25.757Z" fill="white"/>
</svg>
