<svg width="128" height="37" viewBox="0 0 128 37" fill="none" xmlns="http://www.w3.org/2000/svg">
<path d="M94.1121 8.59332V6.72068H85.1253V8.59332H94.1121ZM94.6946 2.16394V0.291301H83.149V2.16394V4.74401C83.149 5.84679 84.0436 6.74149 85.1461 6.74149V2.16394H94.6946ZM83.149 10.5908V13.1709V15.0435H94.6946V13.1709H85.1461V8.59332C84.0436 8.59332 83.149 9.48802 83.149 10.5908Z" fill="white"/>
<path d="M5.1799 8.44767C3.22443 8.44767 1.99708 9.40479 1.99708 11.0069C1.99708 12.4426 3.30764 13.4622 5.1799 13.4622H8.63318C10.1518 13.4622 11.2751 12.9004 11.8992 11.3815H13.9587C13.2514 14.1072 11.1087 15.3348 8.63318 15.3348H5.1799C1.89305 15.3348 0 13.2749 0 10.9653C0 9.75851 0.41605 8.5309 1.93466 7.49054C0.520065 6.51261 0.0623886 5.36822 0.0623886 4.20303C0.0623886 1.99748 1.91387 0 5.11751 0H8.57078C11.0047 0 13.1682 1.20681 13.8755 3.95334H11.816C11.2543 2.45523 10.0686 1.87264 8.57078 1.87264H5.11751C3.32846 1.87264 2.08028 2.80895 2.08028 4.20303C2.08028 5.74275 3.26606 6.59584 5.11751 6.59584H8.57078H10.2974V8.44767H8.63318H5.1799Z" fill="white"/>
<path d="M62.2006 2.16394V0.291301H50.655V4.74401C50.655 5.84679 51.5495 6.74149 52.652 6.74149V2.16394H62.2006ZM61.6181 8.59332V6.72068H52.6312V8.59332H61.6181ZM50.655 10.5908V15.0435H62.2006V13.1709H52.652V8.59332C51.5495 8.59332 50.655 9.48802 50.655 10.5908Z" fill="white"/>
<path d="M118.202 13.1709H128V15.0435H116.205V0.291301H118.202V13.1709Z" fill="white"/>
<path d="M99.9369 15.0435H97.8774L104.368 0.291301H106.552L113.022 15.0435H110.879L109.381 11.6312H101.435L99.9369 15.0435ZM105.408 2.47604L102.225 9.77932H108.591L105.408 2.47604Z" fill="white"/>
<path d="M74.9319 8.94704L79.5709 15.0435H77.0746L72.4355 8.94704H68.4414V15.0435H66.4443V0.291301H74.4742C77.241 0.291301 79.1757 1.85183 79.1757 4.61917C79.1757 7.26167 77.4282 8.78058 74.9319 8.94704ZM74.4534 2.16394H68.4206V7.09521H74.4534C76.0553 7.09521 77.1578 6.22132 77.1578 4.61917C77.1786 3.01703 76.0553 2.16394 74.4534 2.16394Z" fill="white"/>
<path d="M44.3933 15.0435V8.59332H35.1568V15.0435H33.1598V0.291301H35.1568V6.74149H44.3933V0.291301H46.3904V15.0435H44.3933Z" fill="white"/>
<path d="M29.436 0.291301V2.16394H23.7985V15.0435H21.8014V2.16394H16.1638V0.291301H29.436Z" fill="white"/>
<path d="M8.82358 28.1741H6.53527L5.89038 26.3223H9.48928L8.82358 28.1741Z" fill="white"/>
<path d="M12.9426 21.8696H15.0853L10.1758 35.956C10.0301 36.3513 9.6557 36.6218 9.23964 36.6218H7.70023L12.9426 21.8696Z" fill="white"/>
<path d="M7.67943 36.6218H6.14002C5.72396 36.6218 5.32872 36.3513 5.2039 35.956L0.29441 21.8696H2.4163L7.67943 36.6218Z" fill="white"/>
<path d="M112.027 30.1716V28.299H103.04V30.1716H112.027ZM101.063 32.1691V34.7491V36.6218H112.609V34.7491H103.061V30.1716C101.958 30.1716 101.063 31.0663 101.063 32.1691ZM112.609 23.7422V21.8696H101.063V23.7422V26.3223C101.063 27.4251 101.958 28.3198 103.061 28.3198V23.7422H112.609Z" fill="white"/>
<path d="M30.3337 23.7422V21.8696H18.7882V26.3223C18.7882 27.4251 19.6827 28.3198 20.7852 28.3198V23.7422H30.3337ZM29.7721 30.1716V28.299H20.7852V30.1716H29.7721ZM18.7882 32.1691V36.6218H30.3337V34.7491H20.7852V30.1716C19.6827 30.1716 18.7882 31.0663 18.7882 32.1691Z" fill="white"/>
<path d="M117.789 32.9597C118.475 34.229 120.057 35.0404 122.012 35.0404C124.238 35.0404 125.86 34.0001 125.86 32.5644C125.86 31.1287 124.862 30.4837 122.719 30.234L120.14 29.9635C117.207 29.6722 116 28.0493 116 25.9894C116 23.3885 118.205 21.5783 121.679 21.5783C125.32 21.5783 127.233 23.7422 127.899 25.5316H125.715C125.112 24.2832 123.531 23.4509 121.596 23.4509C119.287 23.4509 117.976 24.5745 117.976 25.927C117.976 27.2794 118.954 27.9868 120.701 28.1741L123.468 28.4654C126.193 28.7567 127.795 30.2964 127.795 32.4812C127.795 34.6867 125.819 36.9339 121.95 36.9339C118.059 36.9339 116.229 34.8948 115.563 32.9805H117.789V32.9597Z" fill="white"/>
<path d="M93.0752 30.5253L97.7142 36.6218H95.2179L90.5996 30.5253H86.5847V36.6218H84.5876V21.8696H92.6175C95.3843 21.8696 97.319 23.4301 97.319 26.1974C97.319 28.8399 95.5923 30.3589 93.0752 30.5253ZM92.6175 23.7422H86.5847V28.6735H92.6175C94.2194 28.6735 95.3219 27.7996 95.3219 26.1974C95.3219 24.5953 94.2194 23.7422 92.6175 23.7422Z" fill="white"/>
<path d="M67.9661 21.8696H69.9632V30.5045C69.9632 33.5215 71.6274 35.0404 74.3526 35.0404C77.0778 35.0404 78.742 33.5215 78.742 30.5045V21.8696H80.7391V30.5045C80.7391 34.6243 78.2011 36.8923 74.3526 36.8923C70.4833 36.8923 67.9661 34.6035 67.9661 30.5045V21.8696Z" fill="white"/>
<path d="M64.5337 21.8696V23.7422H58.8961V36.6218H56.899V23.7422H51.2614V21.8696H64.5337Z" fill="white"/>
<path d="M47.829 21.8696V36.6218H45.5823L36.5954 24.7201V36.6218H34.5984V21.8696H36.8451L45.8319 33.7712V21.8696H47.829Z" fill="white"/>
</svg>
