<svg width="226" height="27" viewBox="0 0 226 27" fill="none" xmlns="http://www.w3.org/2000/svg">
<path d="M142.713 2.23646L133.709 8.94583H126.956V2.23646H115.701V24.601H126.956V17.8917H133.709L142.713 24.601H156.219L142.713 13.4188L156.219 2.23646H142.713ZM24.761 8.99392H11.255V2.28454H0V24.6491H11.255V17.9397H24.761V24.6491H36.0159V2.28454H24.761V8.99392ZM37.5916 13.4188C37.5916 19.5945 42.6307 24.601 48.8466 24.601H62.3526V15.6552H51.099C49.8551 15.6552 48.8466 14.6533 48.8466 13.4174C48.8466 12.1815 49.8551 11.1798 51.099 11.1798H64.6036V15.4222V24.601H75.8586V2.23646H48.8466C42.6307 2.23646 37.5916 7.24299 37.5916 13.4188ZM77.4343 13.4188C77.4343 19.5945 82.4733 24.601 88.6892 24.601H113.45V15.6552H90.9416C89.6977 15.6552 88.6892 14.6533 88.6892 13.4174C88.6892 12.1815 89.6977 11.1798 90.9416 11.1798L113.45 11.1823V2.23646H88.6892C82.4733 2.23646 77.4343 7.24299 77.4343 13.4188ZM221.571 0H162.899C160.453 0 158.47 1.9701 158.47 4.40023V22.4373C158.47 24.8674 160.453 26.8375 162.899 26.8375H221.571C224.017 26.8375 226 24.8674 226 22.4373V4.40023C226 1.9701 224.017 0 221.571 0ZM173.957 19.5581C168.89 12.6362 162.915 4.47292 162.915 4.47292H171.976C171.976 4.47292 177.132 11.5162 179.838 15.2131C179.844 15.2207 179.849 15.2283 179.855 15.2359C182.471 11.6616 187.733 4.47292 187.733 4.47292H196.737L185.695 19.5572C182.797 23.5166 176.855 23.5175 173.957 19.5581ZM221.498 11.1823H203.49C202.247 11.1823 201.239 12.1836 201.239 13.4188C201.239 14.6539 202.247 15.6552 203.49 15.6552H221.498V22.3646H203.49C198.517 22.3646 194.486 18.3593 194.486 13.4188C194.486 8.47819 198.517 4.47292 203.49 4.47292H221.498V11.1823Z" fill="white"/>
</svg>
