<svg width="69" height="55" viewBox="0 0 69 55" fill="none" xmlns="http://www.w3.org/2000/svg">
<path d="M17.1776 42.7711C17.8177 43.685 18.1381 44.8853 18.1388 46.3718C18.1388 48.0784 17.7398 49.5407 16.9417 50.7587C16.1436 51.9767 15.0795 52.8905 13.7496 53.5004C12.4191 54.1094 10.9315 54.4141 9.28713 54.4142C7.5693 54.4142 5.88252 54.0425 4.2268 53.299C2.5696 52.5565 1.16067 51.4417 0 49.9547L3.19249 46.6647C3.94155 47.7369 4.89091 48.5531 6.04053 49.1136C7.19017 49.674 8.35701 49.9544 9.54105 49.9547C10.7259 49.9547 11.6813 49.6807 12.407 49.1323C13.1328 48.5841 13.4956 47.8467 13.4952 46.9202C13.4952 46.2385 13.2778 45.6781 12.8427 45.2387C12.4077 44.7994 11.8634 44.446 11.2102 44.1785C10.557 43.9109 9.68618 43.6063 8.59782 43.2646C6.75966 42.729 5.28434 42.1745 4.17188 41.6009C3.05932 41.0292 2.18266 40.28 1.54188 39.3535C0.901094 38.427 0.580613 37.2327 0.580429 35.7705C0.580429 34.089 0.967381 32.6389 1.74129 31.4204C2.51519 30.2017 3.56726 29.2694 4.89748 28.6235C6.22734 27.9782 7.67846 27.6555 9.25083 27.6554C10.7985 27.6554 12.2919 27.9781 13.7311 28.6235C15.1703 29.2688 16.3976 30.2011 17.4133 31.4204L14.4386 34.6012C13.8338 33.8213 13.0478 33.2058 12.0805 32.7548C11.1132 32.3037 10.1217 32.0782 9.10579 32.0784C7.94521 32.0784 7.00198 32.3525 6.2761 32.9009C5.55022 33.4492 5.18742 34.1988 5.18769 35.1495C5.18769 35.9047 5.41746 36.52 5.877 36.9953C6.33654 37.4706 6.89885 37.8482 7.56392 38.1281C8.2289 38.4089 9.1177 38.7075 10.2304 39.0241C12.0443 39.5362 13.4954 40.0601 14.5837 40.5955C15.672 41.1327 16.5366 41.8578 17.1776 42.7711ZM40.5221 28.2402L33.5572 47.3587L26.5192 28.2402H21.5488L31.3438 53.8295H35.6971L45.4922 28.2402H40.5221ZM69 53.8297H64.066L61.8894 48.0169H51.6955L49.5188 53.8297H44.5849L54.5978 28.2404H58.987L69 53.8297ZM60.2935 43.7402L56.8104 34.3447L53.2914 43.7402H60.2935Z" fill="white"/>
<path d="M27.5239 21.3367C26.999 21.3367 26.4873 21.3171 25.989 21.2781C21.9052 20.9554 19.1278 19.3148 18.1682 16.6582C16.3751 11.6928 22.0438 5.37319 31.3537 1.95816C35.4351 0.46201 39.5764 -0.21257 43.0116 0.0587354C47.0951 0.381493 49.8724 2.02212 50.8324 4.67872C51.7925 7.33532 50.7108 10.391 47.7882 13.2829C45.3285 15.7168 41.7266 17.8816 37.6465 19.3779C34.1573 20.6573 30.6238 21.3367 27.5239 21.3367ZM41.4905 4.75242C38.9521 4.75242 35.9153 5.34245 32.9671 6.42378C29.5566 7.67531 26.4765 9.50479 24.5168 11.4438C22.8818 13.0618 22.3761 14.4118 22.6002 15.0316C22.8244 15.6513 24.0724 16.3582 26.3573 16.5388C29.0957 16.7545 32.6225 16.1616 36.0329 14.911C39.4432 13.6605 42.5237 11.8303 44.4837 9.89095C46.1188 8.273 46.6247 6.923 46.4002 6.30322C46.1759 5.68342 44.9278 4.97631 42.6434 4.79609C42.2726 4.76675 41.8877 4.75242 41.4905 4.75242Z" fill="white"/>
</svg>
